<?xml version="1.0" encoding="utf-8" standalone="no"?>
<!DOCTYPE svg PUBLIC "-//W3C//DTD SVG 1.1//EN"
  "http://www.w3.org/Graphics/SVG/1.1/DTD/svg11.dtd">
<!-- Created with matplotlib (http://matplotlib.org/) -->
<svg height="735.84pt" version="1.1" viewBox="0 0 1382.4 735.84" width="1382.4pt" xmlns="http://www.w3.org/2000/svg" xmlns:xlink="http://www.w3.org/1999/xlink">
 <defs>
  <style type="text/css">
*{stroke-linecap:butt;stroke-linejoin:round;}
  </style>
 </defs>
 <g id="figure_1">
  <g id="patch_1">
   <path d="M 0 735.84 
L 1382.4 735.84 
L 1382.4 0 
L 0 0 
z
" style="fill:#ffffff;"/>
  </g>
  <g id="axes_1">
   <g id="patch_2">
    <path d="M 172.8 654.8976 
L 1244.16 654.8976 
L 1244.16 88.3008 
L 172.8 88.3008 
z
" style="fill:#ffffff;"/>
   </g>
   <g id="patch_3">
    <path clip-path="url(#pf884f7c5bb)" d="M 309.712042 654.8976 
L 325.66276 654.8976 
L 325.66276 645.725657 
L 309.712042 645.725657 
z
" style="fill:#0000fc;fill-opacity:0.5;"/>
   </g>
   <g id="patch_4">
    <path clip-path="url(#pf884f7c5bb)" d="M 325.66276 654.8976 
L 341.613478 654.8976 
L 341.613478 628.910427 
L 325.66276 628.910427 
z
" style="fill:#0000fc;fill-opacity:0.5;"/>
   </g>
   <g id="patch_5">
    <path clip-path="url(#pf884f7c5bb)" d="M 341.613478 654.8976 
L 357.564197 654.8976 
L 357.564197 622.795798 
L 341.613478 622.795798 
z
" style="fill:#0000fc;fill-opacity:0.5;"/>
   </g>
   <g id="patch_6">
    <path clip-path="url(#pf884f7c5bb)" d="M 357.564197 654.8976 
L 373.514915 654.8976 
L 373.514915 572.35011 
L 357.564197 572.35011 
z
" style="fill:#0000fc;fill-opacity:0.5;"/>
   </g>
   <g id="patch_7">
    <path clip-path="url(#pf884f7c5bb)" d="M 373.514915 654.8976 
L 389.465633 654.8976 
L 389.465633 518.847107 
L 373.514915 518.847107 
z
" style="fill:#0000fc;fill-opacity:0.5;"/>
   </g>
   <g id="patch_8">
    <path clip-path="url(#pf884f7c5bb)" d="M 389.465633 654.8976 
L 405.416352 654.8976 
L 405.416352 443.942903 
L 389.465633 443.942903 
z
" style="fill:#0000fc;fill-opacity:0.5;"/>
   </g>
   <g id="patch_9">
    <path clip-path="url(#pf884f7c5bb)" d="M 405.416352 654.8976 
L 421.36707 654.8976 
L 421.36707 355.280784 
L 405.416352 355.280784 
z
" style="fill:#0000fc;fill-opacity:0.5;"/>
   </g>
   <g id="patch_10">
    <path clip-path="url(#pf884f7c5bb)" d="M 421.36707 654.8976 
L 437.317788 654.8976 
L 437.317788 440.885589 
L 421.36707 440.885589 
z
" style="fill:#0000fc;fill-opacity:0.5;"/>
   </g>
   <g id="patch_11">
    <path clip-path="url(#pf884f7c5bb)" d="M 437.317788 654.8976 
L 453.268507 654.8976 
L 453.268507 402.669158 
L 437.317788 402.669158 
z
" style="fill:#0000fc;fill-opacity:0.5;"/>
   </g>
   <g id="patch_12">
    <path clip-path="url(#pf884f7c5bb)" d="M 453.268507 654.8976 
L 469.219225 654.8976 
L 469.219225 421.013045 
L 453.268507 421.013045 
z
" style="fill:#0000fc;fill-opacity:0.5;"/>
   </g>
   <g id="patch_13">
    <path clip-path="url(#pf884f7c5bb)" d="M 469.219225 654.8976 
L 485.169943 654.8976 
L 485.169943 350.694812 
L 469.219225 350.694812 
z
" style="fill:#0000fc;fill-opacity:0.5;"/>
   </g>
   <g id="patch_14">
    <path clip-path="url(#pf884f7c5bb)" d="M 485.169943 654.8976 
L 501.120662 654.8976 
L 501.120662 309.421067 
L 485.169943 309.421067 
z
" style="fill:#0000fc;fill-opacity:0.5;"/>
   </g>
   <g id="patch_15">
    <path clip-path="url(#pf884f7c5bb)" d="M 501.120662 654.8976 
L 517.07138 654.8976 
L 517.07138 268.147322 
L 501.120662 268.147322 
z
" style="fill:#0000fc;fill-opacity:0.5;"/>
   </g>
   <g id="patch_16">
    <path clip-path="url(#pf884f7c5bb)" d="M 517.07138 654.8976 
L 533.022098 654.8976 
L 533.022098 280.37658 
L 517.07138 280.37658 
z
" style="fill:#0000fc;fill-opacity:0.5;"/>
   </g>
   <g id="patch_17">
    <path clip-path="url(#pf884f7c5bb)" d="M 533.022098 654.8976 
L 548.972817 654.8976 
L 548.972817 213.115662 
L 533.022098 213.115662 
z
" style="fill:#0000fc;fill-opacity:0.5;"/>
   </g>
   <g id="patch_18">
    <path clip-path="url(#pf884f7c5bb)" d="M 548.972817 654.8976 
L 564.923535 654.8976 
L 564.923535 115.2816 
L 548.972817 115.2816 
z
" style="fill:#0000fc;fill-opacity:0.5;"/>
   </g>
   <g id="patch_19">
    <path clip-path="url(#pf884f7c5bb)" d="M 564.923535 654.8976 
L 580.874253 654.8976 
L 580.874253 200.886405 
L 564.923535 200.886405 
z
" style="fill:#0000fc;fill-opacity:0.5;"/>
   </g>
   <g id="patch_20">
    <path clip-path="url(#pf884f7c5bb)" d="M 580.874253 654.8976 
L 596.824972 654.8976 
L 596.824972 185.599832 
L 580.874253 185.599832 
z
" style="fill:#0000fc;fill-opacity:0.5;"/>
   </g>
   <g id="patch_21">
    <path clip-path="url(#pf884f7c5bb)" d="M 596.824972 654.8976 
L 612.77569 654.8976 
L 612.77569 197.82909 
L 596.824972 197.82909 
z
" style="fill:#0000fc;fill-opacity:0.5;"/>
   </g>
   <g id="patch_22">
    <path clip-path="url(#pf884f7c5bb)" d="M 612.77569 654.8976 
L 628.726408 654.8976 
L 628.726408 217.701634 
L 612.77569 217.701634 
z
" style="fill:#0000fc;fill-opacity:0.5;"/>
   </g>
   <g id="patch_23">
    <path clip-path="url(#pf884f7c5bb)" d="M 628.726408 654.8976 
L 644.677127 654.8976 
L 644.677127 332.350926 
L 628.726408 332.350926 
z
" style="fill:#0000fc;fill-opacity:0.5;"/>
   </g>
   <g id="patch_24">
    <path clip-path="url(#pf884f7c5bb)" d="M 644.677127 654.8976 
L 660.627845 654.8976 
L 660.627845 269.67598 
L 644.677127 269.67598 
z
" style="fill:#0000fc;fill-opacity:0.5;"/>
   </g>
   <g id="patch_25">
    <path clip-path="url(#pf884f7c5bb)" d="M 660.627845 654.8976 
L 676.578563 654.8976 
L 676.578563 278.847923 
L 660.627845 278.847923 
z
" style="fill:#0000fc;fill-opacity:0.5;"/>
   </g>
   <g id="patch_26">
    <path clip-path="url(#pf884f7c5bb)" d="M 676.578563 654.8976 
L 692.529282 654.8976 
L 692.529282 361.395413 
L 676.578563 361.395413 
z
" style="fill:#0000fc;fill-opacity:0.5;"/>
   </g>
   <g id="patch_27">
    <path clip-path="url(#pf884f7c5bb)" d="M 692.529282 654.8976 
L 708.48 654.8976 
L 708.48 417.95573 
L 692.529282 417.95573 
z
" style="fill:#0000fc;fill-opacity:0.5;"/>
   </g>
   <g id="patch_28">
    <path clip-path="url(#pf884f7c5bb)" d="M 708.48 654.8976 
L 724.430718 654.8976 
L 724.430718 431.713645 
L 708.48 431.713645 
z
" style="fill:#0000fc;fill-opacity:0.5;"/>
   </g>
   <g id="patch_29">
    <path clip-path="url(#pf884f7c5bb)" d="M 724.430718 654.8976 
L 740.381437 654.8976 
L 740.381437 488.273963 
L 724.430718 488.273963 
z
" style="fill:#0000fc;fill-opacity:0.5;"/>
   </g>
   <g id="patch_30">
    <path clip-path="url(#pf884f7c5bb)" d="M 740.381437 654.8976 
L 756.332155 654.8976 
L 756.332155 483.687991 
L 740.381437 483.687991 
z
" style="fill:#0000fc;fill-opacity:0.5;"/>
   </g>
   <g id="patch_31">
    <path clip-path="url(#pf884f7c5bb)" d="M 756.332155 654.8976 
L 772.282873 654.8976 
L 772.282873 509.675164 
L 756.332155 509.675164 
z
" style="fill:#0000fc;fill-opacity:0.5;"/>
   </g>
   <g id="patch_32">
    <path clip-path="url(#pf884f7c5bb)" d="M 772.282873 654.8976 
L 788.233592 654.8976 
L 788.233592 508.146507 
L 772.282873 508.146507 
z
" style="fill:#0000fc;fill-opacity:0.5;"/>
   </g>
   <g id="patch_33">
    <path clip-path="url(#pf884f7c5bb)" d="M 788.233592 654.8976 
L 804.18431 654.8976 
L 804.18431 505.089192 
L 788.233592 505.089192 
z
" style="fill:#0000fc;fill-opacity:0.5;"/>
   </g>
   <g id="patch_34">
    <path clip-path="url(#pf884f7c5bb)" d="M 804.18431 654.8976 
L 820.135028 654.8976 
L 820.135028 526.490393 
L 804.18431 526.490393 
z
" style="fill:#0000fc;fill-opacity:0.5;"/>
   </g>
   <g id="patch_35">
    <path clip-path="url(#pf884f7c5bb)" d="M 820.135028 654.8976 
L 836.085747 654.8976 
L 836.085747 549.420252 
L 820.135028 549.420252 
z
" style="fill:#0000fc;fill-opacity:0.5;"/>
   </g>
   <g id="patch_36">
    <path clip-path="url(#pf884f7c5bb)" d="M 836.085747 654.8976 
L 852.036465 654.8976 
L 852.036465 543.305623 
L 836.085747 543.305623 
z
" style="fill:#0000fc;fill-opacity:0.5;"/>
   </g>
   <g id="patch_37">
    <path clip-path="url(#pf884f7c5bb)" d="M 852.036465 654.8976 
L 867.987183 654.8976 
L 867.987183 567.764138 
L 852.036465 567.764138 
z
" style="fill:#0000fc;fill-opacity:0.5;"/>
   </g>
   <g id="patch_38">
    <path clip-path="url(#pf884f7c5bb)" d="M 867.987183 654.8976 
L 883.937902 654.8976 
L 883.937902 590.693997 
L 867.987183 590.693997 
z
" style="fill:#0000fc;fill-opacity:0.5;"/>
   </g>
   <g id="patch_39">
    <path clip-path="url(#pf884f7c5bb)" d="M 883.937902 654.8976 
L 899.88862 654.8976 
L 899.88862 595.279968 
L 883.937902 595.279968 
z
" style="fill:#0000fc;fill-opacity:0.5;"/>
   </g>
   <g id="patch_40">
    <path clip-path="url(#pf884f7c5bb)" d="M 899.88862 654.8976 
L 915.839338 654.8976 
L 915.839338 598.337283 
L 899.88862 598.337283 
z
" style="fill:#0000fc;fill-opacity:0.5;"/>
   </g>
   <g id="patch_41">
    <path clip-path="url(#pf884f7c5bb)" d="M 915.839338 654.8976 
L 931.790057 654.8976 
L 931.790057 605.980569 
L 915.839338 605.980569 
z
" style="fill:#0000fc;fill-opacity:0.5;"/>
   </g>
   <g id="patch_42">
    <path clip-path="url(#pf884f7c5bb)" d="M 931.790057 654.8976 
L 947.740775 654.8976 
L 947.740775 605.980569 
L 931.790057 605.980569 
z
" style="fill:#0000fc;fill-opacity:0.5;"/>
   </g>
   <g id="patch_43">
    <path clip-path="url(#pf884f7c5bb)" d="M 947.740775 654.8976 
L 963.691493 654.8976 
L 963.691493 621.267141 
L 947.740775 621.267141 
z
" style="fill:#0000fc;fill-opacity:0.5;"/>
   </g>
   <g id="patch_44">
    <path clip-path="url(#pf884f7c5bb)" d="M 963.691493 654.8976 
L 979.642212 654.8976 
L 979.642212 630.439084 
L 963.691493 630.439084 
z
" style="fill:#0000fc;fill-opacity:0.5;"/>
   </g>
   <g id="patch_45">
    <path clip-path="url(#pf884f7c5bb)" d="M 979.642212 654.8976 
L 995.59293 654.8976 
L 995.59293 633.496399 
L 979.642212 633.496399 
z
" style="fill:#0000fc;fill-opacity:0.5;"/>
   </g>
   <g id="patch_46">
    <path clip-path="url(#pf884f7c5bb)" d="M 995.59293 654.8976 
L 1011.543648 654.8976 
L 1011.543648 635.025056 
L 995.59293 635.025056 
z
" style="fill:#0000fc;fill-opacity:0.5;"/>
   </g>
   <g id="patch_47">
    <path clip-path="url(#pf884f7c5bb)" d="M 1011.543648 654.8976 
L 1027.494367 654.8976 
L 1027.494367 639.611028 
L 1011.543648 639.611028 
z
" style="fill:#0000fc;fill-opacity:0.5;"/>
   </g>
   <g id="patch_48">
    <path clip-path="url(#pf884f7c5bb)" d="M 1027.494367 654.8976 
L 1043.445085 654.8976 
L 1043.445085 648.782971 
L 1027.494367 648.782971 
z
" style="fill:#0000fc;fill-opacity:0.5;"/>
   </g>
   <g id="patch_49">
    <path clip-path="url(#pf884f7c5bb)" d="M 1043.445085 654.8976 
L 1059.395803 654.8976 
L 1059.395803 648.782971 
L 1043.445085 648.782971 
z
" style="fill:#0000fc;fill-opacity:0.5;"/>
   </g>
   <g id="patch_50">
    <path clip-path="url(#pf884f7c5bb)" d="M 1059.395803 654.8976 
L 1075.346522 654.8976 
L 1075.346522 648.782971 
L 1059.395803 648.782971 
z
" style="fill:#0000fc;fill-opacity:0.5;"/>
   </g>
   <g id="patch_51">
    <path clip-path="url(#pf884f7c5bb)" d="M 1075.346522 654.8976 
L 1091.29724 654.8976 
L 1091.29724 653.368943 
L 1075.346522 653.368943 
z
" style="fill:#0000fc;fill-opacity:0.5;"/>
   </g>
   <g id="patch_52">
    <path clip-path="url(#pf884f7c5bb)" d="M 1091.29724 654.8976 
L 1107.247958 654.8976 
L 1107.247958 651.840286 
L 1091.29724 651.840286 
z
" style="fill:#0000fc;fill-opacity:0.5;"/>
   </g>
   <g id="matplotlib.axis_1">
    <g id="xtick_1">
     <g id="line2d_1">
      <defs>
       <path d="M 0 0 
L 0 3.5 
" id="m4ab49221ab" style="stroke:#000000;stroke-width:0.8;"/>
      </defs>
      <g>
       <use style="stroke:#000000;stroke-width:0.8;" x="354.926341" xlink:href="#m4ab49221ab" y="654.8976"/>
      </g>
     </g>
     <g id="text_1">
      <!-- −0.1 -->
      <defs>
       <path d="M 10.59375 35.5 
L 73.1875 35.5 
L 73.1875 27.203125 
L 10.59375 27.203125 
z
" id="DejaVuSans-2212"/>
       <path d="M 31.78125 66.40625 
Q 24.171875 66.40625 20.328125 58.90625 
Q 16.5 51.421875 16.5 36.375 
Q 16.5 21.390625 20.328125 13.890625 
Q 24.171875 6.390625 31.78125 6.390625 
Q 39.453125 6.390625 43.28125 13.890625 
Q 47.125 21.390625 47.125 36.375 
Q 47.125 51.421875 43.28125 58.90625 
Q 39.453125 66.40625 31.78125 66.40625 
z
M 31.78125 74.21875 
Q 44.046875 74.21875 50.515625 64.515625 
Q 56.984375 54.828125 56.984375 36.375 
Q 56.984375 17.96875 50.515625 8.265625 
Q 44.046875 -1.421875 31.78125 -1.421875 
Q 19.53125 -1.421875 13.0625 8.265625 
Q 6.59375 17.96875 6.59375 36.375 
Q 6.59375 54.828125 13.0625 64.515625 
Q 19.53125 74.21875 31.78125 74.21875 
z
" id="DejaVuSans-30"/>
       <path d="M 10.6875 12.40625 
L 21 12.40625 
L 21 0 
L 10.6875 0 
z
" id="DejaVuSans-2e"/>
       <path d="M 12.40625 8.296875 
L 28.515625 8.296875 
L 28.515625 63.921875 
L 10.984375 60.40625 
L 10.984375 69.390625 
L 28.421875 72.90625 
L 38.28125 72.90625 
L 38.28125 8.296875 
L 54.390625 8.296875 
L 54.390625 0 
L 12.40625 0 
z
" id="DejaVuSans-31"/>
      </defs>
      <g transform="translate(340.356654 671.015725)scale(0.12 -0.12)">
       <use xlink:href="#DejaVuSans-2212"/>
       <use x="83.789062" xlink:href="#DejaVuSans-30"/>
       <use x="147.412109" xlink:href="#DejaVuSans-2e"/>
       <use x="179.199219" xlink:href="#DejaVuSans-31"/>
      </g>
     </g>
    </g>
    <g id="xtick_2">
     <g id="line2d_2">
      <g>
       <use style="stroke:#000000;stroke-width:0.8;" x="550.957141" xlink:href="#m4ab49221ab" y="654.8976"/>
      </g>
     </g>
     <g id="text_2">
      <!-- 0.0 -->
      <g transform="translate(541.415266 671.015725)scale(0.12 -0.12)">
       <use xlink:href="#DejaVuSans-30"/>
       <use x="63.623047" xlink:href="#DejaVuSans-2e"/>
       <use x="95.410156" xlink:href="#DejaVuSans-30"/>
      </g>
     </g>
    </g>
    <g id="xtick_3">
     <g id="line2d_3">
      <g>
       <use style="stroke:#000000;stroke-width:0.8;" x="746.98794" xlink:href="#m4ab49221ab" y="654.8976"/>
      </g>
     </g>
     <g id="text_3">
      <!-- 0.1 -->
      <g transform="translate(737.446065 671.015725)scale(0.12 -0.12)">
       <use xlink:href="#DejaVuSans-30"/>
       <use x="63.623047" xlink:href="#DejaVuSans-2e"/>
       <use x="95.410156" xlink:href="#DejaVuSans-31"/>
      </g>
     </g>
    </g>
    <g id="xtick_4">
     <g id="line2d_4">
      <g>
       <use style="stroke:#000000;stroke-width:0.8;" x="943.01874" xlink:href="#m4ab49221ab" y="654.8976"/>
      </g>
     </g>
     <g id="text_4">
      <!-- 0.2 -->
      <defs>
       <path d="M 19.1875 8.296875 
L 53.609375 8.296875 
L 53.609375 0 
L 7.328125 0 
L 7.328125 8.296875 
Q 12.9375 14.109375 22.625 23.890625 
Q 32.328125 33.6875 34.8125 36.53125 
Q 39.546875 41.84375 41.421875 45.53125 
Q 43.3125 49.21875 43.3125 52.78125 
Q 43.3125 58.59375 39.234375 62.25 
Q 35.15625 65.921875 28.609375 65.921875 
Q 23.96875 65.921875 18.8125 64.3125 
Q 13.671875 62.703125 7.8125 59.421875 
L 7.8125 69.390625 
Q 13.765625 71.78125 18.9375 73 
Q 24.125 74.21875 28.421875 74.21875 
Q 39.75 74.21875 46.484375 68.546875 
Q 53.21875 62.890625 53.21875 53.421875 
Q 53.21875 48.921875 51.53125 44.890625 
Q 49.859375 40.875 45.40625 35.40625 
Q 44.1875 33.984375 37.640625 27.21875 
Q 31.109375 20.453125 19.1875 8.296875 
z
" id="DejaVuSans-32"/>
      </defs>
      <g transform="translate(933.476865 671.015725)scale(0.12 -0.12)">
       <use xlink:href="#DejaVuSans-30"/>
       <use x="63.623047" xlink:href="#DejaVuSans-2e"/>
       <use x="95.410156" xlink:href="#DejaVuSans-32"/>
      </g>
     </g>
    </g>
    <g id="xtick_5">
     <g id="line2d_5">
      <g>
       <use style="stroke:#000000;stroke-width:0.8;" x="1139.049539" xlink:href="#m4ab49221ab" y="654.8976"/>
      </g>
     </g>
     <g id="text_5">
      <!-- 0.3 -->
      <defs>
       <path d="M 40.578125 39.3125 
Q 47.65625 37.796875 51.625 33 
Q 55.609375 28.21875 55.609375 21.1875 
Q 55.609375 10.40625 48.1875 4.484375 
Q 40.765625 -1.421875 27.09375 -1.421875 
Q 22.515625 -1.421875 17.65625 -0.515625 
Q 12.796875 0.390625 7.625 2.203125 
L 7.625 11.71875 
Q 11.71875 9.328125 16.59375 8.109375 
Q 21.484375 6.890625 26.8125 6.890625 
Q 36.078125 6.890625 40.9375 10.546875 
Q 45.796875 14.203125 45.796875 21.1875 
Q 45.796875 27.640625 41.28125 31.265625 
Q 36.765625 34.90625 28.71875 34.90625 
L 20.21875 34.90625 
L 20.21875 43.015625 
L 29.109375 43.015625 
Q 36.375 43.015625 40.234375 45.921875 
Q 44.09375 48.828125 44.09375 54.296875 
Q 44.09375 59.90625 40.109375 62.90625 
Q 36.140625 65.921875 28.71875 65.921875 
Q 24.65625 65.921875 20.015625 65.03125 
Q 15.375 64.15625 9.8125 62.3125 
L 9.8125 71.09375 
Q 15.4375 72.65625 20.34375 73.4375 
Q 25.25 74.21875 29.59375 74.21875 
Q 40.828125 74.21875 47.359375 69.109375 
Q 53.90625 64.015625 53.90625 55.328125 
Q 53.90625 49.265625 50.4375 45.09375 
Q 46.96875 40.921875 40.578125 39.3125 
z
" id="DejaVuSans-33"/>
      </defs>
      <g transform="translate(1129.507664 671.015725)scale(0.12 -0.12)">
       <use xlink:href="#DejaVuSans-30"/>
       <use x="63.623047" xlink:href="#DejaVuSans-2e"/>
       <use x="95.410156" xlink:href="#DejaVuSans-33"/>
      </g>
     </g>
    </g>
    <g id="text_6">
     <!-- b-value multiplier -->
     <defs>
      <path d="M 48.6875 27.296875 
Q 48.6875 37.203125 44.609375 42.84375 
Q 40.53125 48.484375 33.40625 48.484375 
Q 26.265625 48.484375 22.1875 42.84375 
Q 18.109375 37.203125 18.109375 27.296875 
Q 18.109375 17.390625 22.1875 11.75 
Q 26.265625 6.109375 33.40625 6.109375 
Q 40.53125 6.109375 44.609375 11.75 
Q 48.6875 17.390625 48.6875 27.296875 
z
M 18.109375 46.390625 
Q 20.953125 51.265625 25.265625 53.625 
Q 29.59375 56 35.59375 56 
Q 45.5625 56 51.78125 48.09375 
Q 58.015625 40.1875 58.015625 27.296875 
Q 58.015625 14.40625 51.78125 6.484375 
Q 45.5625 -1.421875 35.59375 -1.421875 
Q 29.59375 -1.421875 25.265625 0.953125 
Q 20.953125 3.328125 18.109375 8.203125 
L 18.109375 0 
L 9.078125 0 
L 9.078125 75.984375 
L 18.109375 75.984375 
z
" id="DejaVuSans-62"/>
      <path d="M 4.890625 31.390625 
L 31.203125 31.390625 
L 31.203125 23.390625 
L 4.890625 23.390625 
z
" id="DejaVuSans-2d"/>
      <path d="M 2.984375 54.6875 
L 12.5 54.6875 
L 29.59375 8.796875 
L 46.6875 54.6875 
L 56.203125 54.6875 
L 35.6875 0 
L 23.484375 0 
z
" id="DejaVuSans-76"/>
      <path d="M 34.28125 27.484375 
Q 23.390625 27.484375 19.1875 25 
Q 14.984375 22.515625 14.984375 16.5 
Q 14.984375 11.71875 18.140625 8.90625 
Q 21.296875 6.109375 26.703125 6.109375 
Q 34.1875 6.109375 38.703125 11.40625 
Q 43.21875 16.703125 43.21875 25.484375 
L 43.21875 27.484375 
z
M 52.203125 31.203125 
L 52.203125 0 
L 43.21875 0 
L 43.21875 8.296875 
Q 40.140625 3.328125 35.546875 0.953125 
Q 30.953125 -1.421875 24.3125 -1.421875 
Q 15.921875 -1.421875 10.953125 3.296875 
Q 6 8.015625 6 15.921875 
Q 6 25.140625 12.171875 29.828125 
Q 18.359375 34.515625 30.609375 34.515625 
L 43.21875 34.515625 
L 43.21875 35.40625 
Q 43.21875 41.609375 39.140625 45 
Q 35.0625 48.390625 27.6875 48.390625 
Q 23 48.390625 18.546875 47.265625 
Q 14.109375 46.140625 10.015625 43.890625 
L 10.015625 52.203125 
Q 14.9375 54.109375 19.578125 55.046875 
Q 24.21875 56 28.609375 56 
Q 40.484375 56 46.34375 49.84375 
Q 52.203125 43.703125 52.203125 31.203125 
z
" id="DejaVuSans-61"/>
      <path d="M 9.421875 75.984375 
L 18.40625 75.984375 
L 18.40625 0 
L 9.421875 0 
z
" id="DejaVuSans-6c"/>
      <path d="M 8.5 21.578125 
L 8.5 54.6875 
L 17.484375 54.6875 
L 17.484375 21.921875 
Q 17.484375 14.15625 20.5 10.265625 
Q 23.53125 6.390625 29.59375 6.390625 
Q 36.859375 6.390625 41.078125 11.03125 
Q 45.3125 15.671875 45.3125 23.6875 
L 45.3125 54.6875 
L 54.296875 54.6875 
L 54.296875 0 
L 45.3125 0 
L 45.3125 8.40625 
Q 42.046875 3.421875 37.71875 1 
Q 33.40625 -1.421875 27.6875 -1.421875 
Q 18.265625 -1.421875 13.375 4.4375 
Q 8.5 10.296875 8.5 21.578125 
z
M 31.109375 56 
z
" id="DejaVuSans-75"/>
      <path d="M 56.203125 29.59375 
L 56.203125 25.203125 
L 14.890625 25.203125 
Q 15.484375 15.921875 20.484375 11.0625 
Q 25.484375 6.203125 34.421875 6.203125 
Q 39.59375 6.203125 44.453125 7.46875 
Q 49.3125 8.734375 54.109375 11.28125 
L 54.109375 2.78125 
Q 49.265625 0.734375 44.1875 -0.34375 
Q 39.109375 -1.421875 33.890625 -1.421875 
Q 20.796875 -1.421875 13.15625 6.1875 
Q 5.515625 13.8125 5.515625 26.8125 
Q 5.515625 40.234375 12.765625 48.109375 
Q 20.015625 56 32.328125 56 
Q 43.359375 56 49.78125 48.890625 
Q 56.203125 41.796875 56.203125 29.59375 
z
M 47.21875 32.234375 
Q 47.125 39.59375 43.09375 43.984375 
Q 39.0625 48.390625 32.421875 48.390625 
Q 24.90625 48.390625 20.390625 44.140625 
Q 15.875 39.890625 15.1875 32.171875 
z
" id="DejaVuSans-65"/>
      <path id="DejaVuSans-20"/>
      <path d="M 52 44.1875 
Q 55.375 50.25 60.0625 53.125 
Q 64.75 56 71.09375 56 
Q 79.640625 56 84.28125 50.015625 
Q 88.921875 44.046875 88.921875 33.015625 
L 88.921875 0 
L 79.890625 0 
L 79.890625 32.71875 
Q 79.890625 40.578125 77.09375 44.375 
Q 74.3125 48.1875 68.609375 48.1875 
Q 61.625 48.1875 57.5625 43.546875 
Q 53.515625 38.921875 53.515625 30.90625 
L 53.515625 0 
L 44.484375 0 
L 44.484375 32.71875 
Q 44.484375 40.625 41.703125 44.40625 
Q 38.921875 48.1875 33.109375 48.1875 
Q 26.21875 48.1875 22.15625 43.53125 
Q 18.109375 38.875 18.109375 30.90625 
L 18.109375 0 
L 9.078125 0 
L 9.078125 54.6875 
L 18.109375 54.6875 
L 18.109375 46.1875 
Q 21.1875 51.21875 25.484375 53.609375 
Q 29.78125 56 35.6875 56 
Q 41.65625 56 45.828125 52.96875 
Q 50 49.953125 52 44.1875 
z
" id="DejaVuSans-6d"/>
      <path d="M 18.3125 70.21875 
L 18.3125 54.6875 
L 36.8125 54.6875 
L 36.8125 47.703125 
L 18.3125 47.703125 
L 18.3125 18.015625 
Q 18.3125 11.328125 20.140625 9.421875 
Q 21.96875 7.515625 27.59375 7.515625 
L 36.8125 7.515625 
L 36.8125 0 
L 27.59375 0 
Q 17.1875 0 13.234375 3.875 
Q 9.28125 7.765625 9.28125 18.015625 
L 9.28125 47.703125 
L 2.6875 47.703125 
L 2.6875 54.6875 
L 9.28125 54.6875 
L 9.28125 70.21875 
z
" id="DejaVuSans-74"/>
      <path d="M 9.421875 54.6875 
L 18.40625 54.6875 
L 18.40625 0 
L 9.421875 0 
z
M 9.421875 75.984375 
L 18.40625 75.984375 
L 18.40625 64.59375 
L 9.421875 64.59375 
z
" id="DejaVuSans-69"/>
      <path d="M 18.109375 8.203125 
L 18.109375 -20.796875 
L 9.078125 -20.796875 
L 9.078125 54.6875 
L 18.109375 54.6875 
L 18.109375 46.390625 
Q 20.953125 51.265625 25.265625 53.625 
Q 29.59375 56 35.59375 56 
Q 45.5625 56 51.78125 48.09375 
Q 58.015625 40.1875 58.015625 27.296875 
Q 58.015625 14.40625 51.78125 6.484375 
Q 45.5625 -1.421875 35.59375 -1.421875 
Q 29.59375 -1.421875 25.265625 0.953125 
Q 20.953125 3.328125 18.109375 8.203125 
z
M 48.6875 27.296875 
Q 48.6875 37.203125 44.609375 42.84375 
Q 40.53125 48.484375 33.40625 48.484375 
Q 26.265625 48.484375 22.1875 42.84375 
Q 18.109375 37.203125 18.109375 27.296875 
Q 18.109375 17.390625 22.1875 11.75 
Q 26.265625 6.109375 33.40625 6.109375 
Q 40.53125 6.109375 44.609375 11.75 
Q 48.6875 17.390625 48.6875 27.296875 
z
" id="DejaVuSans-70"/>
      <path d="M 41.109375 46.296875 
Q 39.59375 47.171875 37.8125 47.578125 
Q 36.03125 48 33.890625 48 
Q 26.265625 48 22.1875 43.046875 
Q 18.109375 38.09375 18.109375 28.8125 
L 18.109375 0 
L 9.078125 0 
L 9.078125 54.6875 
L 18.109375 54.6875 
L 18.109375 46.1875 
Q 20.953125 51.171875 25.484375 53.578125 
Q 30.03125 56 36.53125 56 
Q 37.453125 56 38.578125 55.875 
Q 39.703125 55.765625 41.0625 55.515625 
z
" id="DejaVuSans-72"/>
     </defs>
     <g transform="translate(637.94375 689.66885)scale(0.16 -0.16)">
      <use xlink:href="#DejaVuSans-62"/>
      <use x="63.476562" xlink:href="#DejaVuSans-2d"/>
      <use x="99.529297" xlink:href="#DejaVuSans-76"/>
      <use x="158.708984" xlink:href="#DejaVuSans-61"/>
      <use x="219.988281" xlink:href="#DejaVuSans-6c"/>
      <use x="247.771484" xlink:href="#DejaVuSans-75"/>
      <use x="311.150391" xlink:href="#DejaVuSans-65"/>
      <use x="372.673828" xlink:href="#DejaVuSans-20"/>
      <use x="404.460938" xlink:href="#DejaVuSans-6d"/>
      <use x="501.873047" xlink:href="#DejaVuSans-75"/>
      <use x="565.251953" xlink:href="#DejaVuSans-6c"/>
      <use x="593.035156" xlink:href="#DejaVuSans-74"/>
      <use x="632.244141" xlink:href="#DejaVuSans-69"/>
      <use x="660.027344" xlink:href="#DejaVuSans-70"/>
      <use x="723.503906" xlink:href="#DejaVuSans-6c"/>
      <use x="751.287109" xlink:href="#DejaVuSans-69"/>
      <use x="779.070312" xlink:href="#DejaVuSans-65"/>
      <use x="840.59375" xlink:href="#DejaVuSans-72"/>
     </g>
    </g>
   </g>
   <g id="matplotlib.axis_2">
    <g id="ytick_1">
     <g id="line2d_6">
      <defs>
       <path d="M 0 0 
L -3.5 0 
" id="mff02cf0102" style="stroke:#000000;stroke-width:0.8;"/>
      </defs>
      <g>
       <use style="stroke:#000000;stroke-width:0.8;" x="172.8" xlink:href="#mff02cf0102" y="654.8976"/>
      </g>
     </g>
    </g>
    <g id="ytick_2">
     <g id="line2d_7">
      <g>
       <use style="stroke:#000000;stroke-width:0.8;" x="172.8" xlink:href="#mff02cf0102" y="580.266937"/>
      </g>
     </g>
    </g>
    <g id="ytick_3">
     <g id="line2d_8">
      <g>
       <use style="stroke:#000000;stroke-width:0.8;" x="172.8" xlink:href="#mff02cf0102" y="505.636275"/>
      </g>
     </g>
    </g>
    <g id="ytick_4">
     <g id="line2d_9">
      <g>
       <use style="stroke:#000000;stroke-width:0.8;" x="172.8" xlink:href="#mff02cf0102" y="431.005612"/>
      </g>
     </g>
    </g>
    <g id="ytick_5">
     <g id="line2d_10">
      <g>
       <use style="stroke:#000000;stroke-width:0.8;" x="172.8" xlink:href="#mff02cf0102" y="356.374949"/>
      </g>
     </g>
    </g>
    <g id="ytick_6">
     <g id="line2d_11">
      <g>
       <use style="stroke:#000000;stroke-width:0.8;" x="172.8" xlink:href="#mff02cf0102" y="281.744286"/>
      </g>
     </g>
    </g>
    <g id="ytick_7">
     <g id="line2d_12">
      <g>
       <use style="stroke:#000000;stroke-width:0.8;" x="172.8" xlink:href="#mff02cf0102" y="207.113624"/>
      </g>
     </g>
    </g>
    <g id="ytick_8">
     <g id="line2d_13">
      <g>
       <use style="stroke:#000000;stroke-width:0.8;" x="172.8" xlink:href="#mff02cf0102" y="132.482961"/>
      </g>
     </g>
    </g>
   </g>
   <g id="line2d_14">
    <path clip-path="url(#pf884f7c5bb)" d="M 221.498182 654.878034 
L 244.505197 654.718095 
L 252.174202 654.545048 
L 259.843207 654.23965 
L 267.512212 653.728466 
L 275.181217 652.913824 
L 282.850222 651.672219 
L 290.519227 649.852924 
L 298.188232 647.275403 
L 305.857237 643.724858 
L 313.526242 638.947609 
L 321.195247 632.651295 
L 328.864252 624.517427 
L 336.533257 614.233498 
L 344.202262 601.547912 
L 351.871267 586.343678 
L 359.540272 568.718061 
L 367.209277 549.047327 
L 374.878282 528.011005 
L 382.547287 506.551956 
L 390.216292 485.760145 
L 397.885297 466.689879 
L 405.554302 450.147165 
L 413.223307 436.504496 
L 420.892312 425.602691 
L 428.561317 416.777878 
L 443.899327 401.171795 
L 451.568332 392.250666 
L 459.237337 381.575466 
L 466.906342 368.898065 
L 474.575347 354.374611 
L 482.244352 338.446501 
L 489.913357 321.67294 
L 505.251367 287.559555 
L 512.920372 270.903409 
L 520.589377 254.854142 
L 528.258382 239.722581 
L 535.927387 225.948275 
L 543.596392 214.08219 
L 551.265397 204.691458 
L 558.934402 198.230992 
L 566.603407 194.942641 
L 574.272412 194.823552 
L 581.941417 197.664854 
L 589.610422 203.126491 
L 597.279427 210.805168 
L 604.948432 220.272157 
L 612.617437 231.088763 
L 620.286442 242.826187 
L 627.955447 255.110619 
L 635.624452 267.689083 
L 643.293457 280.486054 
L 650.962462 293.61383 
L 658.631467 307.317136 
L 666.300472 321.864092 
L 673.969477 337.422592 
L 681.638482 353.968233 
L 689.307487 371.254729 
L 704.645497 406.221716 
L 712.314503 422.82845 
L 719.983508 438.209835 
L 727.652513 452.039034 
L 735.321518 464.147026 
L 742.990523 474.519739 
L 750.659528 483.277176 
L 758.328533 490.64279 
L 765.997538 496.909043 
L 773.666543 502.402297 
L 781.335548 507.44835 
L 796.673558 517.310552 
L 804.342563 522.516434 
L 812.011568 528.035533 
L 819.680573 533.877795 
L 827.349578 540.003914 
L 842.687588 552.804385 
L 858.025598 565.649461 
L 865.694603 571.785479 
L 873.363608 577.571277 
L 881.032613 582.920055 
L 888.701618 587.792683 
L 896.370623 592.205419 
L 904.039628 596.224594 
L 911.708633 599.949816 
L 927.046643 606.941983 
L 950.053658 617.167203 
L 957.722663 620.472994 
L 965.391668 623.642139 
L 973.060673 626.629895 
L 980.729678 629.41647 
L 988.398683 632.008614 
L 996.067688 634.430768 
L 1003.736693 636.710548 
L 1011.405698 638.865131 
L 1019.074703 640.893912 
L 1026.743708 642.779695 
L 1034.412713 644.497021 
L 1042.081718 646.02363 
L 1049.750723 647.350234 
L 1057.419728 648.48496 
L 1065.088733 649.451359 
L 1080.426743 651.007745 
L 1095.764753 652.240078 
L 1111.102763 653.236792 
L 1126.440773 653.985258 
L 1141.778783 654.471281 
L 1157.116793 654.732651 
L 1180.123808 654.870037 
L 1195.461818 654.884763 
L 1195.461818 654.884763 
" style="fill:none;stroke:#ff0000;stroke-linecap:square;stroke-width:1.5;"/>
   </g>
   <g id="patch_53">
    <path d="M 172.8 654.8976 
L 172.8 88.3008 
" style="fill:none;stroke:#000000;stroke-linecap:square;stroke-linejoin:miter;stroke-width:0.8;"/>
   </g>
   <g id="patch_54">
    <path d="M 1244.16 654.8976 
L 1244.16 88.3008 
" style="fill:none;stroke:#000000;stroke-linecap:square;stroke-linejoin:miter;stroke-width:0.8;"/>
   </g>
   <g id="patch_55">
    <path d="M 172.8 654.8976 
L 1244.16 654.8976 
" style="fill:none;stroke:#000000;stroke-linecap:square;stroke-linejoin:miter;stroke-width:0.8;"/>
   </g>
   <g id="patch_56">
    <path d="M 172.8 88.3008 
L 1244.16 88.3008 
" style="fill:none;stroke:#000000;stroke-linecap:square;stroke-linejoin:miter;stroke-width:0.8;"/>
   </g>
  </g>
 </g>
 <defs>
  <clipPath id="pf884f7c5bb">
   <rect height="566.5968" width="1071.36" x="172.8" y="88.3008"/>
  </clipPath>
 </defs>
</svg>
