<?xml version="1.0" encoding="utf-8" standalone="no"?>
<!DOCTYPE svg PUBLIC "-//W3C//DTD SVG 1.1//EN"
  "http://www.w3.org/Graphics/SVG/1.1/DTD/svg11.dtd">
<!-- Created with matplotlib (http://matplotlib.org/) -->
<svg height="735.84pt" version="1.1" viewBox="0 0 1382.4 735.84" width="1382.4pt" xmlns="http://www.w3.org/2000/svg" xmlns:xlink="http://www.w3.org/1999/xlink">
 <defs>
  <style type="text/css">
*{stroke-linecap:butt;stroke-linejoin:round;}
  </style>
 </defs>
 <g id="figure_1">
  <g id="patch_1">
   <path d="M 0 735.84 
L 1382.4 735.84 
L 1382.4 0 
L 0 0 
z
" style="fill:#ffffff;"/>
  </g>
  <g id="axes_1">
   <g id="patch_2">
    <path d="M 172.8 654.8976 
L 1244.16 654.8976 
L 1244.16 88.3008 
L 172.8 88.3008 
z
" style="fill:#ffffff;"/>
   </g>
   <g id="patch_3">
    <path clip-path="url(#pe1c92de309)" d="M 314.969278 654.8976 
L 330.709707 654.8976 
L 330.709707 459.949623 
L 314.969278 459.949623 
z
" style="fill:#0000ff;fill-opacity:0.3;"/>
   </g>
   <g id="patch_4">
    <path clip-path="url(#pe1c92de309)" d="M 330.709707 654.8976 
L 346.450136 654.8976 
L 346.450136 353.897924 
L 330.709707 353.897924 
z
" style="fill:#0000ff;fill-opacity:0.3;"/>
   </g>
   <g id="patch_5">
    <path clip-path="url(#pe1c92de309)" d="M 346.450136 654.8976 
L 362.190565 654.8976 
L 362.190565 232.250386 
L 346.450136 232.250386 
z
" style="fill:#0000ff;fill-opacity:0.3;"/>
   </g>
   <g id="patch_6">
    <path clip-path="url(#pe1c92de309)" d="M 362.190565 654.8976 
L 377.930994 654.8976 
L 377.930994 210.416213 
L 362.190565 210.416213 
z
" style="fill:#0000ff;fill-opacity:0.3;"/>
   </g>
   <g id="patch_7">
    <path clip-path="url(#pe1c92de309)" d="M 377.930994 654.8976 
L 393.671423 654.8976 
L 393.671423 176.105369 
L 377.930994 176.105369 
z
" style="fill:#0000ff;fill-opacity:0.3;"/>
   </g>
   <g id="patch_8">
    <path clip-path="url(#pe1c92de309)" d="M 393.671423 654.8976 
L 409.411852 654.8976 
L 409.411852 169.867034 
L 393.671423 169.867034 
z
" style="fill:#0000ff;fill-opacity:0.3;"/>
   </g>
   <g id="patch_9">
    <path clip-path="url(#pe1c92de309)" d="M 409.411852 654.8976 
L 425.152281 654.8976 
L 425.152281 115.2816 
L 409.411852 115.2816 
z
" style="fill:#0000ff;fill-opacity:0.3;"/>
   </g>
   <g id="patch_10">
    <path clip-path="url(#pe1c92de309)" d="M 425.152281 654.8976 
L 440.892709 654.8976 
L 440.892709 154.271195 
L 425.152281 154.271195 
z
" style="fill:#0000ff;fill-opacity:0.3;"/>
   </g>
   <g id="patch_11">
    <path clip-path="url(#pe1c92de309)" d="M 440.892709 654.8976 
L 456.633138 654.8976 
L 456.633138 160.509531 
L 440.892709 160.509531 
z
" style="fill:#0000ff;fill-opacity:0.3;"/>
   </g>
   <g id="patch_12">
    <path clip-path="url(#pe1c92de309)" d="M 456.633138 654.8976 
L 472.373567 654.8976 
L 472.373567 235.369554 
L 456.633138 235.369554 
z
" style="fill:#0000ff;fill-opacity:0.3;"/>
   </g>
   <g id="patch_13">
    <path clip-path="url(#pe1c92de309)" d="M 472.373567 654.8976 
L 488.113996 654.8976 
L 488.113996 232.250386 
L 472.373567 232.250386 
z
" style="fill:#0000ff;fill-opacity:0.3;"/>
   </g>
   <g id="patch_14">
    <path clip-path="url(#pe1c92de309)" d="M 488.113996 654.8976 
L 503.854425 654.8976 
L 503.854425 246.28664 
L 488.113996 246.28664 
z
" style="fill:#0000ff;fill-opacity:0.3;"/>
   </g>
   <g id="patch_15">
    <path clip-path="url(#pe1c92de309)" d="M 503.854425 654.8976 
L 519.594854 654.8976 
L 519.594854 310.229577 
L 503.854425 310.229577 
z
" style="fill:#0000ff;fill-opacity:0.3;"/>
   </g>
   <g id="patch_16">
    <path clip-path="url(#pe1c92de309)" d="M 519.594854 654.8976 
L 535.335283 654.8976 
L 535.335283 296.193323 
L 519.594854 296.193323 
z
" style="fill:#0000ff;fill-opacity:0.3;"/>
   </g>
   <g id="patch_17">
    <path clip-path="url(#pe1c92de309)" d="M 535.335283 654.8976 
L 551.075711 654.8976 
L 551.075711 310.229577 
L 535.335283 310.229577 
z
" style="fill:#0000ff;fill-opacity:0.3;"/>
   </g>
   <g id="patch_18">
    <path clip-path="url(#pe1c92de309)" d="M 551.075711 654.8976 
L 566.81614 654.8976 
L 566.81614 350.778756 
L 551.075711 350.778756 
z
" style="fill:#0000ff;fill-opacity:0.3;"/>
   </g>
   <g id="patch_19">
    <path clip-path="url(#pe1c92de309)" d="M 566.81614 654.8976 
L 582.556569 654.8976 
L 582.556569 346.100005 
L 566.81614 346.100005 
z
" style="fill:#0000ff;fill-opacity:0.3;"/>
   </g>
   <g id="patch_20">
    <path clip-path="url(#pe1c92de309)" d="M 582.556569 654.8976 
L 598.296998 654.8976 
L 598.296998 419.400444 
L 582.556569 419.400444 
z
" style="fill:#0000ff;fill-opacity:0.3;"/>
   </g>
   <g id="patch_21">
    <path clip-path="url(#pe1c92de309)" d="M 598.296998 654.8976 
L 614.037427 654.8976 
L 614.037427 433.436698 
L 598.296998 433.436698 
z
" style="fill:#0000ff;fill-opacity:0.3;"/>
   </g>
   <g id="patch_22">
    <path clip-path="url(#pe1c92de309)" d="M 614.037427 654.8976 
L 629.777856 654.8976 
L 629.777856 458.390039 
L 614.037427 458.390039 
z
" style="fill:#0000ff;fill-opacity:0.3;"/>
   </g>
   <g id="patch_23">
    <path clip-path="url(#pe1c92de309)" d="M 629.777856 654.8976 
L 645.518285 654.8976 
L 645.518285 458.390039 
L 629.777856 458.390039 
z
" style="fill:#0000ff;fill-opacity:0.3;"/>
   </g>
   <g id="patch_24">
    <path clip-path="url(#pe1c92de309)" d="M 645.518285 654.8976 
L 661.258713 654.8976 
L 661.258713 470.86671 
L 645.518285 470.86671 
z
" style="fill:#0000ff;fill-opacity:0.3;"/>
   </g>
   <g id="patch_25">
    <path clip-path="url(#pe1c92de309)" d="M 661.258713 654.8976 
L 676.999142 654.8976 
L 676.999142 512.975473 
L 661.258713 512.975473 
z
" style="fill:#0000ff;fill-opacity:0.3;"/>
   </g>
   <g id="patch_26">
    <path clip-path="url(#pe1c92de309)" d="M 676.999142 654.8976 
L 692.739571 654.8976 
L 692.739571 528.571311 
L 676.999142 528.571311 
z
" style="fill:#0000ff;fill-opacity:0.3;"/>
   </g>
   <g id="patch_27">
    <path clip-path="url(#pe1c92de309)" d="M 692.739571 654.8976 
L 708.48 654.8976 
L 708.48 525.452143 
L 692.739571 525.452143 
z
" style="fill:#0000ff;fill-opacity:0.3;"/>
   </g>
   <g id="patch_28">
    <path clip-path="url(#pe1c92de309)" d="M 708.48 654.8976 
L 724.220429 654.8976 
L 724.220429 536.36923 
L 708.48 536.36923 
z
" style="fill:#0000ff;fill-opacity:0.3;"/>
   </g>
   <g id="patch_29">
    <path clip-path="url(#pe1c92de309)" d="M 724.220429 654.8976 
L 739.960858 654.8976 
L 739.960858 542.607565 
L 724.220429 542.607565 
z
" style="fill:#0000ff;fill-opacity:0.3;"/>
   </g>
   <g id="patch_30">
    <path clip-path="url(#pe1c92de309)" d="M 739.960858 654.8976 
L 755.701287 654.8976 
L 755.701287 500.498802 
L 739.960858 500.498802 
z
" style="fill:#0000ff;fill-opacity:0.3;"/>
   </g>
   <g id="patch_31">
    <path clip-path="url(#pe1c92de309)" d="M 755.701287 654.8976 
L 771.441715 654.8976 
L 771.441715 548.845901 
L 755.701287 548.845901 
z
" style="fill:#0000ff;fill-opacity:0.3;"/>
   </g>
   <g id="patch_32">
    <path clip-path="url(#pe1c92de309)" d="M 771.441715 654.8976 
L 787.182144 654.8976 
L 787.182144 594.073831 
L 771.441715 594.073831 
z
" style="fill:#0000ff;fill-opacity:0.3;"/>
   </g>
   <g id="patch_33">
    <path clip-path="url(#pe1c92de309)" d="M 787.182144 654.8976 
L 802.922573 654.8976 
L 802.922573 584.716328 
L 787.182144 584.716328 
z
" style="fill:#0000ff;fill-opacity:0.3;"/>
   </g>
   <g id="patch_34">
    <path clip-path="url(#pe1c92de309)" d="M 802.922573 654.8976 
L 818.663002 654.8976 
L 818.663002 576.918409 
L 802.922573 576.918409 
z
" style="fill:#0000ff;fill-opacity:0.3;"/>
   </g>
   <g id="patch_35">
    <path clip-path="url(#pe1c92de309)" d="M 818.663002 654.8976 
L 834.403431 654.8976 
L 834.403431 604.990918 
L 818.663002 604.990918 
z
" style="fill:#0000ff;fill-opacity:0.3;"/>
   </g>
   <g id="patch_36">
    <path clip-path="url(#pe1c92de309)" d="M 834.403431 654.8976 
L 850.14386 654.8976 
L 850.14386 608.110086 
L 834.403431 608.110086 
z
" style="fill:#0000ff;fill-opacity:0.3;"/>
   </g>
   <g id="patch_37">
    <path clip-path="url(#pe1c92de309)" d="M 850.14386 654.8976 
L 865.884289 654.8976 
L 865.884289 606.550502 
L 850.14386 606.550502 
z
" style="fill:#0000ff;fill-opacity:0.3;"/>
   </g>
   <g id="patch_38">
    <path clip-path="url(#pe1c92de309)" d="M 865.884289 654.8976 
L 881.624717 654.8976 
L 881.624717 606.550502 
L 865.884289 606.550502 
z
" style="fill:#0000ff;fill-opacity:0.3;"/>
   </g>
   <g id="patch_39">
    <path clip-path="url(#pe1c92de309)" d="M 881.624717 654.8976 
L 897.365146 654.8976 
L 897.365146 619.027172 
L 881.624717 619.027172 
z
" style="fill:#0000ff;fill-opacity:0.3;"/>
   </g>
   <g id="patch_40">
    <path clip-path="url(#pe1c92de309)" d="M 897.365146 654.8976 
L 913.105575 654.8976 
L 913.105575 620.586756 
L 897.365146 620.586756 
z
" style="fill:#0000ff;fill-opacity:0.3;"/>
   </g>
   <g id="patch_41">
    <path clip-path="url(#pe1c92de309)" d="M 913.105575 654.8976 
L 928.846004 654.8976 
L 928.846004 622.14634 
L 913.105575 622.14634 
z
" style="fill:#0000ff;fill-opacity:0.3;"/>
   </g>
   <g id="patch_42">
    <path clip-path="url(#pe1c92de309)" d="M 928.846004 654.8976 
L 944.586433 654.8976 
L 944.586433 612.788837 
L 928.846004 612.788837 
z
" style="fill:#0000ff;fill-opacity:0.3;"/>
   </g>
   <g id="patch_43">
    <path clip-path="url(#pe1c92de309)" d="M 944.586433 654.8976 
L 960.326862 654.8976 
L 960.326862 631.503843 
L 944.586433 631.503843 
z
" style="fill:#0000ff;fill-opacity:0.3;"/>
   </g>
   <g id="patch_44">
    <path clip-path="url(#pe1c92de309)" d="M 960.326862 654.8976 
L 976.067291 654.8976 
L 976.067291 640.861346 
L 960.326862 640.861346 
z
" style="fill:#0000ff;fill-opacity:0.3;"/>
   </g>
   <g id="patch_45">
    <path clip-path="url(#pe1c92de309)" d="M 976.067291 654.8976 
L 991.807719 654.8976 
L 991.807719 639.301762 
L 976.067291 639.301762 
z
" style="fill:#0000ff;fill-opacity:0.3;"/>
   </g>
   <g id="patch_46">
    <path clip-path="url(#pe1c92de309)" d="M 991.807719 654.8976 
L 1007.548148 654.8976 
L 1007.548148 637.742178 
L 991.807719 637.742178 
z
" style="fill:#0000ff;fill-opacity:0.3;"/>
   </g>
   <g id="patch_47">
    <path clip-path="url(#pe1c92de309)" d="M 1007.548148 654.8976 
L 1023.288577 654.8976 
L 1023.288577 642.420929 
L 1007.548148 642.420929 
z
" style="fill:#0000ff;fill-opacity:0.3;"/>
   </g>
   <g id="patch_48">
    <path clip-path="url(#pe1c92de309)" d="M 1023.288577 654.8976 
L 1039.029006 654.8976 
L 1039.029006 643.980513 
L 1023.288577 643.980513 
z
" style="fill:#0000ff;fill-opacity:0.3;"/>
   </g>
   <g id="patch_49">
    <path clip-path="url(#pe1c92de309)" d="M 1039.029006 654.8976 
L 1054.769435 654.8976 
L 1054.769435 650.218849 
L 1039.029006 650.218849 
z
" style="fill:#0000ff;fill-opacity:0.3;"/>
   </g>
   <g id="patch_50">
    <path clip-path="url(#pe1c92de309)" d="M 1054.769435 654.8976 
L 1070.509864 654.8976 
L 1070.509864 653.338016 
L 1054.769435 653.338016 
z
" style="fill:#0000ff;fill-opacity:0.3;"/>
   </g>
   <g id="patch_51">
    <path clip-path="url(#pe1c92de309)" d="M 1070.509864 654.8976 
L 1086.250293 654.8976 
L 1086.250293 643.980513 
L 1070.509864 643.980513 
z
" style="fill:#0000ff;fill-opacity:0.3;"/>
   </g>
   <g id="patch_52">
    <path clip-path="url(#pe1c92de309)" d="M 1086.250293 654.8976 
L 1101.990722 654.8976 
L 1101.990722 651.778432 
L 1086.250293 651.778432 
z
" style="fill:#0000ff;fill-opacity:0.3;"/>
   </g>
   <g id="matplotlib.axis_1">
    <g id="xtick_1">
     <g id="line2d_1">
      <defs>
       <path d="M 0 0 
L 0 3.5 
" id="mee77e869b7" style="stroke:#000000;stroke-width:0.8;"/>
      </defs>
      <g>
       <use style="stroke:#000000;stroke-width:0.8;" x="314.172274" xlink:href="#mee77e869b7" y="654.8976"/>
      </g>
     </g>
     <g id="text_1">
      <!-- 0 -->
      <defs>
       <path d="M 31.78125 66.40625 
Q 24.171875 66.40625 20.328125 58.90625 
Q 16.5 51.421875 16.5 36.375 
Q 16.5 21.390625 20.328125 13.890625 
Q 24.171875 6.390625 31.78125 6.390625 
Q 39.453125 6.390625 43.28125 13.890625 
Q 47.125 21.390625 47.125 36.375 
Q 47.125 51.421875 43.28125 58.90625 
Q 39.453125 66.40625 31.78125 66.40625 
z
M 31.78125 74.21875 
Q 44.046875 74.21875 50.515625 64.515625 
Q 56.984375 54.828125 56.984375 36.375 
Q 56.984375 17.96875 50.515625 8.265625 
Q 44.046875 -1.421875 31.78125 -1.421875 
Q 19.53125 -1.421875 13.0625 8.265625 
Q 6.59375 17.96875 6.59375 36.375 
Q 6.59375 54.828125 13.0625 64.515625 
Q 19.53125 74.21875 31.78125 74.21875 
z
" id="DejaVuSans-30"/>
      </defs>
      <g transform="translate(310.354774 671.015725)scale(0.12 -0.12)">
       <use xlink:href="#DejaVuSans-30"/>
      </g>
     </g>
    </g>
    <g id="xtick_2">
     <g id="line2d_2">
      <g>
       <use style="stroke:#000000;stroke-width:0.8;" x="521.885822" xlink:href="#mee77e869b7" y="654.8976"/>
      </g>
     </g>
     <g id="text_2">
      <!-- 2 -->
      <defs>
       <path d="M 19.1875 8.296875 
L 53.609375 8.296875 
L 53.609375 0 
L 7.328125 0 
L 7.328125 8.296875 
Q 12.9375 14.109375 22.625 23.890625 
Q 32.328125 33.6875 34.8125 36.53125 
Q 39.546875 41.84375 41.421875 45.53125 
Q 43.3125 49.21875 43.3125 52.78125 
Q 43.3125 58.59375 39.234375 62.25 
Q 35.15625 65.921875 28.609375 65.921875 
Q 23.96875 65.921875 18.8125 64.3125 
Q 13.671875 62.703125 7.8125 59.421875 
L 7.8125 69.390625 
Q 13.765625 71.78125 18.9375 73 
Q 24.125 74.21875 28.421875 74.21875 
Q 39.75 74.21875 46.484375 68.546875 
Q 53.21875 62.890625 53.21875 53.421875 
Q 53.21875 48.921875 51.53125 44.890625 
Q 49.859375 40.875 45.40625 35.40625 
Q 44.1875 33.984375 37.640625 27.21875 
Q 31.109375 20.453125 19.1875 8.296875 
z
" id="DejaVuSans-32"/>
      </defs>
      <g transform="translate(518.068322 671.015725)scale(0.12 -0.12)">
       <use xlink:href="#DejaVuSans-32"/>
      </g>
     </g>
    </g>
    <g id="xtick_3">
     <g id="line2d_3">
      <g>
       <use style="stroke:#000000;stroke-width:0.8;" x="729.59937" xlink:href="#mee77e869b7" y="654.8976"/>
      </g>
     </g>
     <g id="text_3">
      <!-- 4 -->
      <defs>
       <path d="M 37.796875 64.3125 
L 12.890625 25.390625 
L 37.796875 25.390625 
z
M 35.203125 72.90625 
L 47.609375 72.90625 
L 47.609375 25.390625 
L 58.015625 25.390625 
L 58.015625 17.1875 
L 47.609375 17.1875 
L 47.609375 0 
L 37.796875 0 
L 37.796875 17.1875 
L 4.890625 17.1875 
L 4.890625 26.703125 
z
" id="DejaVuSans-34"/>
      </defs>
      <g transform="translate(725.78187 671.015725)scale(0.12 -0.12)">
       <use xlink:href="#DejaVuSans-34"/>
      </g>
     </g>
    </g>
    <g id="xtick_4">
     <g id="line2d_4">
      <g>
       <use style="stroke:#000000;stroke-width:0.8;" x="937.312918" xlink:href="#mee77e869b7" y="654.8976"/>
      </g>
     </g>
     <g id="text_4">
      <!-- 6 -->
      <defs>
       <path d="M 33.015625 40.375 
Q 26.375 40.375 22.484375 35.828125 
Q 18.609375 31.296875 18.609375 23.390625 
Q 18.609375 15.53125 22.484375 10.953125 
Q 26.375 6.390625 33.015625 6.390625 
Q 39.65625 6.390625 43.53125 10.953125 
Q 47.40625 15.53125 47.40625 23.390625 
Q 47.40625 31.296875 43.53125 35.828125 
Q 39.65625 40.375 33.015625 40.375 
z
M 52.59375 71.296875 
L 52.59375 62.3125 
Q 48.875 64.0625 45.09375 64.984375 
Q 41.3125 65.921875 37.59375 65.921875 
Q 27.828125 65.921875 22.671875 59.328125 
Q 17.53125 52.734375 16.796875 39.40625 
Q 19.671875 43.65625 24.015625 45.921875 
Q 28.375 48.1875 33.59375 48.1875 
Q 44.578125 48.1875 50.953125 41.515625 
Q 57.328125 34.859375 57.328125 23.390625 
Q 57.328125 12.15625 50.6875 5.359375 
Q 44.046875 -1.421875 33.015625 -1.421875 
Q 20.359375 -1.421875 13.671875 8.265625 
Q 6.984375 17.96875 6.984375 36.375 
Q 6.984375 53.65625 15.1875 63.9375 
Q 23.390625 74.21875 37.203125 74.21875 
Q 40.921875 74.21875 44.703125 73.484375 
Q 48.484375 72.75 52.59375 71.296875 
z
" id="DejaVuSans-36"/>
      </defs>
      <g transform="translate(933.495418 671.015725)scale(0.12 -0.12)">
       <use xlink:href="#DejaVuSans-36"/>
      </g>
     </g>
    </g>
    <g id="xtick_5">
     <g id="line2d_5">
      <g>
       <use style="stroke:#000000;stroke-width:0.8;" x="1145.026467" xlink:href="#mee77e869b7" y="654.8976"/>
      </g>
     </g>
     <g id="text_5">
      <!-- 8 -->
      <defs>
       <path d="M 31.78125 34.625 
Q 24.75 34.625 20.71875 30.859375 
Q 16.703125 27.09375 16.703125 20.515625 
Q 16.703125 13.921875 20.71875 10.15625 
Q 24.75 6.390625 31.78125 6.390625 
Q 38.8125 6.390625 42.859375 10.171875 
Q 46.921875 13.96875 46.921875 20.515625 
Q 46.921875 27.09375 42.890625 30.859375 
Q 38.875 34.625 31.78125 34.625 
z
M 21.921875 38.8125 
Q 15.578125 40.375 12.03125 44.71875 
Q 8.5 49.078125 8.5 55.328125 
Q 8.5 64.0625 14.71875 69.140625 
Q 20.953125 74.21875 31.78125 74.21875 
Q 42.671875 74.21875 48.875 69.140625 
Q 55.078125 64.0625 55.078125 55.328125 
Q 55.078125 49.078125 51.53125 44.71875 
Q 48 40.375 41.703125 38.8125 
Q 48.828125 37.15625 52.796875 32.3125 
Q 56.78125 27.484375 56.78125 20.515625 
Q 56.78125 9.90625 50.3125 4.234375 
Q 43.84375 -1.421875 31.78125 -1.421875 
Q 19.734375 -1.421875 13.25 4.234375 
Q 6.78125 9.90625 6.78125 20.515625 
Q 6.78125 27.484375 10.78125 32.3125 
Q 14.796875 37.15625 21.921875 38.8125 
z
M 18.3125 54.390625 
Q 18.3125 48.734375 21.84375 45.5625 
Q 25.390625 42.390625 31.78125 42.390625 
Q 38.140625 42.390625 41.71875 45.5625 
Q 45.3125 48.734375 45.3125 54.390625 
Q 45.3125 60.0625 41.71875 63.234375 
Q 38.140625 66.40625 31.78125 66.40625 
Q 25.390625 66.40625 21.84375 63.234375 
Q 18.3125 60.0625 18.3125 54.390625 
z
" id="DejaVuSans-38"/>
      </defs>
      <g transform="translate(1141.208967 671.015725)scale(0.12 -0.12)">
       <use xlink:href="#DejaVuSans-38"/>
      </g>
     </g>
    </g>
    <g id="text_6">
     <!-- direction deviation (degree) -->
     <defs>
      <path d="M 45.40625 46.390625 
L 45.40625 75.984375 
L 54.390625 75.984375 
L 54.390625 0 
L 45.40625 0 
L 45.40625 8.203125 
Q 42.578125 3.328125 38.25 0.953125 
Q 33.9375 -1.421875 27.875 -1.421875 
Q 17.96875 -1.421875 11.734375 6.484375 
Q 5.515625 14.40625 5.515625 27.296875 
Q 5.515625 40.1875 11.734375 48.09375 
Q 17.96875 56 27.875 56 
Q 33.9375 56 38.25 53.625 
Q 42.578125 51.265625 45.40625 46.390625 
z
M 14.796875 27.296875 
Q 14.796875 17.390625 18.875 11.75 
Q 22.953125 6.109375 30.078125 6.109375 
Q 37.203125 6.109375 41.296875 11.75 
Q 45.40625 17.390625 45.40625 27.296875 
Q 45.40625 37.203125 41.296875 42.84375 
Q 37.203125 48.484375 30.078125 48.484375 
Q 22.953125 48.484375 18.875 42.84375 
Q 14.796875 37.203125 14.796875 27.296875 
z
" id="DejaVuSans-64"/>
      <path d="M 9.421875 54.6875 
L 18.40625 54.6875 
L 18.40625 0 
L 9.421875 0 
z
M 9.421875 75.984375 
L 18.40625 75.984375 
L 18.40625 64.59375 
L 9.421875 64.59375 
z
" id="DejaVuSans-69"/>
      <path d="M 41.109375 46.296875 
Q 39.59375 47.171875 37.8125 47.578125 
Q 36.03125 48 33.890625 48 
Q 26.265625 48 22.1875 43.046875 
Q 18.109375 38.09375 18.109375 28.8125 
L 18.109375 0 
L 9.078125 0 
L 9.078125 54.6875 
L 18.109375 54.6875 
L 18.109375 46.1875 
Q 20.953125 51.171875 25.484375 53.578125 
Q 30.03125 56 36.53125 56 
Q 37.453125 56 38.578125 55.875 
Q 39.703125 55.765625 41.0625 55.515625 
z
" id="DejaVuSans-72"/>
      <path d="M 56.203125 29.59375 
L 56.203125 25.203125 
L 14.890625 25.203125 
Q 15.484375 15.921875 20.484375 11.0625 
Q 25.484375 6.203125 34.421875 6.203125 
Q 39.59375 6.203125 44.453125 7.46875 
Q 49.3125 8.734375 54.109375 11.28125 
L 54.109375 2.78125 
Q 49.265625 0.734375 44.1875 -0.34375 
Q 39.109375 -1.421875 33.890625 -1.421875 
Q 20.796875 -1.421875 13.15625 6.1875 
Q 5.515625 13.8125 5.515625 26.8125 
Q 5.515625 40.234375 12.765625 48.109375 
Q 20.015625 56 32.328125 56 
Q 43.359375 56 49.78125 48.890625 
Q 56.203125 41.796875 56.203125 29.59375 
z
M 47.21875 32.234375 
Q 47.125 39.59375 43.09375 43.984375 
Q 39.0625 48.390625 32.421875 48.390625 
Q 24.90625 48.390625 20.390625 44.140625 
Q 15.875 39.890625 15.1875 32.171875 
z
" id="DejaVuSans-65"/>
      <path d="M 48.78125 52.59375 
L 48.78125 44.1875 
Q 44.96875 46.296875 41.140625 47.34375 
Q 37.3125 48.390625 33.40625 48.390625 
Q 24.65625 48.390625 19.8125 42.84375 
Q 14.984375 37.3125 14.984375 27.296875 
Q 14.984375 17.28125 19.8125 11.734375 
Q 24.65625 6.203125 33.40625 6.203125 
Q 37.3125 6.203125 41.140625 7.25 
Q 44.96875 8.296875 48.78125 10.40625 
L 48.78125 2.09375 
Q 45.015625 0.34375 40.984375 -0.53125 
Q 36.96875 -1.421875 32.421875 -1.421875 
Q 20.0625 -1.421875 12.78125 6.34375 
Q 5.515625 14.109375 5.515625 27.296875 
Q 5.515625 40.671875 12.859375 48.328125 
Q 20.21875 56 33.015625 56 
Q 37.15625 56 41.109375 55.140625 
Q 45.0625 54.296875 48.78125 52.59375 
z
" id="DejaVuSans-63"/>
      <path d="M 18.3125 70.21875 
L 18.3125 54.6875 
L 36.8125 54.6875 
L 36.8125 47.703125 
L 18.3125 47.703125 
L 18.3125 18.015625 
Q 18.3125 11.328125 20.140625 9.421875 
Q 21.96875 7.515625 27.59375 7.515625 
L 36.8125 7.515625 
L 36.8125 0 
L 27.59375 0 
Q 17.1875 0 13.234375 3.875 
Q 9.28125 7.765625 9.28125 18.015625 
L 9.28125 47.703125 
L 2.6875 47.703125 
L 2.6875 54.6875 
L 9.28125 54.6875 
L 9.28125 70.21875 
z
" id="DejaVuSans-74"/>
      <path d="M 30.609375 48.390625 
Q 23.390625 48.390625 19.1875 42.75 
Q 14.984375 37.109375 14.984375 27.296875 
Q 14.984375 17.484375 19.15625 11.84375 
Q 23.34375 6.203125 30.609375 6.203125 
Q 37.796875 6.203125 41.984375 11.859375 
Q 46.1875 17.53125 46.1875 27.296875 
Q 46.1875 37.015625 41.984375 42.703125 
Q 37.796875 48.390625 30.609375 48.390625 
z
M 30.609375 56 
Q 42.328125 56 49.015625 48.375 
Q 55.71875 40.765625 55.71875 27.296875 
Q 55.71875 13.875 49.015625 6.21875 
Q 42.328125 -1.421875 30.609375 -1.421875 
Q 18.84375 -1.421875 12.171875 6.21875 
Q 5.515625 13.875 5.515625 27.296875 
Q 5.515625 40.765625 12.171875 48.375 
Q 18.84375 56 30.609375 56 
z
" id="DejaVuSans-6f"/>
      <path d="M 54.890625 33.015625 
L 54.890625 0 
L 45.90625 0 
L 45.90625 32.71875 
Q 45.90625 40.484375 42.875 44.328125 
Q 39.84375 48.1875 33.796875 48.1875 
Q 26.515625 48.1875 22.3125 43.546875 
Q 18.109375 38.921875 18.109375 30.90625 
L 18.109375 0 
L 9.078125 0 
L 9.078125 54.6875 
L 18.109375 54.6875 
L 18.109375 46.1875 
Q 21.34375 51.125 25.703125 53.5625 
Q 30.078125 56 35.796875 56 
Q 45.21875 56 50.046875 50.171875 
Q 54.890625 44.34375 54.890625 33.015625 
z
" id="DejaVuSans-6e"/>
      <path id="DejaVuSans-20"/>
      <path d="M 2.984375 54.6875 
L 12.5 54.6875 
L 29.59375 8.796875 
L 46.6875 54.6875 
L 56.203125 54.6875 
L 35.6875 0 
L 23.484375 0 
z
" id="DejaVuSans-76"/>
      <path d="M 34.28125 27.484375 
Q 23.390625 27.484375 19.1875 25 
Q 14.984375 22.515625 14.984375 16.5 
Q 14.984375 11.71875 18.140625 8.90625 
Q 21.296875 6.109375 26.703125 6.109375 
Q 34.1875 6.109375 38.703125 11.40625 
Q 43.21875 16.703125 43.21875 25.484375 
L 43.21875 27.484375 
z
M 52.203125 31.203125 
L 52.203125 0 
L 43.21875 0 
L 43.21875 8.296875 
Q 40.140625 3.328125 35.546875 0.953125 
Q 30.953125 -1.421875 24.3125 -1.421875 
Q 15.921875 -1.421875 10.953125 3.296875 
Q 6 8.015625 6 15.921875 
Q 6 25.140625 12.171875 29.828125 
Q 18.359375 34.515625 30.609375 34.515625 
L 43.21875 34.515625 
L 43.21875 35.40625 
Q 43.21875 41.609375 39.140625 45 
Q 35.0625 48.390625 27.6875 48.390625 
Q 23 48.390625 18.546875 47.265625 
Q 14.109375 46.140625 10.015625 43.890625 
L 10.015625 52.203125 
Q 14.9375 54.109375 19.578125 55.046875 
Q 24.21875 56 28.609375 56 
Q 40.484375 56 46.34375 49.84375 
Q 52.203125 43.703125 52.203125 31.203125 
z
" id="DejaVuSans-61"/>
      <path d="M 31 75.875 
Q 24.46875 64.65625 21.28125 53.65625 
Q 18.109375 42.671875 18.109375 31.390625 
Q 18.109375 20.125 21.3125 9.0625 
Q 24.515625 -2 31 -13.1875 
L 23.1875 -13.1875 
Q 15.875 -1.703125 12.234375 9.375 
Q 8.59375 20.453125 8.59375 31.390625 
Q 8.59375 42.28125 12.203125 53.3125 
Q 15.828125 64.359375 23.1875 75.875 
z
" id="DejaVuSans-28"/>
      <path d="M 45.40625 27.984375 
Q 45.40625 37.75 41.375 43.109375 
Q 37.359375 48.484375 30.078125 48.484375 
Q 22.859375 48.484375 18.828125 43.109375 
Q 14.796875 37.75 14.796875 27.984375 
Q 14.796875 18.265625 18.828125 12.890625 
Q 22.859375 7.515625 30.078125 7.515625 
Q 37.359375 7.515625 41.375 12.890625 
Q 45.40625 18.265625 45.40625 27.984375 
z
M 54.390625 6.78125 
Q 54.390625 -7.171875 48.1875 -13.984375 
Q 42 -20.796875 29.203125 -20.796875 
Q 24.46875 -20.796875 20.265625 -20.09375 
Q 16.0625 -19.390625 12.109375 -17.921875 
L 12.109375 -9.1875 
Q 16.0625 -11.328125 19.921875 -12.34375 
Q 23.78125 -13.375 27.78125 -13.375 
Q 36.625 -13.375 41.015625 -8.765625 
Q 45.40625 -4.15625 45.40625 5.171875 
L 45.40625 9.625 
Q 42.625 4.78125 38.28125 2.390625 
Q 33.9375 0 27.875 0 
Q 17.828125 0 11.671875 7.65625 
Q 5.515625 15.328125 5.515625 27.984375 
Q 5.515625 40.671875 11.671875 48.328125 
Q 17.828125 56 27.875 56 
Q 33.9375 56 38.28125 53.609375 
Q 42.625 51.21875 45.40625 46.390625 
L 45.40625 54.6875 
L 54.390625 54.6875 
z
" id="DejaVuSans-67"/>
      <path d="M 8.015625 75.875 
L 15.828125 75.875 
Q 23.140625 64.359375 26.78125 53.3125 
Q 30.421875 42.28125 30.421875 31.390625 
Q 30.421875 20.453125 26.78125 9.375 
Q 23.140625 -1.703125 15.828125 -13.1875 
L 8.015625 -13.1875 
Q 14.5 -2 17.703125 9.0625 
Q 20.90625 20.125 20.90625 31.390625 
Q 20.90625 42.671875 17.703125 53.65625 
Q 14.5 64.65625 8.015625 75.875 
z
" id="DejaVuSans-29"/>
     </defs>
     <g transform="translate(596.52375 689.66885)scale(0.16 -0.16)">
      <use xlink:href="#DejaVuSans-64"/>
      <use x="63.476562" xlink:href="#DejaVuSans-69"/>
      <use x="91.259766" xlink:href="#DejaVuSans-72"/>
      <use x="132.341797" xlink:href="#DejaVuSans-65"/>
      <use x="193.865234" xlink:href="#DejaVuSans-63"/>
      <use x="248.845703" xlink:href="#DejaVuSans-74"/>
      <use x="288.054688" xlink:href="#DejaVuSans-69"/>
      <use x="315.837891" xlink:href="#DejaVuSans-6f"/>
      <use x="377.019531" xlink:href="#DejaVuSans-6e"/>
      <use x="440.398438" xlink:href="#DejaVuSans-20"/>
      <use x="472.185547" xlink:href="#DejaVuSans-64"/>
      <use x="535.662109" xlink:href="#DejaVuSans-65"/>
      <use x="597.185547" xlink:href="#DejaVuSans-76"/>
      <use x="656.365234" xlink:href="#DejaVuSans-69"/>
      <use x="684.148438" xlink:href="#DejaVuSans-61"/>
      <use x="745.427734" xlink:href="#DejaVuSans-74"/>
      <use x="784.636719" xlink:href="#DejaVuSans-69"/>
      <use x="812.419922" xlink:href="#DejaVuSans-6f"/>
      <use x="873.601562" xlink:href="#DejaVuSans-6e"/>
      <use x="936.980469" xlink:href="#DejaVuSans-20"/>
      <use x="968.767578" xlink:href="#DejaVuSans-28"/>
      <use x="1007.78125" xlink:href="#DejaVuSans-64"/>
      <use x="1071.257812" xlink:href="#DejaVuSans-65"/>
      <use x="1132.78125" xlink:href="#DejaVuSans-67"/>
      <use x="1196.257812" xlink:href="#DejaVuSans-72"/>
      <use x="1237.339844" xlink:href="#DejaVuSans-65"/>
      <use x="1298.863281" xlink:href="#DejaVuSans-65"/>
      <use x="1360.386719" xlink:href="#DejaVuSans-29"/>
     </g>
    </g>
   </g>
   <g id="matplotlib.axis_2">
    <g id="ytick_1">
     <g id="line2d_6">
      <defs>
       <path d="M 0 0 
L -3.5 0 
" id="m2dae836b93" style="stroke:#000000;stroke-width:0.8;"/>
      </defs>
      <g>
       <use style="stroke:#000000;stroke-width:0.8;" x="172.8" xlink:href="#m2dae836b93" y="654.8976"/>
      </g>
     </g>
    </g>
    <g id="ytick_2">
     <g id="line2d_7">
      <g>
       <use style="stroke:#000000;stroke-width:0.8;" x="172.8" xlink:href="#m2dae836b93" y="583.986911"/>
      </g>
     </g>
    </g>
    <g id="ytick_3">
     <g id="line2d_8">
      <g>
       <use style="stroke:#000000;stroke-width:0.8;" x="172.8" xlink:href="#m2dae836b93" y="513.076222"/>
      </g>
     </g>
    </g>
    <g id="ytick_4">
     <g id="line2d_9">
      <g>
       <use style="stroke:#000000;stroke-width:0.8;" x="172.8" xlink:href="#m2dae836b93" y="442.165532"/>
      </g>
     </g>
    </g>
    <g id="ytick_5">
     <g id="line2d_10">
      <g>
       <use style="stroke:#000000;stroke-width:0.8;" x="172.8" xlink:href="#m2dae836b93" y="371.254843"/>
      </g>
     </g>
    </g>
    <g id="ytick_6">
     <g id="line2d_11">
      <g>
       <use style="stroke:#000000;stroke-width:0.8;" x="172.8" xlink:href="#m2dae836b93" y="300.344154"/>
      </g>
     </g>
    </g>
    <g id="ytick_7">
     <g id="line2d_12">
      <g>
       <use style="stroke:#000000;stroke-width:0.8;" x="172.8" xlink:href="#m2dae836b93" y="229.433465"/>
      </g>
     </g>
    </g>
    <g id="ytick_8">
     <g id="line2d_13">
      <g>
       <use style="stroke:#000000;stroke-width:0.8;" x="172.8" xlink:href="#m2dae836b93" y="158.522776"/>
      </g>
     </g>
    </g>
   </g>
   <g id="line2d_14">
    <path clip-path="url(#pe1c92de309)" d="M 221.498182 654.8976 
L 231.336198 654.8976 
L 241.174215 654.8976 
L 251.012231 654.8976 
L 260.850248 654.8976 
L 270.688264 654.8976 
L 280.526281 654.8976 
L 290.364298 651.901652 
L 300.202314 624.828319 
L 310.040331 577.777011 
L 319.878347 509.757988 
L 329.716364 427.029307 
L 339.55438 349.082482 
L 349.392397 290.72504 
L 359.230413 243.987191 
L 369.06843 210.305729 
L 378.906446 189.348665 
L 388.744463 176.825504 
L 398.582479 161.330148 
L 408.420496 152.927999 
L 418.258512 148.238115 
L 428.096529 145.533848 
L 437.934545 154.15226 
L 447.772562 172.462343 
L 457.610579 193.332339 
L 467.448595 212.008036 
L 477.286612 230.188894 
L 487.124628 247.39113 
L 496.962645 263.430282 
L 506.800661 279.011907 
L 516.638678 291.712403 
L 526.476694 302.822103 
L 536.314711 314.098589 
L 546.152727 325.082129 
L 555.990744 337.228718 
L 565.82876 349.800804 
L 575.666777 368.674004 
L 585.504793 388.066334 
L 595.34281 410.479434 
L 605.180826 432.112095 
L 615.018843 446.123006 
L 624.85686 455.948208 
L 634.694876 464.120801 
L 644.532893 471.860273 
L 654.370909 481.683853 
L 664.208926 495.439012 
L 674.046942 507.926677 
L 683.884959 520.301869 
L 693.722975 528.70018 
L 703.560992 533.184424 
L 713.399008 536.363371 
L 723.237025 534.443075 
L 733.075041 529.558253 
L 742.913058 527.861109 
L 752.751074 533.526644 
L 762.589091 546.770672 
L 772.427107 564.303071 
L 782.265124 578.156959 
L 792.10314 583.623073 
L 801.941157 584.918179 
L 811.779174 586.929306 
L 821.61719 593.725435 
L 831.455207 600.69374 
L 841.293223 605.569693 
L 851.13124 608.985402 
L 860.969256 608.334315 
L 870.807273 609.122119 
L 880.645289 611.536699 
L 890.483306 614.3906 
L 900.321322 618.419754 
L 910.159339 621.61939 
L 919.997355 621.158694 
L 929.835372 620.776457 
L 939.673388 622.632365 
L 949.511405 626.262932 
L 959.349421 631.967006 
L 969.187438 636.977745 
L 979.025455 638.709527 
L 988.863471 639.136679 
L 998.701488 639.477689 
L 1008.539504 640.342406 
L 1018.377521 642.228336 
L 1028.215537 644.784948 
L 1038.053554 647.506622 
L 1047.89157 649.284857 
L 1057.729587 649.826244 
L 1067.567603 649.929496 
L 1077.40562 649.742912 
L 1087.243636 650.077025 
L 1097.081653 651.468702 
L 1106.919669 653.204202 
L 1116.757686 654.024072 
L 1126.595702 654.568011 
L 1136.433719 654.8976 
L 1146.271736 654.8976 
L 1156.109752 654.8976 
L 1165.947769 654.8976 
L 1175.785785 654.8976 
L 1185.623802 654.8976 
L 1195.461818 654.8976 
" style="fill:none;stroke:#ff0000;stroke-linecap:square;stroke-width:1.5;"/>
   </g>
   <g id="patch_53">
    <path d="M 172.8 654.8976 
L 172.8 88.3008 
" style="fill:none;stroke:#000000;stroke-linecap:square;stroke-linejoin:miter;stroke-width:0.8;"/>
   </g>
   <g id="patch_54">
    <path d="M 1244.16 654.8976 
L 1244.16 88.3008 
" style="fill:none;stroke:#000000;stroke-linecap:square;stroke-linejoin:miter;stroke-width:0.8;"/>
   </g>
   <g id="patch_55">
    <path d="M 172.8 654.8976 
L 1244.16 654.8976 
" style="fill:none;stroke:#000000;stroke-linecap:square;stroke-linejoin:miter;stroke-width:0.8;"/>
   </g>
   <g id="patch_56">
    <path d="M 172.8 88.3008 
L 1244.16 88.3008 
" style="fill:none;stroke:#000000;stroke-linecap:square;stroke-linejoin:miter;stroke-width:0.8;"/>
   </g>
  </g>
 </g>
 <defs>
  <clipPath id="pe1c92de309">
   <rect height="566.5968" width="1071.36" x="172.8" y="88.3008"/>
  </clipPath>
 </defs>
</svg>
