<?xml version="1.0" encoding="utf-8" standalone="no"?>
<!DOCTYPE svg PUBLIC "-//W3C//DTD SVG 1.1//EN"
  "http://www.w3.org/Graphics/SVG/1.1/DTD/svg11.dtd">
<!-- Created with matplotlib (http://matplotlib.org/) -->
<svg height="735.84pt" version="1.1" viewBox="0 0 1382.4 735.84" width="1382.4pt" xmlns="http://www.w3.org/2000/svg" xmlns:xlink="http://www.w3.org/1999/xlink">
 <defs>
  <style type="text/css">
*{stroke-linecap:butt;stroke-linejoin:round;}
  </style>
 </defs>
 <g id="figure_1">
  <g id="patch_1">
   <path d="M 0 735.84 
L 1382.4 735.84 
L 1382.4 0 
L 0 0 
z
" style="fill:#ffffff;"/>
  </g>
  <g id="axes_1">
   <g id="patch_2">
    <path d="M 172.8 654.8976 
L 1244.16 654.8976 
L 1244.16 88.3008 
L 172.8 88.3008 
z
" style="fill:#ffffff;"/>
   </g>
   <g id="matplotlib.axis_1">
    <g id="text_1">
     <!-- Orientation of structure -->
     <defs>
      <path d="M 39.40625 66.21875 
Q 28.65625 66.21875 22.328125 58.203125 
Q 16.015625 50.203125 16.015625 36.375 
Q 16.015625 22.609375 22.328125 14.59375 
Q 28.65625 6.59375 39.40625 6.59375 
Q 50.140625 6.59375 56.421875 14.59375 
Q 62.703125 22.609375 62.703125 36.375 
Q 62.703125 50.203125 56.421875 58.203125 
Q 50.140625 66.21875 39.40625 66.21875 
z
M 39.40625 74.21875 
Q 54.734375 74.21875 63.90625 63.9375 
Q 73.09375 53.65625 73.09375 36.375 
Q 73.09375 19.140625 63.90625 8.859375 
Q 54.734375 -1.421875 39.40625 -1.421875 
Q 24.03125 -1.421875 14.8125 8.828125 
Q 5.609375 19.09375 5.609375 36.375 
Q 5.609375 53.65625 14.8125 63.9375 
Q 24.03125 74.21875 39.40625 74.21875 
z
" id="DejaVuSans-4f"/>
      <path d="M 41.109375 46.296875 
Q 39.59375 47.171875 37.8125 47.578125 
Q 36.03125 48 33.890625 48 
Q 26.265625 48 22.1875 43.046875 
Q 18.109375 38.09375 18.109375 28.8125 
L 18.109375 0 
L 9.078125 0 
L 9.078125 54.6875 
L 18.109375 54.6875 
L 18.109375 46.1875 
Q 20.953125 51.171875 25.484375 53.578125 
Q 30.03125 56 36.53125 56 
Q 37.453125 56 38.578125 55.875 
Q 39.703125 55.765625 41.0625 55.515625 
z
" id="DejaVuSans-72"/>
      <path d="M 9.421875 54.6875 
L 18.40625 54.6875 
L 18.40625 0 
L 9.421875 0 
z
M 9.421875 75.984375 
L 18.40625 75.984375 
L 18.40625 64.59375 
L 9.421875 64.59375 
z
" id="DejaVuSans-69"/>
      <path d="M 56.203125 29.59375 
L 56.203125 25.203125 
L 14.890625 25.203125 
Q 15.484375 15.921875 20.484375 11.0625 
Q 25.484375 6.203125 34.421875 6.203125 
Q 39.59375 6.203125 44.453125 7.46875 
Q 49.3125 8.734375 54.109375 11.28125 
L 54.109375 2.78125 
Q 49.265625 0.734375 44.1875 -0.34375 
Q 39.109375 -1.421875 33.890625 -1.421875 
Q 20.796875 -1.421875 13.15625 6.1875 
Q 5.515625 13.8125 5.515625 26.8125 
Q 5.515625 40.234375 12.765625 48.109375 
Q 20.015625 56 32.328125 56 
Q 43.359375 56 49.78125 48.890625 
Q 56.203125 41.796875 56.203125 29.59375 
z
M 47.21875 32.234375 
Q 47.125 39.59375 43.09375 43.984375 
Q 39.0625 48.390625 32.421875 48.390625 
Q 24.90625 48.390625 20.390625 44.140625 
Q 15.875 39.890625 15.1875 32.171875 
z
" id="DejaVuSans-65"/>
      <path d="M 54.890625 33.015625 
L 54.890625 0 
L 45.90625 0 
L 45.90625 32.71875 
Q 45.90625 40.484375 42.875 44.328125 
Q 39.84375 48.1875 33.796875 48.1875 
Q 26.515625 48.1875 22.3125 43.546875 
Q 18.109375 38.921875 18.109375 30.90625 
L 18.109375 0 
L 9.078125 0 
L 9.078125 54.6875 
L 18.109375 54.6875 
L 18.109375 46.1875 
Q 21.34375 51.125 25.703125 53.5625 
Q 30.078125 56 35.796875 56 
Q 45.21875 56 50.046875 50.171875 
Q 54.890625 44.34375 54.890625 33.015625 
z
" id="DejaVuSans-6e"/>
      <path d="M 18.3125 70.21875 
L 18.3125 54.6875 
L 36.8125 54.6875 
L 36.8125 47.703125 
L 18.3125 47.703125 
L 18.3125 18.015625 
Q 18.3125 11.328125 20.140625 9.421875 
Q 21.96875 7.515625 27.59375 7.515625 
L 36.8125 7.515625 
L 36.8125 0 
L 27.59375 0 
Q 17.1875 0 13.234375 3.875 
Q 9.28125 7.765625 9.28125 18.015625 
L 9.28125 47.703125 
L 2.6875 47.703125 
L 2.6875 54.6875 
L 9.28125 54.6875 
L 9.28125 70.21875 
z
" id="DejaVuSans-74"/>
      <path d="M 34.28125 27.484375 
Q 23.390625 27.484375 19.1875 25 
Q 14.984375 22.515625 14.984375 16.5 
Q 14.984375 11.71875 18.140625 8.90625 
Q 21.296875 6.109375 26.703125 6.109375 
Q 34.1875 6.109375 38.703125 11.40625 
Q 43.21875 16.703125 43.21875 25.484375 
L 43.21875 27.484375 
z
M 52.203125 31.203125 
L 52.203125 0 
L 43.21875 0 
L 43.21875 8.296875 
Q 40.140625 3.328125 35.546875 0.953125 
Q 30.953125 -1.421875 24.3125 -1.421875 
Q 15.921875 -1.421875 10.953125 3.296875 
Q 6 8.015625 6 15.921875 
Q 6 25.140625 12.171875 29.828125 
Q 18.359375 34.515625 30.609375 34.515625 
L 43.21875 34.515625 
L 43.21875 35.40625 
Q 43.21875 41.609375 39.140625 45 
Q 35.0625 48.390625 27.6875 48.390625 
Q 23 48.390625 18.546875 47.265625 
Q 14.109375 46.140625 10.015625 43.890625 
L 10.015625 52.203125 
Q 14.9375 54.109375 19.578125 55.046875 
Q 24.21875 56 28.609375 56 
Q 40.484375 56 46.34375 49.84375 
Q 52.203125 43.703125 52.203125 31.203125 
z
" id="DejaVuSans-61"/>
      <path d="M 30.609375 48.390625 
Q 23.390625 48.390625 19.1875 42.75 
Q 14.984375 37.109375 14.984375 27.296875 
Q 14.984375 17.484375 19.15625 11.84375 
Q 23.34375 6.203125 30.609375 6.203125 
Q 37.796875 6.203125 41.984375 11.859375 
Q 46.1875 17.53125 46.1875 27.296875 
Q 46.1875 37.015625 41.984375 42.703125 
Q 37.796875 48.390625 30.609375 48.390625 
z
M 30.609375 56 
Q 42.328125 56 49.015625 48.375 
Q 55.71875 40.765625 55.71875 27.296875 
Q 55.71875 13.875 49.015625 6.21875 
Q 42.328125 -1.421875 30.609375 -1.421875 
Q 18.84375 -1.421875 12.171875 6.21875 
Q 5.515625 13.875 5.515625 27.296875 
Q 5.515625 40.765625 12.171875 48.375 
Q 18.84375 56 30.609375 56 
z
" id="DejaVuSans-6f"/>
      <path id="DejaVuSans-20"/>
      <path d="M 37.109375 75.984375 
L 37.109375 68.5 
L 28.515625 68.5 
Q 23.6875 68.5 21.796875 66.546875 
Q 19.921875 64.59375 19.921875 59.515625 
L 19.921875 54.6875 
L 34.71875 54.6875 
L 34.71875 47.703125 
L 19.921875 47.703125 
L 19.921875 0 
L 10.890625 0 
L 10.890625 47.703125 
L 2.296875 47.703125 
L 2.296875 54.6875 
L 10.890625 54.6875 
L 10.890625 58.5 
Q 10.890625 67.625 15.140625 71.796875 
Q 19.390625 75.984375 28.609375 75.984375 
z
" id="DejaVuSans-66"/>
      <path d="M 44.28125 53.078125 
L 44.28125 44.578125 
Q 40.484375 46.53125 36.375 47.5 
Q 32.28125 48.484375 27.875 48.484375 
Q 21.1875 48.484375 17.84375 46.4375 
Q 14.5 44.390625 14.5 40.28125 
Q 14.5 37.15625 16.890625 35.375 
Q 19.28125 33.59375 26.515625 31.984375 
L 29.59375 31.296875 
Q 39.15625 29.25 43.1875 25.515625 
Q 47.21875 21.78125 47.21875 15.09375 
Q 47.21875 7.46875 41.1875 3.015625 
Q 35.15625 -1.421875 24.609375 -1.421875 
Q 20.21875 -1.421875 15.453125 -0.5625 
Q 10.6875 0.296875 5.421875 2 
L 5.421875 11.28125 
Q 10.40625 8.6875 15.234375 7.390625 
Q 20.0625 6.109375 24.8125 6.109375 
Q 31.15625 6.109375 34.5625 8.28125 
Q 37.984375 10.453125 37.984375 14.40625 
Q 37.984375 18.0625 35.515625 20.015625 
Q 33.0625 21.96875 24.703125 23.78125 
L 21.578125 24.515625 
Q 13.234375 26.265625 9.515625 29.90625 
Q 5.8125 33.546875 5.8125 39.890625 
Q 5.8125 47.609375 11.28125 51.796875 
Q 16.75 56 26.8125 56 
Q 31.78125 56 36.171875 55.265625 
Q 40.578125 54.546875 44.28125 53.078125 
z
" id="DejaVuSans-73"/>
      <path d="M 8.5 21.578125 
L 8.5 54.6875 
L 17.484375 54.6875 
L 17.484375 21.921875 
Q 17.484375 14.15625 20.5 10.265625 
Q 23.53125 6.390625 29.59375 6.390625 
Q 36.859375 6.390625 41.078125 11.03125 
Q 45.3125 15.671875 45.3125 23.6875 
L 45.3125 54.6875 
L 54.296875 54.6875 
L 54.296875 0 
L 45.3125 0 
L 45.3125 8.40625 
Q 42.046875 3.421875 37.71875 1 
Q 33.40625 -1.421875 27.6875 -1.421875 
Q 18.265625 -1.421875 13.375 4.4375 
Q 8.5 10.296875 8.5 21.578125 
z
M 31.109375 56 
z
" id="DejaVuSans-75"/>
      <path d="M 48.78125 52.59375 
L 48.78125 44.1875 
Q 44.96875 46.296875 41.140625 47.34375 
Q 37.3125 48.390625 33.40625 48.390625 
Q 24.65625 48.390625 19.8125 42.84375 
Q 14.984375 37.3125 14.984375 27.296875 
Q 14.984375 17.28125 19.8125 11.734375 
Q 24.65625 6.203125 33.40625 6.203125 
Q 37.3125 6.203125 41.140625 7.25 
Q 44.96875 8.296875 48.78125 10.40625 
L 48.78125 2.09375 
Q 45.015625 0.34375 40.984375 -0.53125 
Q 36.96875 -1.421875 32.421875 -1.421875 
Q 20.0625 -1.421875 12.78125 6.34375 
Q 5.515625 14.109375 5.515625 27.296875 
Q 5.515625 40.671875 12.859375 48.328125 
Q 20.21875 56 33.015625 56 
Q 37.15625 56 41.109375 55.140625 
Q 45.0625 54.296875 48.78125 52.59375 
z
" id="DejaVuSans-63"/>
     </defs>
     <g transform="translate(531.412031 681.692913)scale(0.3 -0.3)">
      <use xlink:href="#DejaVuSans-4f"/>
      <use x="78.710938" xlink:href="#DejaVuSans-72"/>
      <use x="119.824219" xlink:href="#DejaVuSans-69"/>
      <use x="147.607422" xlink:href="#DejaVuSans-65"/>
      <use x="209.130859" xlink:href="#DejaVuSans-6e"/>
      <use x="272.509766" xlink:href="#DejaVuSans-74"/>
      <use x="311.71875" xlink:href="#DejaVuSans-61"/>
      <use x="372.998047" xlink:href="#DejaVuSans-74"/>
      <use x="412.207031" xlink:href="#DejaVuSans-69"/>
      <use x="439.990234" xlink:href="#DejaVuSans-6f"/>
      <use x="501.171875" xlink:href="#DejaVuSans-6e"/>
      <use x="564.550781" xlink:href="#DejaVuSans-20"/>
      <use x="596.337891" xlink:href="#DejaVuSans-6f"/>
      <use x="657.519531" xlink:href="#DejaVuSans-66"/>
      <use x="692.724609" xlink:href="#DejaVuSans-20"/>
      <use x="724.511719" xlink:href="#DejaVuSans-73"/>
      <use x="776.611328" xlink:href="#DejaVuSans-74"/>
      <use x="815.820312" xlink:href="#DejaVuSans-72"/>
      <use x="856.933594" xlink:href="#DejaVuSans-75"/>
      <use x="920.3125" xlink:href="#DejaVuSans-63"/>
      <use x="975.292969" xlink:href="#DejaVuSans-74"/>
      <use x="1014.501953" xlink:href="#DejaVuSans-75"/>
      <use x="1077.880859" xlink:href="#DejaVuSans-72"/>
      <use x="1118.962891" xlink:href="#DejaVuSans-65"/>
     </g>
    </g>
   </g>
   <g id="matplotlib.axis_2">
    <g id="ytick_1">
     <g id="line2d_1">
      <defs>
       <path d="M 0 0 
L -3.5 0 
" id="m1a9ce5c43e" style="stroke:#000000;stroke-width:0.8;"/>
      </defs>
      <g>
       <use style="stroke:#000000;stroke-width:0.8;" x="172.8" xlink:href="#m1a9ce5c43e" y="632.927876"/>
      </g>
     </g>
     <g id="text_2">
      <!-- 0.214 -->
      <defs>
       <path d="M 31.78125 66.40625 
Q 24.171875 66.40625 20.328125 58.90625 
Q 16.5 51.421875 16.5 36.375 
Q 16.5 21.390625 20.328125 13.890625 
Q 24.171875 6.390625 31.78125 6.390625 
Q 39.453125 6.390625 43.28125 13.890625 
Q 47.125 21.390625 47.125 36.375 
Q 47.125 51.421875 43.28125 58.90625 
Q 39.453125 66.40625 31.78125 66.40625 
z
M 31.78125 74.21875 
Q 44.046875 74.21875 50.515625 64.515625 
Q 56.984375 54.828125 56.984375 36.375 
Q 56.984375 17.96875 50.515625 8.265625 
Q 44.046875 -1.421875 31.78125 -1.421875 
Q 19.53125 -1.421875 13.0625 8.265625 
Q 6.59375 17.96875 6.59375 36.375 
Q 6.59375 54.828125 13.0625 64.515625 
Q 19.53125 74.21875 31.78125 74.21875 
z
" id="DejaVuSans-30"/>
       <path d="M 10.6875 12.40625 
L 21 12.40625 
L 21 0 
L 10.6875 0 
z
" id="DejaVuSans-2e"/>
       <path d="M 19.1875 8.296875 
L 53.609375 8.296875 
L 53.609375 0 
L 7.328125 0 
L 7.328125 8.296875 
Q 12.9375 14.109375 22.625 23.890625 
Q 32.328125 33.6875 34.8125 36.53125 
Q 39.546875 41.84375 41.421875 45.53125 
Q 43.3125 49.21875 43.3125 52.78125 
Q 43.3125 58.59375 39.234375 62.25 
Q 35.15625 65.921875 28.609375 65.921875 
Q 23.96875 65.921875 18.8125 64.3125 
Q 13.671875 62.703125 7.8125 59.421875 
L 7.8125 69.390625 
Q 13.765625 71.78125 18.9375 73 
Q 24.125 74.21875 28.421875 74.21875 
Q 39.75 74.21875 46.484375 68.546875 
Q 53.21875 62.890625 53.21875 53.421875 
Q 53.21875 48.921875 51.53125 44.890625 
Q 49.859375 40.875 45.40625 35.40625 
Q 44.1875 33.984375 37.640625 27.21875 
Q 31.109375 20.453125 19.1875 8.296875 
z
" id="DejaVuSans-32"/>
       <path d="M 12.40625 8.296875 
L 28.515625 8.296875 
L 28.515625 63.921875 
L 10.984375 60.40625 
L 10.984375 69.390625 
L 28.421875 72.90625 
L 38.28125 72.90625 
L 38.28125 8.296875 
L 54.390625 8.296875 
L 54.390625 0 
L 12.40625 0 
z
" id="DejaVuSans-31"/>
       <path d="M 37.796875 64.3125 
L 12.890625 25.390625 
L 37.796875 25.390625 
z
M 35.203125 72.90625 
L 47.609375 72.90625 
L 47.609375 25.390625 
L 58.015625 25.390625 
L 58.015625 17.1875 
L 47.609375 17.1875 
L 47.609375 0 
L 37.796875 0 
L 37.796875 17.1875 
L 4.890625 17.1875 
L 4.890625 26.703125 
z
" id="DejaVuSans-34"/>
      </defs>
      <g transform="translate(108.54375 640.526314)scale(0.2 -0.2)">
       <use xlink:href="#DejaVuSans-30"/>
       <use x="63.623047" xlink:href="#DejaVuSans-2e"/>
       <use x="95.410156" xlink:href="#DejaVuSans-32"/>
       <use x="159.033203" xlink:href="#DejaVuSans-31"/>
       <use x="222.65625" xlink:href="#DejaVuSans-34"/>
      </g>
     </g>
    </g>
    <g id="ytick_2">
     <g id="line2d_2">
      <g>
       <use style="stroke:#000000;stroke-width:0.8;" x="172.8" xlink:href="#m1a9ce5c43e" y="546.688464"/>
      </g>
     </g>
     <g id="text_3">
      <!-- 0.216 -->
      <defs>
       <path d="M 33.015625 40.375 
Q 26.375 40.375 22.484375 35.828125 
Q 18.609375 31.296875 18.609375 23.390625 
Q 18.609375 15.53125 22.484375 10.953125 
Q 26.375 6.390625 33.015625 6.390625 
Q 39.65625 6.390625 43.53125 10.953125 
Q 47.40625 15.53125 47.40625 23.390625 
Q 47.40625 31.296875 43.53125 35.828125 
Q 39.65625 40.375 33.015625 40.375 
z
M 52.59375 71.296875 
L 52.59375 62.3125 
Q 48.875 64.0625 45.09375 64.984375 
Q 41.3125 65.921875 37.59375 65.921875 
Q 27.828125 65.921875 22.671875 59.328125 
Q 17.53125 52.734375 16.796875 39.40625 
Q 19.671875 43.65625 24.015625 45.921875 
Q 28.375 48.1875 33.59375 48.1875 
Q 44.578125 48.1875 50.953125 41.515625 
Q 57.328125 34.859375 57.328125 23.390625 
Q 57.328125 12.15625 50.6875 5.359375 
Q 44.046875 -1.421875 33.015625 -1.421875 
Q 20.359375 -1.421875 13.671875 8.265625 
Q 6.984375 17.96875 6.984375 36.375 
Q 6.984375 53.65625 15.1875 63.9375 
Q 23.390625 74.21875 37.203125 74.21875 
Q 40.921875 74.21875 44.703125 73.484375 
Q 48.484375 72.75 52.59375 71.296875 
z
" id="DejaVuSans-36"/>
      </defs>
      <g transform="translate(108.54375 554.286901)scale(0.2 -0.2)">
       <use xlink:href="#DejaVuSans-30"/>
       <use x="63.623047" xlink:href="#DejaVuSans-2e"/>
       <use x="95.410156" xlink:href="#DejaVuSans-32"/>
       <use x="159.033203" xlink:href="#DejaVuSans-31"/>
       <use x="222.65625" xlink:href="#DejaVuSans-36"/>
      </g>
     </g>
    </g>
    <g id="ytick_3">
     <g id="line2d_3">
      <g>
       <use style="stroke:#000000;stroke-width:0.8;" x="172.8" xlink:href="#m1a9ce5c43e" y="460.449051"/>
      </g>
     </g>
     <g id="text_4">
      <!-- 0.218 -->
      <defs>
       <path d="M 31.78125 34.625 
Q 24.75 34.625 20.71875 30.859375 
Q 16.703125 27.09375 16.703125 20.515625 
Q 16.703125 13.921875 20.71875 10.15625 
Q 24.75 6.390625 31.78125 6.390625 
Q 38.8125 6.390625 42.859375 10.171875 
Q 46.921875 13.96875 46.921875 20.515625 
Q 46.921875 27.09375 42.890625 30.859375 
Q 38.875 34.625 31.78125 34.625 
z
M 21.921875 38.8125 
Q 15.578125 40.375 12.03125 44.71875 
Q 8.5 49.078125 8.5 55.328125 
Q 8.5 64.0625 14.71875 69.140625 
Q 20.953125 74.21875 31.78125 74.21875 
Q 42.671875 74.21875 48.875 69.140625 
Q 55.078125 64.0625 55.078125 55.328125 
Q 55.078125 49.078125 51.53125 44.71875 
Q 48 40.375 41.703125 38.8125 
Q 48.828125 37.15625 52.796875 32.3125 
Q 56.78125 27.484375 56.78125 20.515625 
Q 56.78125 9.90625 50.3125 4.234375 
Q 43.84375 -1.421875 31.78125 -1.421875 
Q 19.734375 -1.421875 13.25 4.234375 
Q 6.78125 9.90625 6.78125 20.515625 
Q 6.78125 27.484375 10.78125 32.3125 
Q 14.796875 37.15625 21.921875 38.8125 
z
M 18.3125 54.390625 
Q 18.3125 48.734375 21.84375 45.5625 
Q 25.390625 42.390625 31.78125 42.390625 
Q 38.140625 42.390625 41.71875 45.5625 
Q 45.3125 48.734375 45.3125 54.390625 
Q 45.3125 60.0625 41.71875 63.234375 
Q 38.140625 66.40625 31.78125 66.40625 
Q 25.390625 66.40625 21.84375 63.234375 
Q 18.3125 60.0625 18.3125 54.390625 
z
" id="DejaVuSans-38"/>
      </defs>
      <g transform="translate(108.54375 468.047489)scale(0.2 -0.2)">
       <use xlink:href="#DejaVuSans-30"/>
       <use x="63.623047" xlink:href="#DejaVuSans-2e"/>
       <use x="95.410156" xlink:href="#DejaVuSans-32"/>
       <use x="159.033203" xlink:href="#DejaVuSans-31"/>
       <use x="222.65625" xlink:href="#DejaVuSans-38"/>
      </g>
     </g>
    </g>
    <g id="ytick_4">
     <g id="line2d_4">
      <g>
       <use style="stroke:#000000;stroke-width:0.8;" x="172.8" xlink:href="#m1a9ce5c43e" y="374.209639"/>
      </g>
     </g>
     <g id="text_5">
      <!-- 0.220 -->
      <g transform="translate(108.54375 381.808076)scale(0.2 -0.2)">
       <use xlink:href="#DejaVuSans-30"/>
       <use x="63.623047" xlink:href="#DejaVuSans-2e"/>
       <use x="95.410156" xlink:href="#DejaVuSans-32"/>
       <use x="159.033203" xlink:href="#DejaVuSans-32"/>
       <use x="222.65625" xlink:href="#DejaVuSans-30"/>
      </g>
     </g>
    </g>
    <g id="ytick_5">
     <g id="line2d_5">
      <g>
       <use style="stroke:#000000;stroke-width:0.8;" x="172.8" xlink:href="#m1a9ce5c43e" y="287.970227"/>
      </g>
     </g>
     <g id="text_6">
      <!-- 0.222 -->
      <g transform="translate(108.54375 295.568664)scale(0.2 -0.2)">
       <use xlink:href="#DejaVuSans-30"/>
       <use x="63.623047" xlink:href="#DejaVuSans-2e"/>
       <use x="95.410156" xlink:href="#DejaVuSans-32"/>
       <use x="159.033203" xlink:href="#DejaVuSans-32"/>
       <use x="222.65625" xlink:href="#DejaVuSans-32"/>
      </g>
     </g>
    </g>
    <g id="ytick_6">
     <g id="line2d_6">
      <g>
       <use style="stroke:#000000;stroke-width:0.8;" x="172.8" xlink:href="#m1a9ce5c43e" y="201.730814"/>
      </g>
     </g>
     <g id="text_7">
      <!-- 0.224 -->
      <g transform="translate(108.54375 209.329252)scale(0.2 -0.2)">
       <use xlink:href="#DejaVuSans-30"/>
       <use x="63.623047" xlink:href="#DejaVuSans-2e"/>
       <use x="95.410156" xlink:href="#DejaVuSans-32"/>
       <use x="159.033203" xlink:href="#DejaVuSans-32"/>
       <use x="222.65625" xlink:href="#DejaVuSans-34"/>
      </g>
     </g>
    </g>
    <g id="ytick_7">
     <g id="line2d_7">
      <g>
       <use style="stroke:#000000;stroke-width:0.8;" x="172.8" xlink:href="#m1a9ce5c43e" y="115.491402"/>
      </g>
     </g>
     <g id="text_8">
      <!-- 0.226 -->
      <g transform="translate(108.54375 123.089839)scale(0.2 -0.2)">
       <use xlink:href="#DejaVuSans-30"/>
       <use x="63.623047" xlink:href="#DejaVuSans-2e"/>
       <use x="95.410156" xlink:href="#DejaVuSans-32"/>
       <use x="159.033203" xlink:href="#DejaVuSans-32"/>
       <use x="222.65625" xlink:href="#DejaVuSans-36"/>
      </g>
     </g>
    </g>
    <g id="text_9">
     <!-- Spherical Mean -->
     <defs>
      <path d="M 53.515625 70.515625 
L 53.515625 60.890625 
Q 47.90625 63.578125 42.921875 64.890625 
Q 37.9375 66.21875 33.296875 66.21875 
Q 25.25 66.21875 20.875 63.09375 
Q 16.5 59.96875 16.5 54.203125 
Q 16.5 49.359375 19.40625 46.890625 
Q 22.3125 44.4375 30.421875 42.921875 
L 36.375 41.703125 
Q 47.40625 39.59375 52.65625 34.296875 
Q 57.90625 29 57.90625 20.125 
Q 57.90625 9.515625 50.796875 4.046875 
Q 43.703125 -1.421875 29.984375 -1.421875 
Q 24.8125 -1.421875 18.96875 -0.25 
Q 13.140625 0.921875 6.890625 3.21875 
L 6.890625 13.375 
Q 12.890625 10.015625 18.65625 8.296875 
Q 24.421875 6.59375 29.984375 6.59375 
Q 38.421875 6.59375 43.015625 9.90625 
Q 47.609375 13.234375 47.609375 19.390625 
Q 47.609375 24.75 44.3125 27.78125 
Q 41.015625 30.8125 33.5 32.328125 
L 27.484375 33.5 
Q 16.453125 35.6875 11.515625 40.375 
Q 6.59375 45.0625 6.59375 53.421875 
Q 6.59375 63.09375 13.40625 68.65625 
Q 20.21875 74.21875 32.171875 74.21875 
Q 37.3125 74.21875 42.625 73.28125 
Q 47.953125 72.359375 53.515625 70.515625 
z
" id="DejaVuSans-53"/>
      <path d="M 18.109375 8.203125 
L 18.109375 -20.796875 
L 9.078125 -20.796875 
L 9.078125 54.6875 
L 18.109375 54.6875 
L 18.109375 46.390625 
Q 20.953125 51.265625 25.265625 53.625 
Q 29.59375 56 35.59375 56 
Q 45.5625 56 51.78125 48.09375 
Q 58.015625 40.1875 58.015625 27.296875 
Q 58.015625 14.40625 51.78125 6.484375 
Q 45.5625 -1.421875 35.59375 -1.421875 
Q 29.59375 -1.421875 25.265625 0.953125 
Q 20.953125 3.328125 18.109375 8.203125 
z
M 48.6875 27.296875 
Q 48.6875 37.203125 44.609375 42.84375 
Q 40.53125 48.484375 33.40625 48.484375 
Q 26.265625 48.484375 22.1875 42.84375 
Q 18.109375 37.203125 18.109375 27.296875 
Q 18.109375 17.390625 22.1875 11.75 
Q 26.265625 6.109375 33.40625 6.109375 
Q 40.53125 6.109375 44.609375 11.75 
Q 48.6875 17.390625 48.6875 27.296875 
z
" id="DejaVuSans-70"/>
      <path d="M 54.890625 33.015625 
L 54.890625 0 
L 45.90625 0 
L 45.90625 32.71875 
Q 45.90625 40.484375 42.875 44.328125 
Q 39.84375 48.1875 33.796875 48.1875 
Q 26.515625 48.1875 22.3125 43.546875 
Q 18.109375 38.921875 18.109375 30.90625 
L 18.109375 0 
L 9.078125 0 
L 9.078125 75.984375 
L 18.109375 75.984375 
L 18.109375 46.1875 
Q 21.34375 51.125 25.703125 53.5625 
Q 30.078125 56 35.796875 56 
Q 45.21875 56 50.046875 50.171875 
Q 54.890625 44.34375 54.890625 33.015625 
z
" id="DejaVuSans-68"/>
      <path d="M 9.421875 75.984375 
L 18.40625 75.984375 
L 18.40625 0 
L 9.421875 0 
z
" id="DejaVuSans-6c"/>
      <path d="M 9.8125 72.90625 
L 24.515625 72.90625 
L 43.109375 23.296875 
L 61.8125 72.90625 
L 76.515625 72.90625 
L 76.515625 0 
L 66.890625 0 
L 66.890625 64.015625 
L 48.09375 14.015625 
L 38.1875 14.015625 
L 19.390625 64.015625 
L 19.390625 0 
L 9.8125 0 
z
" id="DejaVuSans-4d"/>
     </defs>
     <g transform="translate(98.304687 486.958575)rotate(-90)scale(0.3 -0.3)">
      <use xlink:href="#DejaVuSans-53"/>
      <use x="63.476562" xlink:href="#DejaVuSans-70"/>
      <use x="126.953125" xlink:href="#DejaVuSans-68"/>
      <use x="190.332031" xlink:href="#DejaVuSans-65"/>
      <use x="251.855469" xlink:href="#DejaVuSans-72"/>
      <use x="292.96875" xlink:href="#DejaVuSans-69"/>
      <use x="320.751953" xlink:href="#DejaVuSans-63"/>
      <use x="375.732422" xlink:href="#DejaVuSans-61"/>
      <use x="437.011719" xlink:href="#DejaVuSans-6c"/>
      <use x="464.794922" xlink:href="#DejaVuSans-20"/>
      <use x="496.582031" xlink:href="#DejaVuSans-4d"/>
      <use x="582.861328" xlink:href="#DejaVuSans-65"/>
      <use x="644.384766" xlink:href="#DejaVuSans-61"/>
      <use x="705.664062" xlink:href="#DejaVuSans-6e"/>
     </g>
    </g>
   </g>
   <g id="line2d_8">
    <path clip-path="url(#p35e7822c27)" d="M 172.8 124.722017 
L 1244.16 124.722017 
" style="fill:none;stroke:#00ff00;stroke-linecap:square;stroke-width:1.5;"/>
   </g>
   <g id="line2d_9">
    <path clip-path="url(#p35e7822c27)" d="M 221.498182 124.924242 
L 226.392471 121.151895 
L 231.286761 126.863802 
L 236.181051 122.20352 
L 241.07534 121.907165 
L 245.96963 129.739293 
L 250.86392 118.404227 
L 255.758209 125.502246 
L 260.652499 125.762523 
L 265.546788 119.565751 
L 270.441078 131.09047 
L 275.335368 118.109056 
L 280.229657 122.57698 
L 285.123947 131.483593 
L 290.018237 117.294943 
L 294.912526 127.99567 
L 299.806816 121.939064 
L 304.701106 120.624032 
L 309.595395 134.26144 
L 314.489685 115.561696 
L 319.383974 123.762086 
L 324.278264 129.386631 
L 329.172554 118.726988 
L 334.066843 131.360121 
L 338.961133 117.220352 
L 343.855423 121.698627 
L 348.749712 135.320352 
L 353.644002 115.939848 
L 358.538291 125.588672 
L 363.432581 124.340311 
L 368.326871 120.862804 
L 373.22116 134.816095 
L 378.11545 114.430954 
L 383.00974 122.198928 
L 387.904029 133.182517 
L 392.798319 118.590677 
L 397.692608 128.613602 
L 402.586898 118.474024 
L 407.481188 122.167528 
L 412.375477 136.773907 
L 417.269767 115.029789 
L 422.164057 122.820178 
L 427.058346 127.967313 
L 431.952636 121.736495 
L 436.846926 132.458389 
L 441.741215 114.556154 
L 446.635505 122.051912 
L 451.529794 135.798459 
L 456.424084 118.415884 
L 461.318374 124.733897 
L 466.212663 121.333538 
L 471.106953 123.661476 
L 476.001243 135.600954 
L 480.895532 114.466764 
L 485.789822 121.222434 
L 490.684111 131.513385 
L 495.578401 122.613905 
L 500.472691 128.240146 
L 505.36698 116.037266 
L 510.26127 123.454476 
L 515.15556 136.33119 
L 520.049849 117.982578 
L 524.944139 121.304827 
L 529.838429 125.008801 
L 534.732718 125.562438 
L 539.627008 132.134926 
L 544.521297 114.545644 
L 549.415587 121.500289 
L 554.309877 133.785917 
L 559.204166 123.067141 
L 564.098456 123.467964 
L 568.992746 118.74569 
L 573.887035 125.93225 
L 578.781325 134.512678 
L 583.675614 117.411804 
L 588.569904 119.528981 
L 593.464194 128.418372 
L 598.358483 127.261361 
L 603.252773 127.206646 
L 608.147063 115.590253 
L 613.041352 123.597453 
L 617.935642 134.028406 
L 622.829931 122.912998 
L 627.724221 119.511395 
L 632.618511 122.0946 
L 637.5128 128.765698 
L 642.40709 130.670421 
L 647.30138 117.06939 
L 652.195669 119.982923 
L 657.089959 130.524637 
L 661.984249 128.299705 
L 666.878538 121.984237 
L 671.772828 117.634756 
L 676.667117 126.901695 
L 681.561407 132.076507 
L 686.455697 122.253266 
L 691.349986 117.487147 
L 696.244276 125.152762 
L 701.138566 131.255009 
L 706.032855 125.592381 
L 710.927145 117.359067 
L 715.821434 122.518296 
L 720.715724 130.690524 
L 725.610014 128.447096 
L 730.504303 117.75261 
L 735.398593 120.250763 
L 740.292883 130.554735 
L 745.187172 128.308715 
L 750.081462 121.447078 
L 754.975751 117.934198 
L 759.870041 126.998702 
L 764.764331 132.865383 
L 769.65862 120.383895 
L 774.55291 118.439867 
L 779.4472 126.403586 
L 784.341489 128.840657 
L 789.235779 127.762581 
L 794.130069 115.590507 
L 799.024358 122.650958 
L 803.918648 133.7244 
L 808.812937 123.516958 
L 813.707227 120.942271 
L 818.601517 120.651026 
L 823.495806 127.08445 
L 828.390096 133.310651 
L 833.284386 116.274086 
L 838.178675 120.04104 
L 843.072965 130.624354 
L 847.967254 125.413988 
L 852.861544 126.58956 
L 857.755834 116.014414 
L 862.650123 124.028971 
L 867.544413 135.77117 
L 872.438703 118.781534 
L 877.332992 121.004698 
L 882.227282 124.794948 
L 887.121571 125.408221 
L 892.015861 132.617938 
L 896.910151 114.301265 
L 901.80444 121.535132 
L 906.69873 134.180757 
L 911.59302 121.239889 
L 916.487309 125.408863 
L 921.381599 118.766258 
L 926.275889 123.926735 
L 931.170178 136.343458 
L 936.064468 115.296205 
L 940.958757 121.517885 
L 945.853047 129.175666 
L 950.747337 122.48194 
L 955.641626 131.128214 
L 960.535916 114.933637 
L 965.430206 122.257946 
L 970.324495 136.286103 
L 975.218785 117.424521 
L 980.113074 124.576358 
L 985.007364 122.869328 
L 989.901654 122.4313 
L 994.795943 135.43924 
L 999.690233 114.0552 
L 1004.584523 122.031463 
L 1009.478812 132.57292 
L 1014.373102 119.229026 
L 1019.267392 129.352984 
L 1024.161681 117.809681 
L 1029.055971 121.887545 
L 1033.95026 136.472505 
L 1038.84455 115.187923 
L 1043.73884 124.11542 
L 1048.633129 126.896463 
L 1053.527419 120.192991 
L 1058.421709 133.384546 
L 1063.315998 115.449314 
L 1068.210288 122.080159 
L 1073.104577 133.941942 
L 1077.998867 116.913611 
L 1082.893157 127.69997 
L 1087.787446 121.733896 
L 1092.681736 120.714636 
L 1097.576026 134.601671 
L 1102.470315 115.566362 
L 1107.364605 123.767592 
L 1112.258894 129.23568 
L 1117.153184 118.457484 
L 1122.047474 130.602334 
L 1126.941763 118.963896 
L 1131.836053 121.661902 
L 1136.730343 132.381749 
L 1141.624632 117.134312 
L 1146.518922 126.206554 
L 1151.413212 124.800861 
L 1156.307501 120.006001 
L 1161.201791 130.475706 
L 1166.09608 119.177057 
L 1175.88466 127.775866 
L 1180.778949 119.872628 
L 1185.673239 126.574387 
L 1190.567529 123.176546 
L 1195.461818 122.944499 
L 1195.461818 122.944499 
" style="fill:none;stroke:#00ff00;stroke-linecap:square;stroke-width:1.5;"/>
   </g>
   <g id="line2d_10">
    <path clip-path="url(#p35e7822c27)" d="M 172.8 222.503087 
L 1244.16 222.503087 
" style="fill:none;stroke:#0000ff;stroke-linecap:square;stroke-width:1.5;"/>
   </g>
   <g id="line2d_11">
    <path clip-path="url(#p35e7822c27)" d="M 221.498182 219.379894 
L 226.392471 218.760364 
L 231.286761 217.053343 
L 236.181051 222.546726 
L 241.07534 216.697853 
L 245.96963 218.666443 
L 250.86392 221.478502 
L 255.758209 216.479405 
L 260.652499 223.660662 
L 265.546788 217.119607 
L 270.441078 216.695952 
L 275.335368 225.678163 
L 280.229657 216.661455 
L 285.123947 220.773083 
L 290.018237 219.848364 
L 294.912526 216.923889 
L 299.806816 227.598738 
L 304.701106 216.200091 
L 309.595395 217.16363 
L 314.489685 225.312192 
L 319.383974 218.114567 
L 324.278264 224.567521 
L 329.172554 217.085916 
L 334.066843 216.873574 
L 338.961133 229.876642 
L 343.855423 217.475127 
L 348.749712 218.919857 
L 353.644002 222.126392 
L 358.538291 219.300674 
L 363.432581 229.00443 
L 368.326871 215.837803 
L 373.22116 216.431268 
L 378.11545 229.145779 
L 383.00974 220.167282 
L 387.904029 222.63081 
L 392.798319 217.9974 
L 397.692608 219.063456 
L 402.586898 232.147191 
L 407.481188 217.480045 
L 412.375477 216.856718 
L 417.269767 225.369352 
L 422.164057 222.355442 
L 427.058346 227.701686 
L 431.952636 215.536852 
L 436.846926 217.539883 
L 441.741215 232.273477 
L 446.635505 221.235968 
L 451.529794 219.496178 
L 456.424084 220.077205 
L 461.318374 222.531938 
L 466.212663 232.175664 
L 471.106953 216.602923 
L 476.001243 216.123471 
L 480.895532 228.90237 
L 485.789822 224.832116 
L 490.684111 224.43688 
L 495.578401 215.950277 
L 500.472691 220.495359 
L 505.36698 233.901504 
L 510.26127 220.85364 
L 515.15556 216.726641 
L 520.049849 223.144192 
L 524.944139 226.184631 
L 529.838429 229.957494 
L 534.732718 215.502328 
L 539.627008 217.460218 
L 544.521297 231.83144 
L 549.415587 225.882978 
L 554.309877 220.363314 
L 559.204166 217.519165 
L 564.098456 224.549235 
L 568.992746 233.511577 
L 573.887035 219.274466 
L 578.781325 215.613607 
L 583.675614 226.536548 
L 588.569904 228.958982 
L 593.464194 226.005568 
L 598.358483 215.019006 
L 603.252773 220.721095 
L 608.147063 233.347444 
L 617.935642 216.883969 
L 622.829931 220.128758 
L 627.724221 228.616155 
L 632.618511 231.022378 
L 637.5128 217.268172 
L 642.40709 216.77757 
L 647.30138 229.373595 
L 652.195669 230.113641 
L 657.089959 221.358571 
L 661.984249 215.688481 
L 666.878538 225.067929 
L 671.772828 232.942826 
L 676.667117 223.128517 
L 681.561407 215.222695 
L 686.455697 223.144702 
L 691.349986 231.670063 
L 696.244276 226.886726 
L 701.138566 215.741516 
L 706.032855 219.985464 
L 710.927145 230.868016 
L 715.821434 229.396885 
L 720.715724 217.358851 
L 725.610014 217.462593 
L 730.504303 229.36971 
L 735.398593 230.54238 
L 740.292883 220.405959 
L 745.187172 215.961451 
L 750.081462 225.699776 
L 754.975751 233.006949 
L 759.870041 222.086654 
L 764.764331 215.302227 
L 769.65862 224.322461 
L 774.55291 230.544148 
L 779.4472 227.104942 
L 784.341489 215.203367 
L 789.235779 219.752362 
L 794.130069 232.588014 
L 799.024358 226.587317 
L 803.918648 217.969742 
L 808.812937 218.823963 
L 813.707227 227.024116 
L 818.601517 232.387217 
L 823.495806 217.91746 
L 828.390096 215.984004 
L 833.284386 228.592393 
L 838.178675 228.361401 
L 843.072965 223.984859 
L 847.967254 215.457364 
L 852.861544 221.718782 
L 857.755834 234.021447 
L 862.650123 222.028802 
L 867.544413 216.482474 
L 872.438703 222.832443 
L 877.332992 226.677694 
L 882.227282 230.086608 
L 887.121571 215.539715 
L 892.015861 217.274441 
L 896.910151 231.707407 
L 901.80444 224.785877 
L 906.69873 220.950184 
L 911.59302 217.810432 
L 916.487309 222.620864 
L 921.381599 233.426955 
L 926.275889 218.116697 
L 931.170178 216.068264 
L 936.064468 226.708528 
L 940.958757 224.676848 
L 945.853047 226.817101 
L 950.747337 215.47786 
L 955.641626 218.401177 
L 960.535916 232.927798 
L 965.430206 220.774062 
L 970.324495 218.701559 
L 975.218785 221.211587 
L 980.113074 222.07338 
L 985.007364 231.06003 
L 989.901654 215.949668 
L 994.795943 216.326686 
L 999.690233 229.266117 
L 1004.584523 221.560789 
L 1009.478812 223.475132 
L 1014.373102 217.34827 
L 1019.267392 218.700951 
L 1024.161681 231.968588 
L 1029.055971 217.553567 
L 1033.95026 217.459742 
L 1038.84455 224.252156 
L 1043.73884 220.200923 
L 1048.633129 227.599743 
L 1053.527419 215.955665 
L 1058.421709 216.625133 
L 1063.315998 229.637135 
L 1068.210288 218.372117 
L 1073.104577 220.792775 
L 1077.998867 219.951898 
L 1082.893157 217.935744 
L 1087.787446 229.010791 
L 1092.681736 216.160773 
L 1097.576026 216.997971 
L 1102.470315 225.508487 
L 1107.364605 217.75932 
L 1112.258894 223.897843 
L 1117.153184 217.573508 
L 1122.047474 216.552417 
L 1126.941763 227.291333 
L 1131.836053 216.46661 
L 1136.730343 219.107244 
L 1141.624632 221.526075 
L 1146.518922 216.647076 
L 1151.413212 224.492818 
L 1156.307501 216.916297 
L 1161.201791 217.096035 
L 1166.09608 223.448224 
L 1170.99037 216.446965 
L 1175.88466 220.499164 
L 1180.778949 219.094125 
L 1185.673239 216.965491 
L 1190.567529 221.033356 
L 1195.461818 217.907801 
L 1195.461818 217.907801 
" style="fill:none;stroke:#0000ff;stroke-linecap:square;stroke-width:1.5;"/>
   </g>
   <g id="line2d_12">
    <path clip-path="url(#p35e7822c27)" d="M 172.8 321.142525 
L 1244.16 321.142525 
" style="fill:none;stroke:#00ffff;stroke-linecap:square;stroke-width:1.5;"/>
   </g>
   <g id="line2d_13">
    <path clip-path="url(#p35e7822c27)" d="M 221.498182 320.927244 
L 226.392471 315.756715 
L 231.286761 319.869278 
L 236.181051 320.711242 
L 241.07534 312.216774 
L 245.96963 326.849878 
L 250.86392 316.428508 
L 255.758209 314.488701 
L 260.652499 325.402787 
L 265.546788 312.155474 
L 270.441078 326.063195 
L 275.335368 318.553355 
L 280.229657 308.891576 
L 285.123947 331.209672 
L 290.018237 315.206667 
L 294.912526 318.048343 
L 299.806816 322.429323 
L 304.701106 309.356009 
L 309.595395 332.868615 
L 314.489685 316.940961 
L 319.383974 308.741705 
L 324.278264 329.766503 
L 329.172554 314.307353 
L 334.066843 325.595716 
L 338.961133 318.243526 
L 343.855423 306.486664 
L 348.749712 336.164466 
L 353.644002 317.391077 
L 358.538291 312.835188 
L 363.432581 324.090441 
L 368.326871 312.157717 
L 373.22116 333.780548 
L 378.11545 316.522039 
L 383.00974 305.157986 
L 387.904029 333.790065 
L 392.798319 318.321005 
L 397.692608 321.075569 
L 402.586898 317.875241 
L 407.481188 308.57609 
L 412.375477 338.49874 
L 417.269767 318.235981 
L 422.164057 307.601654 
L 427.058346 326.668725 
L 431.952636 317.479408 
L 436.846926 330.831884 
L 441.741215 314.968716 
L 446.635505 305.193377 
L 451.529794 337.102438 
L 456.424084 321.415257 
L 461.318374 314.820588 
L 466.212663 318.357363 
L 471.106953 314.002725 
L 476.001243 337.867435 
L 480.895532 316.964454 
L 485.789822 304.678118 
L 490.684111 329.905221 
L 495.578401 322.964165 
L 500.472691 325.086901 
L 505.36698 313.258049 
L 510.26127 309.076176 
L 515.15556 338.772699 
L 520.049849 322.119363 
L 524.944139 309.124604 
L 529.838429 320.116304 
L 534.732718 320.99235 
L 539.627008 334.251158 
L 544.521297 314.100791 
L 549.415587 305.424997 
L 554.309877 332.930923 
L 559.204166 326.684604 
L 564.098456 318.152317 
L 568.992746 312.462688 
L 573.887035 315.878658 
L 578.781325 338.077165 
L 583.675614 320.101176 
L 588.569904 306.006253 
L 593.464194 322.848923 
L 598.358483 327.539482 
L 603.252773 328.300184 
L 608.147063 310.864901 
L 613.041352 309.993439 
L 617.935642 334.742654 
L 622.829931 327.440169 
L 627.724221 312.007381 
L 632.618511 313.128554 
L 642.40709 334.822377 
L 647.30138 316.065098 
L 652.195669 306.687824 
L 657.089959 325.723254 
L 661.984249 331.869367 
L 666.878538 321.351865 
L 671.772828 308.507882 
L 676.667117 317.39361 
L 681.561407 334.593913 
L 686.455697 325.009363 
L 691.349986 308.513456 
L 696.244276 315.063997 
L 701.138566 331.171806 
L 706.032855 329.487579 
L 710.927145 311.374437 
L 715.821434 311.239387 
L 720.715724 327.777249 
L 725.610014 332.854597 
L 730.504303 315.196878 
L 735.398593 307.751288 
L 740.292883 325.862873 
L 745.187172 332.233292 
L 750.081462 320.17151 
L 754.975751 308.818167 
L 759.870041 317.525273 
L 764.764331 335.939349 
L 769.65862 323.231021 
L 774.55291 307.453834 
L 779.4472 318.587675 
L 784.341489 328.275149 
L 789.235779 330.316672 
L 794.130069 311.582181 
L 799.024358 308.562878 
L 803.918648 333.373704 
L 808.812937 328.032165 
L 813.707227 314.397523 
L 818.601517 312.934482 
L 823.495806 319.600372 
L 828.390096 337.103235 
L 833.284386 317.683794 
L 838.178675 305.22733 
L 843.072965 326.865624 
L 847.967254 326.932297 
L 852.861544 325.09188 
L 857.755834 311.586103 
L 862.650123 310.315689 
L 867.544413 338.144033 
L 872.438703 323.00874 
L 877.332992 309.281764 
L 882.227282 319.697594 
L 887.121571 320.562869 
L 892.015861 334.532774 
L 896.910151 314.466171 
L 901.80444 304.859485 
L 906.69873 333.93686 
L 911.59302 324.046285 
L 916.487309 318.763251 
L 921.381599 315.141463 
L 926.275889 312.161294 
L 931.170178 339.08817 
L 936.064468 318.645354 
L 940.958757 305.969901 
L 945.853047 327.094712 
L 950.747337 320.106423 
L 955.641626 329.158683 
L 960.535916 314.535864 
L 965.430206 305.882583 
L 970.324495 337.939066 
L 975.218785 320.535006 
L 980.113074 313.116107 
L 985.007364 320.93258 
L 989.901654 313.398383 
L 994.795943 336.153323 
L 999.690233 316.401882 
L 1004.584523 304.872414 
L 1009.478812 332.800871 
L 1014.373102 318.496956 
L 1019.267392 322.736177 
L 1024.161681 317.641607 
L 1029.055971 307.572442 
L 1033.95026 337.763912 
L 1038.84455 317.756685 
L 1043.73884 309.57551 
L 1048.633129 326.673772 
L 1053.527419 313.755096 
L 1058.421709 330.431229 
L 1063.315998 317.00285 
L 1068.210288 305.798037 
L 1073.104577 334.731285 
L 1077.998867 316.638473 
L 1082.893157 317.340667 
L 1087.787446 322.098039 
L 1092.681736 309.40086 
L 1097.576026 333.393113 
L 1102.470315 316.971689 
L 1107.364605 308.984968 
L 1112.258894 329.539653 
L 1117.153184 313.666955 
L 1122.047474 323.943947 
L 1126.941763 319.696994 
L 1131.836053 308.521046 
L 1136.730343 331.394373 
L 1141.624632 315.931845 
L 1146.518922 314.969001 
L 1151.413212 324.669052 
L 1156.307501 311.764924 
L 1161.201791 325.823431 
L 1166.09608 318.373799 
L 1170.99037 312.368402 
L 1175.88466 325.847254 
L 1180.778949 315.107566 
L 1185.673239 319.206367 
L 1190.567529 320.551146 
L 1195.461818 316.313785 
L 1195.461818 316.313785 
" style="fill:none;stroke:#00ffff;stroke-linecap:square;stroke-width:1.5;"/>
   </g>
   <g id="line2d_14">
    <path clip-path="url(#p35e7822c27)" d="M 172.8 374.822265 
L 1244.16 374.822265 
" style="fill:none;stroke:#ffcc4c;stroke-linecap:square;stroke-width:1.5;"/>
   </g>
   <g id="line2d_15">
    <path clip-path="url(#p35e7822c27)" d="M 221.498182 366.778038 
L 226.392471 369.621359 
L 231.286761 361.566749 
L 236.181051 374.136459 
L 241.07534 367.182027 
L 245.96963 360.525047 
L 250.86392 375.319308 
L 255.758209 363.33996 
L 260.652499 373.054697 
L 265.546788 369.206258 
L 270.441078 355.623483 
L 275.335368 382.319605 
L 280.229657 368.378983 
L 285.123947 362.485824 
L 290.018237 373.159489 
L 294.912526 360.501464 
L 299.806816 383.446098 
L 304.701106 368.919291 
L 309.595395 352.367241 
L 314.489685 382.668776 
L 319.383974 369.882426 
L 324.278264 372.021921 
L 329.172554 368.392599 
L 334.066843 354.850868 
L 338.961133 390.741004 
L 343.855423 372.344764 
L 348.749712 354.94132 
L 353.644002 376.03639 
L 358.538291 368.072887 
L 363.432581 385.164725 
L 373.22116 349.164374 
L 378.11545 390.035655 
L 383.00974 376.968235 
L 387.904029 365.308864 
L 392.798319 367.45697 
L 397.692608 361.39915 
L 402.586898 395.305952 
L 412.375477 348.478637 
L 417.269767 381.122691 
L 422.164057 377.970436 
L 427.058346 380.8713 
L 431.952636 363.400652 
L 436.846926 352.362613 
L 441.741215 396.728383 
L 446.635505 380.291275 
L 451.529794 356.475952 
L 456.424084 368.73136 
L 461.318374 372.374329 
L 466.212663 395.021842 
L 471.106953 367.610236 
L 476.001243 346.514734 
L 480.895532 388.021248 
L 485.789822 385.919139 
L 490.684111 372.208998 
L 495.578401 360.138838 
L 500.472691 361.51792 
L 505.36698 400.802617 
L 510.26127 378.27781 
L 515.15556 349.245341 
L 520.049849 373.116743 
L 524.944139 384.097225 
L 529.838429 389.607544 
L 534.732718 361.011835 
L 539.627008 350.746856 
L 544.521297 394.973161 
L 549.415587 388.992161 
L 554.309877 361.956868 
L 559.204166 359.635143 
L 564.098456 374.273121 
L 568.992746 400.610703 
L 573.887035 371.579857 
L 578.781325 346.735145 
L 583.675614 379.919588 
L 588.569904 392.962736 
L 593.464194 380.185356 
L 598.358483 355.102563 
L 603.252773 360.71113 
L 608.147063 399.783853 
L 613.041352 386.085197 
L 617.935642 353.495679 
L 622.829931 362.772799 
L 627.724221 387.201841 
L 632.618511 395.584574 
L 637.5128 362.498999 
L 642.40709 350.485364 
L 647.30138 387.283936 
L 652.195669 396.380686 
L 657.089959 369.227308 
L 661.984249 352.22853 
L 666.878538 374.056641 
L 671.772828 400.674951 
L 676.667117 378.044806 
L 681.561407 349.769207 
L 686.455697 368.866699 
L 691.349986 396.885901 
L 696.244276 386.615114 
L 701.138566 354.005891 
L 706.032855 359.957083 
L 710.927145 392.957075 
L 715.821434 393.415124 
L 720.715724 359.915015 
L 725.610014 353.389966 
L 730.504303 387.397148 
L 735.398593 396.944252 
L 740.292883 367.273625 
L 745.187172 352.239811 
L 750.081462 376.05841 
L 754.975751 400.86676 
L 759.870041 375.9657 
L 764.764331 348.606531 
L 769.65862 372.765258 
L 774.55291 395.09281 
L 779.4472 384.985341 
L 784.341489 355.082488 
L 789.235779 357.993561 
L 794.130069 397.368758 
L 799.024358 389.322803 
L 803.918648 356.85216 
L 808.812937 360.333056 
L 813.707227 382.066179 
L 818.601517 398.286148 
L 823.495806 366.649956 
L 828.390096 347.473289 
L 833.284386 385.504826 
L 838.178675 392.897043 
L 843.072965 373.545412 
L 847.967254 356.140063 
L 852.861544 364.223939 
L 857.755834 401.566888 
L 862.650123 379.90141 
L 867.544413 349.447778 
L 872.438703 371.625132 
L 877.332992 384.992531 
L 882.227282 390.113464 
L 887.121571 361.380278 
L 892.015861 350.159976 
L 896.910151 394.800548 
L 901.80444 386.986154 
L 906.69873 362.272268 
L 911.59302 362.465895 
L 916.487309 369.795213 
L 921.381599 399.190141 
L 926.275889 371.524496 
L 931.170178 346.43236 
L 936.064468 382.644999 
L 940.958757 383.983395 
L 945.853047 378.875623 
L 950.747337 361.459449 
L 955.641626 354.945769 
L 960.535916 398.252133 
L 965.430206 379.318434 
L 970.324495 354.008132 
L 975.218785 371.537106 
L 980.113074 372.787952 
L 985.007364 391.295019 
L 989.901654 366.725374 
L 994.795943 347.562113 
L 999.690233 389.922769 
L 1004.584523 379.599304 
L 1009.478812 367.901199 
L 1014.373102 366.101244 
L 1019.267392 359.604594 
L 1024.161681 395.101206 
L 1033.95026 350.383177 
L 1038.84455 379.681172 
L 1043.73884 372.357672 
L 1048.633129 380.57528 
L 1053.527419 366.545325 
L 1058.421709 351.327633 
L 1063.315998 390.940265 
L 1068.210288 373.742228 
L 1073.104577 360.322154 
L 1077.998867 372.441726 
L 1082.893157 362.335867 
L 1087.787446 386.517952 
L 1097.576026 351.551521 
L 1102.470315 383.031814 
L 1107.364605 369.183593 
L 1112.258894 370.68924 
L 1117.153184 369.646573 
L 1122.047474 355.907474 
L 1126.941763 384.737244 
L 1131.836053 368.965992 
L 1136.730343 358.390648 
L 1141.624632 375.933513 
L 1146.518922 362.81139 
L 1151.413212 375.378441 
L 1156.307501 368.847049 
L 1161.201791 357.100388 
L 1166.09608 377.888915 
L 1170.99037 365.702293 
L 1175.88466 365.651134 
L 1180.778949 371.074512 
L 1185.673239 361.830796 
L 1190.567529 370.910882 
L 1195.461818 366.93447 
L 1195.461818 366.93447 
" style="fill:none;stroke:#ffcc4c;stroke-linecap:square;stroke-width:1.5;"/>
   </g>
   <g id="line2d_16">
    <path clip-path="url(#p35e7822c27)" d="M 172.8 505.9313 
L 1244.16 505.9313 
" style="fill:none;stroke:#000000;stroke-linecap:square;stroke-width:1.5;"/>
   </g>
   <g id="line2d_17">
    <path clip-path="url(#p35e7822c27)" d="M 221.498182 506.549235 
L 226.392471 506.899993 
L 231.286761 507.124597 
L 236.181051 506.594167 
L 241.07534 507.812735 
L 245.96963 505.164661 
L 250.86392 506.311626 
L 255.758209 508.882366 
L 260.652499 505.781402 
L 265.546788 506.1603 
L 270.441078 505.625789 
L 275.335368 506.986149 
L 280.229657 509.483195 
L 285.123947 503.667047 
L 290.018237 504.862423 
L 294.912526 508.715937 
L 299.806816 506.963896 
L 304.701106 506.774829 
L 309.595395 502.921482 
L 314.489685 506.240868 
L 319.383974 511.211652 
L 324.278264 504.266063 
L 329.172554 503.468463 
L 334.066843 506.237568 
L 338.961133 508.118463 
L 343.855423 509.203651 
L 348.749712 501.108492 
L 353.644002 503.978589 
L 358.538291 511.206041 
L 363.432581 506.652603 
L 368.326871 503.840927 
L 373.22116 502.389325 
L 378.11545 507.596394 
L 383.00974 512.109218 
L 387.904029 501.835751 
L 392.798319 501.398201 
L 397.692608 508.503054 
L 402.586898 509.068123 
L 407.481188 506.737101 
L 412.375477 499.294742 
L 417.269767 504.902255 
L 422.164057 513.319153 
L 427.058346 505.077676 
L 431.952636 500.567231 
L 436.846926 503.745964 
L 441.741215 509.568681 
L 446.635505 510.950218 
L 451.529794 499.084551 
L 456.424084 501.080791 
L 461.318374 511.40639 
L 466.212663 508.995082 
L 471.106953 502.92016 
L 476.001243 499.037715 
L 480.895532 507.246759 
L 485.789822 513.979495 
L 490.684111 502.350918 
L 495.578401 498.402119 
L 500.472691 506.570216 
L 505.36698 511.176974 
L 510.26127 507.80224 
L 515.15556 497.007151 
L 520.049849 502.762522 
L 524.944139 513.774919 
L 529.838429 507.469169 
L 534.732718 499.07956 
L 539.627008 500.64949 
L 544.521297 510.115926 
L 549.415587 512.622283 
L 554.309877 499.168555 
L 559.204166 498.280852 
L 564.098456 509.912236 
L 568.992746 511.60662 
L 573.887035 503.451151 
L 578.781325 496.506258 
L 583.675614 505.913445 
L 588.569904 514.651648 
L 593.464194 504.613525 
L 598.358483 496.575939 
L 603.252773 503.732235 
L 608.147063 512.506712 
L 613.041352 509.344576 
L 617.935642 496.581888 
L 622.829931 500.334242 
L 627.724221 512.669448 
L 632.618511 510.429611 
L 637.5128 499.17194 
L 642.40709 497.940257 
L 647.30138 509.559973 
L 652.195669 513.555599 
L 657.089959 501.131049 
L 661.984249 496.287162 
L 666.878538 507.351364 
L 671.772828 513.605353 
L 676.667117 504.903483 
L 681.561407 495.556978 
L 686.455697 503.945013 
L 691.349986 513.962804 
L 696.244276 507.759461 
L 701.138566 496.282506 
L 706.032855 500.935761 
L 710.927145 512.662394 
L 715.821434 510.60728 
L 720.715724 498.101755 
L 725.610014 498.300508 
L 730.504303 510.432276 
L 735.398593 512.98947 
L 740.292883 500.514892 
L 745.187172 496.515208 
L 750.081462 508.069936 
L 754.975751 513.372673 
L 759.870041 504.290597 
L 764.764331 495.641387 
L 769.65862 504.568809 
L 774.55291 514.401803 
L 779.4472 506.526371 
L 784.341489 496.54658 
L 789.235779 501.952961 
L 794.130069 512.13759 
L 799.024358 510.772441 
L 803.918648 497.446435 
L 808.812937 499.129644 
L 813.707227 511.623398 
L 818.601517 511.038885 
L 823.495806 501.111185 
L 828.390096 497.330736 
L 833.284386 507.773459 
L 838.178675 514.369961 
L 843.072965 502.457611 
L 847.967254 496.953342 
L 852.861544 506.148781 
L 857.755834 512.08907 
L 862.650123 507.643071 
L 867.544413 496.536759 
L 872.438703 502.499228 
L 877.332992 513.772602 
L 882.227282 507.650866 
L 887.121571 499.272883 
L 892.015861 500.67524 
L 896.910151 509.728884 
L 901.80444 512.698994 
L 906.69873 499.602142 
L 911.59302 499.05123 
L 916.487309 509.755286 
L 921.381599 510.44863 
L 926.275889 504.685726 
L 931.170178 497.870833 
L 936.064468 505.564689 
L 940.958757 514.125756 
L 945.853047 504.290936 
L 950.747337 499.306695 
L 955.641626 504.548314 
L 960.535916 510.0821 
L 965.430206 510.09045 
L 970.324495 498.760974 
L 975.218785 501.97189 
L 980.113074 511.915193 
L 985.007364 507.900219 
L 989.901654 502.952532 
L 994.795943 500.775166 
L 999.690233 507.510211 
L 1004.584523 512.849585 
L 1009.478812 502.096349 
L 1014.373102 500.980033 
L 1019.267392 507.774278 
L 1024.161681 509.025469 
L 1029.055971 507.626397 
L 1033.95026 500.008659 
L 1038.84455 504.667855 
L 1043.73884 512.242582 
L 1048.633129 505.504764 
L 1053.527419 502.971185 
L 1058.421709 504.104761 
L 1063.315998 508.002638 
L 1068.210288 510.676079 
L 1073.104577 501.828058 
L 1077.998867 503.447053 
L 1082.893157 509.453229 
L 1087.787446 507.2868 
L 1092.681736 506.322959 
L 1097.576026 502.671179 
L 1102.470315 506.332274 
L 1107.364605 510.925873 
L 1112.258894 504.394596 
L 1117.153184 504.488844 
L 1122.047474 506.633327 
L 1126.941763 507.304515 
L 1131.836053 508.658332 
L 1136.730343 503.566264 
L 1141.624632 505.671452 
L 1146.518922 509.141571 
L 1151.413212 506.045495 
L 1156.307501 506.582211 
L 1161.201791 505.595502 
L 1166.09608 506.71331 
L 1170.99037 508.607322 
L 1175.88466 505.473538 
L 1180.778949 506.576442 
L 1185.673239 507.28888 
L 1190.567529 506.563602 
L 1195.461818 507.242639 
L 1195.461818 507.242639 
" style="fill:none;stroke:#000000;stroke-linecap:square;stroke-width:1.5;"/>
   </g>
   <g id="line2d_18">
    <path clip-path="url(#p35e7822c27)" d="M 172.8 606.168883 
L 1244.16 606.168883 
" style="fill:none;stroke:#ff33ff;stroke-linecap:square;stroke-width:1.5;"/>
   </g>
   <g id="line2d_19">
    <path clip-path="url(#p35e7822c27)" d="M 221.498182 605.326994 
L 226.392471 609.247784 
L 231.286761 610.688116 
L 236.181051 602.396029 
L 241.07534 614.325823 
L 245.96963 600.805171 
L 250.86392 606.472917 
L 255.758209 618.229927 
L 260.652499 595.939206 
L 265.546788 610.365853 
L 270.441078 607.202803 
L 275.335368 603.213058 
L 280.229657 619.520387 
L 285.123947 591.646881 
L 290.018237 606.472712 
L 294.912526 619.134572 
L 299.806816 596.54136 
L 304.701106 612.107694 
L 309.595395 597.182694 
L 314.489685 605.789397 
L 319.383974 624.497903 
L 324.278264 587.707447 
L 329.172554 604.886344 
L 334.066843 612.884789 
L 338.961133 602.12046 
L 343.855423 616.877424 
L 348.749712 586.616751 
L 353.644002 605.179656 
L 358.538291 626.06985 
L 363.432581 591.384515 
L 368.326871 604.519085 
L 373.22116 600.558932 
L 378.11545 607.174914 
L 383.00974 623.754251 
L 387.904029 581.686867 
L 397.692608 620.791641 
L 402.586898 600.262212 
L 407.481188 608.496702 
L 412.375477 586.93498 
L 417.269767 607.233358 
L 422.164057 628.702081 
L 427.058346 585.616899 
L 431.952636 597.288877 
L 436.846926 608.212433 
L 441.741215 608.727492 
L 446.635505 616.774997 
L 451.529794 578.638259 
L 456.424084 601.55326 
L 461.318374 627.168588 
L 466.212663 596.569943 
L 471.106953 598.252832 
L 476.001243 592.209134 
L 480.895532 611.346333 
L 485.789822 625.465789 
L 490.684111 580.266304 
L 495.578401 593.815226 
L 500.472691 617.131342 
L 505.36698 608.689821 
L 510.26127 605.689282 
L 515.15556 579.723275 
L 520.049849 606.024432 
L 524.944139 629.1432 
L 529.838429 591.29608 
L 534.732718 589.903037 
L 539.627008 600.979552 
L 544.521297 615.380687 
L 549.415587 616.656913 
L 554.309877 577.027155 
L 559.204166 595.533928 
L 564.098456 624.086806 
L 568.992746 606.192817 
L 573.887035 593.732236 
L 578.781325 585.213867 
L 583.675614 612.763264 
L 588.569904 625.348468 
L 593.464194 585.717949 
L 598.358483 586.285344 
L 603.252773 610.671069 
L 608.147063 617.452484 
L 613.041352 604.273304 
L 617.935642 577.396387 
L 627.724221 626.50991 
L 632.618511 601.500131 
L 637.5128 584.369857 
L 642.40709 593.992611 
L 647.30138 619.367036 
L 652.195669 616.202 
L 657.089959 581.642256 
L 661.984249 588.550184 
L 666.878538 618.312425 
L 671.772828 616.596933 
L 676.667117 591.434464 
L 681.561407 581.903239 
L 686.455697 610.781263 
L 691.349986 623.235365 
L 696.244276 595.874277 
L 701.138566 580.267033 
L 706.032855 603.719483 
L 710.927145 623.765643 
L 715.821434 603.733076 
L 720.715724 580.702443 
L 725.610014 595.928432 
L 730.504303 621.514099 
L 735.398593 613.00317 
L 740.292883 581.494859 
L 745.187172 589.667997 
L 750.081462 619.609229 
L 754.975751 614.805722 
L 759.870041 591.140885 
L 764.764331 582.45895 
L 769.65862 611.590552 
L 774.55291 624.858172 
L 779.4472 591.024386 
L 784.341489 583.614497 
L 789.235779 606.163665 
L 794.130069 619.248067 
L 799.024358 607.888543 
L 803.918648 577.028975 
L 808.812937 598.553658 
L 813.707227 626.084652 
L 818.601517 603.308561 
L 823.495806 589.013612 
L 828.390096 590.065942 
L 833.284386 615.342751 
L 838.178675 622.743979 
L 843.072965 581.35879 
L 847.967254 589.710073 
L 852.861544 616.401565 
L 857.755834 612.170114 
L 862.650123 603.07414 
L 867.544413 578.995351 
L 872.438703 605.915957 
L 877.332992 628.945111 
L 882.227282 591.830344 
L 887.121571 590.346108 
L 892.015861 600.678906 
L 896.910151 614.068238 
L 901.80444 618.592678 
L 906.69873 577.22854 
L 911.59302 597.053187 
L 916.487309 624.144715 
L 921.381599 602.465244 
L 926.275889 600.312438 
L 931.170178 586.413902 
L 936.064468 609.631882 
L 940.958757 628.181066 
L 945.853047 583.619952 
L 950.747337 594.637473 
L 955.641626 611.229837 
L 960.535916 608.572177 
L 965.430206 614.206077 
L 970.324495 579.495027 
L 975.218785 603.18336 
L 980.113074 627.927807 
L 985.007364 593.30903 
L 989.901654 600.523089 
L 994.795943 596.705666 
L 999.690233 608.970522 
L 1004.584523 624.888029 
L 1009.478812 581.110792 
L 1019.267392 618.951626 
L 1024.161681 601.256544 
L 1029.055971 611.310214 
L 1033.95026 587.033004 
L 1038.84455 606.191509 
L 1043.73884 627.5499 
L 1048.633129 588.052252 
L 1053.527419 603.268271 
L 1058.421709 606.523763 
L 1063.315998 605.048083 
L 1068.210288 620.753266 
L 1073.104577 585.087483 
L 1077.998867 604.559453 
L 1082.893157 622.025353 
L 1087.787446 595.664859 
L 1092.681736 610.704304 
L 1097.576026 597.02155 
L 1102.470315 605.738759 
L 1107.364605 623.791329 
L 1112.258894 589.334513 
L 1117.153184 606.821503 
L 1122.047474 612.612721 
L 1126.941763 600.970705 
L 1131.836053 617.072372 
L 1136.730343 594.393857 
L 1141.624632 606.439061 
L 1146.518922 619.492146 
L 1151.413212 596.088046 
L 1156.307501 611.416947 
L 1161.201791 605.660955 
L 1166.09608 604.170931 
L 1170.99037 616.936764 
L 1175.88466 599.045852 
L 1180.778949 608.823276 
L 1185.673239 611.424148 
L 1190.567529 603.805493 
L 1195.461818 610.505877 
L 1195.461818 610.505877 
" style="fill:none;stroke:#ff33ff;stroke-linecap:square;stroke-width:1.5;"/>
   </g>
   <g id="line2d_20">
    <path clip-path="url(#p35e7822c27)" d="M 172.8 362.250704 
L 1244.16 362.250704 
" style="fill:none;stroke:#ff0000;stroke-linecap:square;stroke-width:1.5;"/>
   </g>
   <g id="patch_3">
    <path d="M 172.8 654.8976 
L 172.8 88.3008 
" style="fill:none;stroke:#000000;stroke-linecap:square;stroke-linejoin:miter;stroke-width:0.8;"/>
   </g>
   <g id="patch_4">
    <path d="M 1244.16 654.8976 
L 1244.16 88.3008 
" style="fill:none;stroke:#000000;stroke-linecap:square;stroke-linejoin:miter;stroke-width:0.8;"/>
   </g>
   <g id="patch_5">
    <path d="M 172.8 654.8976 
L 1244.16 654.8976 
" style="fill:none;stroke:#000000;stroke-linecap:square;stroke-linejoin:miter;stroke-width:0.8;"/>
   </g>
   <g id="patch_6">
    <path d="M 172.8 88.3008 
L 1244.16 88.3008 
" style="fill:none;stroke:#000000;stroke-linecap:square;stroke-linejoin:miter;stroke-width:0.8;"/>
   </g>
   <g id="text_10">
    <!-- Spherical Mean for a single microstructure configuration at all orientations -->
    <defs>
     <path d="M 45.40625 27.984375 
Q 45.40625 37.75 41.375 43.109375 
Q 37.359375 48.484375 30.078125 48.484375 
Q 22.859375 48.484375 18.828125 43.109375 
Q 14.796875 37.75 14.796875 27.984375 
Q 14.796875 18.265625 18.828125 12.890625 
Q 22.859375 7.515625 30.078125 7.515625 
Q 37.359375 7.515625 41.375 12.890625 
Q 45.40625 18.265625 45.40625 27.984375 
z
M 54.390625 6.78125 
Q 54.390625 -7.171875 48.1875 -13.984375 
Q 42 -20.796875 29.203125 -20.796875 
Q 24.46875 -20.796875 20.265625 -20.09375 
Q 16.0625 -19.390625 12.109375 -17.921875 
L 12.109375 -9.1875 
Q 16.0625 -11.328125 19.921875 -12.34375 
Q 23.78125 -13.375 27.78125 -13.375 
Q 36.625 -13.375 41.015625 -8.765625 
Q 45.40625 -4.15625 45.40625 5.171875 
L 45.40625 9.625 
Q 42.625 4.78125 38.28125 2.390625 
Q 33.9375 0 27.875 0 
Q 17.828125 0 11.671875 7.65625 
Q 5.515625 15.328125 5.515625 27.984375 
Q 5.515625 40.671875 11.671875 48.328125 
Q 17.828125 56 27.875 56 
Q 33.9375 56 38.28125 53.609375 
Q 42.625 51.21875 45.40625 46.390625 
L 45.40625 54.6875 
L 54.390625 54.6875 
z
" id="DejaVuSans-67"/>
     <path d="M 52 44.1875 
Q 55.375 50.25 60.0625 53.125 
Q 64.75 56 71.09375 56 
Q 79.640625 56 84.28125 50.015625 
Q 88.921875 44.046875 88.921875 33.015625 
L 88.921875 0 
L 79.890625 0 
L 79.890625 32.71875 
Q 79.890625 40.578125 77.09375 44.375 
Q 74.3125 48.1875 68.609375 48.1875 
Q 61.625 48.1875 57.5625 43.546875 
Q 53.515625 38.921875 53.515625 30.90625 
L 53.515625 0 
L 44.484375 0 
L 44.484375 32.71875 
Q 44.484375 40.625 41.703125 44.40625 
Q 38.921875 48.1875 33.109375 48.1875 
Q 26.21875 48.1875 22.15625 43.53125 
Q 18.109375 38.875 18.109375 30.90625 
L 18.109375 0 
L 9.078125 0 
L 9.078125 54.6875 
L 18.109375 54.6875 
L 18.109375 46.1875 
Q 21.1875 51.21875 25.484375 53.609375 
Q 29.78125 56 35.6875 56 
Q 41.65625 56 45.828125 52.96875 
Q 50 49.953125 52 44.1875 
z
" id="DejaVuSans-6d"/>
    </defs>
    <g transform="translate(260.124375 82.3008)scale(0.24 -0.24)">
     <use xlink:href="#DejaVuSans-53"/>
     <use x="63.476562" xlink:href="#DejaVuSans-70"/>
     <use x="126.953125" xlink:href="#DejaVuSans-68"/>
     <use x="190.332031" xlink:href="#DejaVuSans-65"/>
     <use x="251.855469" xlink:href="#DejaVuSans-72"/>
     <use x="292.96875" xlink:href="#DejaVuSans-69"/>
     <use x="320.751953" xlink:href="#DejaVuSans-63"/>
     <use x="375.732422" xlink:href="#DejaVuSans-61"/>
     <use x="437.011719" xlink:href="#DejaVuSans-6c"/>
     <use x="464.794922" xlink:href="#DejaVuSans-20"/>
     <use x="496.582031" xlink:href="#DejaVuSans-4d"/>
     <use x="582.861328" xlink:href="#DejaVuSans-65"/>
     <use x="644.384766" xlink:href="#DejaVuSans-61"/>
     <use x="705.664062" xlink:href="#DejaVuSans-6e"/>
     <use x="769.042969" xlink:href="#DejaVuSans-20"/>
     <use x="800.830078" xlink:href="#DejaVuSans-66"/>
     <use x="836.035156" xlink:href="#DejaVuSans-6f"/>
     <use x="897.216797" xlink:href="#DejaVuSans-72"/>
     <use x="938.330078" xlink:href="#DejaVuSans-20"/>
     <use x="970.117188" xlink:href="#DejaVuSans-61"/>
     <use x="1031.396484" xlink:href="#DejaVuSans-20"/>
     <use x="1063.183594" xlink:href="#DejaVuSans-73"/>
     <use x="1115.283203" xlink:href="#DejaVuSans-69"/>
     <use x="1143.066406" xlink:href="#DejaVuSans-6e"/>
     <use x="1206.445312" xlink:href="#DejaVuSans-67"/>
     <use x="1269.921875" xlink:href="#DejaVuSans-6c"/>
     <use x="1297.705078" xlink:href="#DejaVuSans-65"/>
     <use x="1359.228516" xlink:href="#DejaVuSans-20"/>
     <use x="1391.015625" xlink:href="#DejaVuSans-6d"/>
     <use x="1488.427734" xlink:href="#DejaVuSans-69"/>
     <use x="1516.210938" xlink:href="#DejaVuSans-63"/>
     <use x="1571.191406" xlink:href="#DejaVuSans-72"/>
     <use x="1612.273438" xlink:href="#DejaVuSans-6f"/>
     <use x="1673.455078" xlink:href="#DejaVuSans-73"/>
     <use x="1725.554688" xlink:href="#DejaVuSans-74"/>
     <use x="1764.763672" xlink:href="#DejaVuSans-72"/>
     <use x="1805.876953" xlink:href="#DejaVuSans-75"/>
     <use x="1869.255859" xlink:href="#DejaVuSans-63"/>
     <use x="1924.236328" xlink:href="#DejaVuSans-74"/>
     <use x="1963.445312" xlink:href="#DejaVuSans-75"/>
     <use x="2026.824219" xlink:href="#DejaVuSans-72"/>
     <use x="2067.90625" xlink:href="#DejaVuSans-65"/>
     <use x="2129.429688" xlink:href="#DejaVuSans-20"/>
     <use x="2161.216797" xlink:href="#DejaVuSans-63"/>
     <use x="2216.197266" xlink:href="#DejaVuSans-6f"/>
     <use x="2277.378906" xlink:href="#DejaVuSans-6e"/>
     <use x="2340.757812" xlink:href="#DejaVuSans-66"/>
     <use x="2375.962891" xlink:href="#DejaVuSans-69"/>
     <use x="2403.746094" xlink:href="#DejaVuSans-67"/>
     <use x="2467.222656" xlink:href="#DejaVuSans-75"/>
     <use x="2530.601562" xlink:href="#DejaVuSans-72"/>
     <use x="2571.714844" xlink:href="#DejaVuSans-61"/>
     <use x="2632.994141" xlink:href="#DejaVuSans-74"/>
     <use x="2672.203125" xlink:href="#DejaVuSans-69"/>
     <use x="2699.986328" xlink:href="#DejaVuSans-6f"/>
     <use x="2761.167969" xlink:href="#DejaVuSans-6e"/>
     <use x="2824.546875" xlink:href="#DejaVuSans-20"/>
     <use x="2856.333984" xlink:href="#DejaVuSans-61"/>
     <use x="2917.613281" xlink:href="#DejaVuSans-74"/>
     <use x="2956.822266" xlink:href="#DejaVuSans-20"/>
     <use x="2988.609375" xlink:href="#DejaVuSans-61"/>
     <use x="3049.888672" xlink:href="#DejaVuSans-6c"/>
     <use x="3077.671875" xlink:href="#DejaVuSans-6c"/>
     <use x="3105.455078" xlink:href="#DejaVuSans-20"/>
     <use x="3137.242188" xlink:href="#DejaVuSans-6f"/>
     <use x="3198.423828" xlink:href="#DejaVuSans-72"/>
     <use x="3239.537109" xlink:href="#DejaVuSans-69"/>
     <use x="3267.320312" xlink:href="#DejaVuSans-65"/>
     <use x="3328.84375" xlink:href="#DejaVuSans-6e"/>
     <use x="3392.222656" xlink:href="#DejaVuSans-74"/>
     <use x="3431.431641" xlink:href="#DejaVuSans-61"/>
     <use x="3492.710938" xlink:href="#DejaVuSans-74"/>
     <use x="3531.919922" xlink:href="#DejaVuSans-69"/>
     <use x="3559.703125" xlink:href="#DejaVuSans-6f"/>
     <use x="3620.884766" xlink:href="#DejaVuSans-6e"/>
     <use x="3684.263672" xlink:href="#DejaVuSans-73"/>
    </g>
   </g>
   <g id="legend_1">
    <g id="patch_7">
     <path d="M 186.8 644.8976 
L 727.971875 644.8976 
Q 731.971875 644.8976 731.971875 640.8976 
L 731.971875 437.40385 
Q 731.971875 433.40385 727.971875 433.40385 
L 186.8 433.40385 
Q 182.8 433.40385 182.8 437.40385 
L 182.8 640.8976 
Q 182.8 644.8976 186.8 644.8976 
z
" style="fill:#ffffff;opacity:0.8;stroke:#cccccc;stroke-linejoin:miter;"/>
    </g>
    <g id="line2d_21">
     <path d="M 190.8 449.600725 
L 230.8 449.600725 
" style="fill:none;stroke:#00ff00;stroke-linecap:square;stroke-width:1.5;"/>
    </g>
    <g id="line2d_22"/>
    <g id="text_11">
     <!-- GNL score = 0.12 (better than 5.5% of voxels) -->
     <defs>
      <path d="M 59.515625 10.40625 
L 59.515625 29.984375 
L 43.40625 29.984375 
L 43.40625 38.09375 
L 69.28125 38.09375 
L 69.28125 6.78125 
Q 63.578125 2.734375 56.6875 0.65625 
Q 49.8125 -1.421875 42 -1.421875 
Q 24.90625 -1.421875 15.25 8.5625 
Q 5.609375 18.5625 5.609375 36.375 
Q 5.609375 54.25 15.25 64.234375 
Q 24.90625 74.21875 42 74.21875 
Q 49.125 74.21875 55.546875 72.453125 
Q 61.96875 70.703125 67.390625 67.28125 
L 67.390625 56.78125 
Q 61.921875 61.421875 55.765625 63.765625 
Q 49.609375 66.109375 42.828125 66.109375 
Q 29.4375 66.109375 22.71875 58.640625 
Q 16.015625 51.171875 16.015625 36.375 
Q 16.015625 21.625 22.71875 14.15625 
Q 29.4375 6.6875 42.828125 6.6875 
Q 48.046875 6.6875 52.140625 7.59375 
Q 56.25 8.5 59.515625 10.40625 
z
" id="DejaVuSans-47"/>
      <path d="M 9.8125 72.90625 
L 23.09375 72.90625 
L 55.421875 11.921875 
L 55.421875 72.90625 
L 64.984375 72.90625 
L 64.984375 0 
L 51.703125 0 
L 19.390625 60.984375 
L 19.390625 0 
L 9.8125 0 
z
" id="DejaVuSans-4e"/>
      <path d="M 9.8125 72.90625 
L 19.671875 72.90625 
L 19.671875 8.296875 
L 55.171875 8.296875 
L 55.171875 0 
L 9.8125 0 
z
" id="DejaVuSans-4c"/>
      <path d="M 10.59375 45.40625 
L 73.1875 45.40625 
L 73.1875 37.203125 
L 10.59375 37.203125 
z
M 10.59375 25.484375 
L 73.1875 25.484375 
L 73.1875 17.1875 
L 10.59375 17.1875 
z
" id="DejaVuSans-3d"/>
      <path d="M 31 75.875 
Q 24.46875 64.65625 21.28125 53.65625 
Q 18.109375 42.671875 18.109375 31.390625 
Q 18.109375 20.125 21.3125 9.0625 
Q 24.515625 -2 31 -13.1875 
L 23.1875 -13.1875 
Q 15.875 -1.703125 12.234375 9.375 
Q 8.59375 20.453125 8.59375 31.390625 
Q 8.59375 42.28125 12.203125 53.3125 
Q 15.828125 64.359375 23.1875 75.875 
z
" id="DejaVuSans-28"/>
      <path d="M 48.6875 27.296875 
Q 48.6875 37.203125 44.609375 42.84375 
Q 40.53125 48.484375 33.40625 48.484375 
Q 26.265625 48.484375 22.1875 42.84375 
Q 18.109375 37.203125 18.109375 27.296875 
Q 18.109375 17.390625 22.1875 11.75 
Q 26.265625 6.109375 33.40625 6.109375 
Q 40.53125 6.109375 44.609375 11.75 
Q 48.6875 17.390625 48.6875 27.296875 
z
M 18.109375 46.390625 
Q 20.953125 51.265625 25.265625 53.625 
Q 29.59375 56 35.59375 56 
Q 45.5625 56 51.78125 48.09375 
Q 58.015625 40.1875 58.015625 27.296875 
Q 58.015625 14.40625 51.78125 6.484375 
Q 45.5625 -1.421875 35.59375 -1.421875 
Q 29.59375 -1.421875 25.265625 0.953125 
Q 20.953125 3.328125 18.109375 8.203125 
L 18.109375 0 
L 9.078125 0 
L 9.078125 75.984375 
L 18.109375 75.984375 
z
" id="DejaVuSans-62"/>
      <path d="M 10.796875 72.90625 
L 49.515625 72.90625 
L 49.515625 64.59375 
L 19.828125 64.59375 
L 19.828125 46.734375 
Q 21.96875 47.46875 24.109375 47.828125 
Q 26.265625 48.1875 28.421875 48.1875 
Q 40.625 48.1875 47.75 41.5 
Q 54.890625 34.8125 54.890625 23.390625 
Q 54.890625 11.625 47.5625 5.09375 
Q 40.234375 -1.421875 26.90625 -1.421875 
Q 22.3125 -1.421875 17.546875 -0.640625 
Q 12.796875 0.140625 7.71875 1.703125 
L 7.71875 11.625 
Q 12.109375 9.234375 16.796875 8.0625 
Q 21.484375 6.890625 26.703125 6.890625 
Q 35.15625 6.890625 40.078125 11.328125 
Q 45.015625 15.765625 45.015625 23.390625 
Q 45.015625 31 40.078125 35.4375 
Q 35.15625 39.890625 26.703125 39.890625 
Q 22.75 39.890625 18.8125 39.015625 
Q 14.890625 38.140625 10.796875 36.28125 
z
" id="DejaVuSans-35"/>
      <path d="M 72.703125 32.078125 
Q 68.453125 32.078125 66.03125 28.46875 
Q 63.625 24.859375 63.625 18.40625 
Q 63.625 12.0625 66.03125 8.421875 
Q 68.453125 4.78125 72.703125 4.78125 
Q 76.859375 4.78125 79.265625 8.421875 
Q 81.6875 12.0625 81.6875 18.40625 
Q 81.6875 24.8125 79.265625 28.4375 
Q 76.859375 32.078125 72.703125 32.078125 
z
M 72.703125 38.28125 
Q 80.421875 38.28125 84.953125 32.90625 
Q 89.5 27.546875 89.5 18.40625 
Q 89.5 9.28125 84.9375 3.921875 
Q 80.375 -1.421875 72.703125 -1.421875 
Q 64.890625 -1.421875 60.34375 3.921875 
Q 55.8125 9.28125 55.8125 18.40625 
Q 55.8125 27.59375 60.375 32.9375 
Q 64.9375 38.28125 72.703125 38.28125 
z
M 22.3125 68.015625 
Q 18.109375 68.015625 15.6875 64.375 
Q 13.28125 60.75 13.28125 54.390625 
Q 13.28125 47.953125 15.671875 44.328125 
Q 18.0625 40.71875 22.3125 40.71875 
Q 26.5625 40.71875 28.96875 44.328125 
Q 31.390625 47.953125 31.390625 54.390625 
Q 31.390625 60.6875 28.953125 64.34375 
Q 26.515625 68.015625 22.3125 68.015625 
z
M 66.40625 74.21875 
L 74.21875 74.21875 
L 28.609375 -1.421875 
L 20.796875 -1.421875 
z
M 22.3125 74.21875 
Q 30.03125 74.21875 34.609375 68.875 
Q 39.203125 63.53125 39.203125 54.390625 
Q 39.203125 45.171875 34.640625 39.84375 
Q 30.078125 34.515625 22.3125 34.515625 
Q 14.546875 34.515625 10.03125 39.859375 
Q 5.515625 45.21875 5.515625 54.390625 
Q 5.515625 63.484375 10.046875 68.84375 
Q 14.59375 74.21875 22.3125 74.21875 
z
" id="DejaVuSans-25"/>
      <path d="M 2.984375 54.6875 
L 12.5 54.6875 
L 29.59375 8.796875 
L 46.6875 54.6875 
L 56.203125 54.6875 
L 35.6875 0 
L 23.484375 0 
z
" id="DejaVuSans-76"/>
      <path d="M 54.890625 54.6875 
L 35.109375 28.078125 
L 55.90625 0 
L 45.3125 0 
L 29.390625 21.484375 
L 13.484375 0 
L 2.875 0 
L 24.125 28.609375 
L 4.6875 54.6875 
L 15.28125 54.6875 
L 29.78125 35.203125 
L 44.28125 54.6875 
z
" id="DejaVuSans-78"/>
      <path d="M 8.015625 75.875 
L 15.828125 75.875 
Q 23.140625 64.359375 26.78125 53.3125 
Q 30.421875 42.28125 30.421875 31.390625 
Q 30.421875 20.453125 26.78125 9.375 
Q 23.140625 -1.703125 15.828125 -13.1875 
L 8.015625 -13.1875 
Q 14.5 -2 17.703125 9.0625 
Q 20.90625 20.125 20.90625 31.390625 
Q 20.90625 42.671875 17.703125 53.65625 
Q 14.5 64.65625 8.015625 75.875 
z
" id="DejaVuSans-29"/>
     </defs>
     <g transform="translate(246.8 456.600725)scale(0.2 -0.2)">
      <use xlink:href="#DejaVuSans-47"/>
      <use x="77.490234" xlink:href="#DejaVuSans-4e"/>
      <use x="152.294922" xlink:href="#DejaVuSans-4c"/>
      <use x="208.007812" xlink:href="#DejaVuSans-20"/>
      <use x="239.794922" xlink:href="#DejaVuSans-73"/>
      <use x="291.894531" xlink:href="#DejaVuSans-63"/>
      <use x="346.875" xlink:href="#DejaVuSans-6f"/>
      <use x="408.056641" xlink:href="#DejaVuSans-72"/>
      <use x="449.138672" xlink:href="#DejaVuSans-65"/>
      <use x="510.662109" xlink:href="#DejaVuSans-20"/>
      <use x="542.449219" xlink:href="#DejaVuSans-3d"/>
      <use x="626.238281" xlink:href="#DejaVuSans-20"/>
      <use x="658.025391" xlink:href="#DejaVuSans-30"/>
      <use x="721.648438" xlink:href="#DejaVuSans-2e"/>
      <use x="753.435547" xlink:href="#DejaVuSans-31"/>
      <use x="817.058594" xlink:href="#DejaVuSans-32"/>
      <use x="880.681641" xlink:href="#DejaVuSans-20"/>
      <use x="912.46875" xlink:href="#DejaVuSans-28"/>
      <use x="951.482422" xlink:href="#DejaVuSans-62"/>
      <use x="1014.958984" xlink:href="#DejaVuSans-65"/>
      <use x="1076.482422" xlink:href="#DejaVuSans-74"/>
      <use x="1115.691406" xlink:href="#DejaVuSans-74"/>
      <use x="1154.900391" xlink:href="#DejaVuSans-65"/>
      <use x="1216.423828" xlink:href="#DejaVuSans-72"/>
      <use x="1257.537109" xlink:href="#DejaVuSans-20"/>
      <use x="1289.324219" xlink:href="#DejaVuSans-74"/>
      <use x="1328.533203" xlink:href="#DejaVuSans-68"/>
      <use x="1391.912109" xlink:href="#DejaVuSans-61"/>
      <use x="1453.191406" xlink:href="#DejaVuSans-6e"/>
      <use x="1516.570312" xlink:href="#DejaVuSans-20"/>
      <use x="1548.357422" xlink:href="#DejaVuSans-35"/>
      <use x="1611.980469" xlink:href="#DejaVuSans-2e"/>
      <use x="1643.767578" xlink:href="#DejaVuSans-35"/>
      <use x="1707.390625" xlink:href="#DejaVuSans-25"/>
      <use x="1802.410156" xlink:href="#DejaVuSans-20"/>
      <use x="1834.197266" xlink:href="#DejaVuSans-6f"/>
      <use x="1895.378906" xlink:href="#DejaVuSans-66"/>
      <use x="1930.583984" xlink:href="#DejaVuSans-20"/>
      <use x="1962.371094" xlink:href="#DejaVuSans-76"/>
      <use x="2021.550781" xlink:href="#DejaVuSans-6f"/>
      <use x="2082.685547" xlink:href="#DejaVuSans-78"/>
      <use x="2141.818359" xlink:href="#DejaVuSans-65"/>
      <use x="2203.341797" xlink:href="#DejaVuSans-6c"/>
      <use x="2231.125" xlink:href="#DejaVuSans-73"/>
      <use x="2283.224609" xlink:href="#DejaVuSans-29"/>
     </g>
    </g>
    <g id="line2d_23">
     <path d="M 190.8 478.956975 
L 230.8 478.956975 
" style="fill:none;stroke:#0000ff;stroke-linecap:square;stroke-width:1.5;"/>
    </g>
    <g id="line2d_24"/>
    <g id="text_12">
     <!-- GNL score = 0.07 (better than 22.5% of voxels) -->
     <defs>
      <path d="M 8.203125 72.90625 
L 55.078125 72.90625 
L 55.078125 68.703125 
L 28.609375 0 
L 18.3125 0 
L 43.21875 64.59375 
L 8.203125 64.59375 
z
" id="DejaVuSans-37"/>
     </defs>
     <g transform="translate(246.8 485.956975)scale(0.2 -0.2)">
      <use xlink:href="#DejaVuSans-47"/>
      <use x="77.490234" xlink:href="#DejaVuSans-4e"/>
      <use x="152.294922" xlink:href="#DejaVuSans-4c"/>
      <use x="208.007812" xlink:href="#DejaVuSans-20"/>
      <use x="239.794922" xlink:href="#DejaVuSans-73"/>
      <use x="291.894531" xlink:href="#DejaVuSans-63"/>
      <use x="346.875" xlink:href="#DejaVuSans-6f"/>
      <use x="408.056641" xlink:href="#DejaVuSans-72"/>
      <use x="449.138672" xlink:href="#DejaVuSans-65"/>
      <use x="510.662109" xlink:href="#DejaVuSans-20"/>
      <use x="542.449219" xlink:href="#DejaVuSans-3d"/>
      <use x="626.238281" xlink:href="#DejaVuSans-20"/>
      <use x="658.025391" xlink:href="#DejaVuSans-30"/>
      <use x="721.648438" xlink:href="#DejaVuSans-2e"/>
      <use x="753.435547" xlink:href="#DejaVuSans-30"/>
      <use x="817.058594" xlink:href="#DejaVuSans-37"/>
      <use x="880.681641" xlink:href="#DejaVuSans-20"/>
      <use x="912.46875" xlink:href="#DejaVuSans-28"/>
      <use x="951.482422" xlink:href="#DejaVuSans-62"/>
      <use x="1014.958984" xlink:href="#DejaVuSans-65"/>
      <use x="1076.482422" xlink:href="#DejaVuSans-74"/>
      <use x="1115.691406" xlink:href="#DejaVuSans-74"/>
      <use x="1154.900391" xlink:href="#DejaVuSans-65"/>
      <use x="1216.423828" xlink:href="#DejaVuSans-72"/>
      <use x="1257.537109" xlink:href="#DejaVuSans-20"/>
      <use x="1289.324219" xlink:href="#DejaVuSans-74"/>
      <use x="1328.533203" xlink:href="#DejaVuSans-68"/>
      <use x="1391.912109" xlink:href="#DejaVuSans-61"/>
      <use x="1453.191406" xlink:href="#DejaVuSans-6e"/>
      <use x="1516.570312" xlink:href="#DejaVuSans-20"/>
      <use x="1548.357422" xlink:href="#DejaVuSans-32"/>
      <use x="1611.980469" xlink:href="#DejaVuSans-32"/>
      <use x="1675.603516" xlink:href="#DejaVuSans-2e"/>
      <use x="1707.390625" xlink:href="#DejaVuSans-35"/>
      <use x="1771.013672" xlink:href="#DejaVuSans-25"/>
      <use x="1866.033203" xlink:href="#DejaVuSans-20"/>
      <use x="1897.820312" xlink:href="#DejaVuSans-6f"/>
      <use x="1959.001953" xlink:href="#DejaVuSans-66"/>
      <use x="1994.207031" xlink:href="#DejaVuSans-20"/>
      <use x="2025.994141" xlink:href="#DejaVuSans-76"/>
      <use x="2085.173828" xlink:href="#DejaVuSans-6f"/>
      <use x="2146.308594" xlink:href="#DejaVuSans-78"/>
      <use x="2205.441406" xlink:href="#DejaVuSans-65"/>
      <use x="2266.964844" xlink:href="#DejaVuSans-6c"/>
      <use x="2294.748047" xlink:href="#DejaVuSans-73"/>
      <use x="2346.847656" xlink:href="#DejaVuSans-29"/>
     </g>
    </g>
    <g id="line2d_25">
     <path d="M 190.8 508.313225 
L 230.8 508.313225 
" style="fill:none;stroke:#00ffff;stroke-linecap:square;stroke-width:1.5;"/>
    </g>
    <g id="line2d_26"/>
    <g id="text_13">
     <!-- GNL score = 0.04 (better than 53.7% of voxels) -->
     <defs>
      <path d="M 40.578125 39.3125 
Q 47.65625 37.796875 51.625 33 
Q 55.609375 28.21875 55.609375 21.1875 
Q 55.609375 10.40625 48.1875 4.484375 
Q 40.765625 -1.421875 27.09375 -1.421875 
Q 22.515625 -1.421875 17.65625 -0.515625 
Q 12.796875 0.390625 7.625 2.203125 
L 7.625 11.71875 
Q 11.71875 9.328125 16.59375 8.109375 
Q 21.484375 6.890625 26.8125 6.890625 
Q 36.078125 6.890625 40.9375 10.546875 
Q 45.796875 14.203125 45.796875 21.1875 
Q 45.796875 27.640625 41.28125 31.265625 
Q 36.765625 34.90625 28.71875 34.90625 
L 20.21875 34.90625 
L 20.21875 43.015625 
L 29.109375 43.015625 
Q 36.375 43.015625 40.234375 45.921875 
Q 44.09375 48.828125 44.09375 54.296875 
Q 44.09375 59.90625 40.109375 62.90625 
Q 36.140625 65.921875 28.71875 65.921875 
Q 24.65625 65.921875 20.015625 65.03125 
Q 15.375 64.15625 9.8125 62.3125 
L 9.8125 71.09375 
Q 15.4375 72.65625 20.34375 73.4375 
Q 25.25 74.21875 29.59375 74.21875 
Q 40.828125 74.21875 47.359375 69.109375 
Q 53.90625 64.015625 53.90625 55.328125 
Q 53.90625 49.265625 50.4375 45.09375 
Q 46.96875 40.921875 40.578125 39.3125 
z
" id="DejaVuSans-33"/>
     </defs>
     <g transform="translate(246.8 515.313225)scale(0.2 -0.2)">
      <use xlink:href="#DejaVuSans-47"/>
      <use x="77.490234" xlink:href="#DejaVuSans-4e"/>
      <use x="152.294922" xlink:href="#DejaVuSans-4c"/>
      <use x="208.007812" xlink:href="#DejaVuSans-20"/>
      <use x="239.794922" xlink:href="#DejaVuSans-73"/>
      <use x="291.894531" xlink:href="#DejaVuSans-63"/>
      <use x="346.875" xlink:href="#DejaVuSans-6f"/>
      <use x="408.056641" xlink:href="#DejaVuSans-72"/>
      <use x="449.138672" xlink:href="#DejaVuSans-65"/>
      <use x="510.662109" xlink:href="#DejaVuSans-20"/>
      <use x="542.449219" xlink:href="#DejaVuSans-3d"/>
      <use x="626.238281" xlink:href="#DejaVuSans-20"/>
      <use x="658.025391" xlink:href="#DejaVuSans-30"/>
      <use x="721.648438" xlink:href="#DejaVuSans-2e"/>
      <use x="753.435547" xlink:href="#DejaVuSans-30"/>
      <use x="817.058594" xlink:href="#DejaVuSans-34"/>
      <use x="880.681641" xlink:href="#DejaVuSans-20"/>
      <use x="912.46875" xlink:href="#DejaVuSans-28"/>
      <use x="951.482422" xlink:href="#DejaVuSans-62"/>
      <use x="1014.958984" xlink:href="#DejaVuSans-65"/>
      <use x="1076.482422" xlink:href="#DejaVuSans-74"/>
      <use x="1115.691406" xlink:href="#DejaVuSans-74"/>
      <use x="1154.900391" xlink:href="#DejaVuSans-65"/>
      <use x="1216.423828" xlink:href="#DejaVuSans-72"/>
      <use x="1257.537109" xlink:href="#DejaVuSans-20"/>
      <use x="1289.324219" xlink:href="#DejaVuSans-74"/>
      <use x="1328.533203" xlink:href="#DejaVuSans-68"/>
      <use x="1391.912109" xlink:href="#DejaVuSans-61"/>
      <use x="1453.191406" xlink:href="#DejaVuSans-6e"/>
      <use x="1516.570312" xlink:href="#DejaVuSans-20"/>
      <use x="1548.357422" xlink:href="#DejaVuSans-35"/>
      <use x="1611.980469" xlink:href="#DejaVuSans-33"/>
      <use x="1675.603516" xlink:href="#DejaVuSans-2e"/>
      <use x="1707.390625" xlink:href="#DejaVuSans-37"/>
      <use x="1771.013672" xlink:href="#DejaVuSans-25"/>
      <use x="1866.033203" xlink:href="#DejaVuSans-20"/>
      <use x="1897.820312" xlink:href="#DejaVuSans-6f"/>
      <use x="1959.001953" xlink:href="#DejaVuSans-66"/>
      <use x="1994.207031" xlink:href="#DejaVuSans-20"/>
      <use x="2025.994141" xlink:href="#DejaVuSans-76"/>
      <use x="2085.173828" xlink:href="#DejaVuSans-6f"/>
      <use x="2146.308594" xlink:href="#DejaVuSans-78"/>
      <use x="2205.441406" xlink:href="#DejaVuSans-65"/>
      <use x="2266.964844" xlink:href="#DejaVuSans-6c"/>
      <use x="2294.748047" xlink:href="#DejaVuSans-73"/>
      <use x="2346.847656" xlink:href="#DejaVuSans-29"/>
     </g>
    </g>
    <g id="line2d_27">
     <path d="M 190.8 537.669475 
L 230.8 537.669475 
" style="fill:none;stroke:#ffcc4c;stroke-linecap:square;stroke-width:1.5;"/>
    </g>
    <g id="line2d_28"/>
    <g id="text_14">
     <!-- GNL score = 0.07 (better than 22.7% of voxels) -->
     <g transform="translate(246.8 544.669475)scale(0.2 -0.2)">
      <use xlink:href="#DejaVuSans-47"/>
      <use x="77.490234" xlink:href="#DejaVuSans-4e"/>
      <use x="152.294922" xlink:href="#DejaVuSans-4c"/>
      <use x="208.007812" xlink:href="#DejaVuSans-20"/>
      <use x="239.794922" xlink:href="#DejaVuSans-73"/>
      <use x="291.894531" xlink:href="#DejaVuSans-63"/>
      <use x="346.875" xlink:href="#DejaVuSans-6f"/>
      <use x="408.056641" xlink:href="#DejaVuSans-72"/>
      <use x="449.138672" xlink:href="#DejaVuSans-65"/>
      <use x="510.662109" xlink:href="#DejaVuSans-20"/>
      <use x="542.449219" xlink:href="#DejaVuSans-3d"/>
      <use x="626.238281" xlink:href="#DejaVuSans-20"/>
      <use x="658.025391" xlink:href="#DejaVuSans-30"/>
      <use x="721.648438" xlink:href="#DejaVuSans-2e"/>
      <use x="753.435547" xlink:href="#DejaVuSans-30"/>
      <use x="817.058594" xlink:href="#DejaVuSans-37"/>
      <use x="880.681641" xlink:href="#DejaVuSans-20"/>
      <use x="912.46875" xlink:href="#DejaVuSans-28"/>
      <use x="951.482422" xlink:href="#DejaVuSans-62"/>
      <use x="1014.958984" xlink:href="#DejaVuSans-65"/>
      <use x="1076.482422" xlink:href="#DejaVuSans-74"/>
      <use x="1115.691406" xlink:href="#DejaVuSans-74"/>
      <use x="1154.900391" xlink:href="#DejaVuSans-65"/>
      <use x="1216.423828" xlink:href="#DejaVuSans-72"/>
      <use x="1257.537109" xlink:href="#DejaVuSans-20"/>
      <use x="1289.324219" xlink:href="#DejaVuSans-74"/>
      <use x="1328.533203" xlink:href="#DejaVuSans-68"/>
      <use x="1391.912109" xlink:href="#DejaVuSans-61"/>
      <use x="1453.191406" xlink:href="#DejaVuSans-6e"/>
      <use x="1516.570312" xlink:href="#DejaVuSans-20"/>
      <use x="1548.357422" xlink:href="#DejaVuSans-32"/>
      <use x="1611.980469" xlink:href="#DejaVuSans-32"/>
      <use x="1675.603516" xlink:href="#DejaVuSans-2e"/>
      <use x="1707.390625" xlink:href="#DejaVuSans-37"/>
      <use x="1771.013672" xlink:href="#DejaVuSans-25"/>
      <use x="1866.033203" xlink:href="#DejaVuSans-20"/>
      <use x="1897.820312" xlink:href="#DejaVuSans-6f"/>
      <use x="1959.001953" xlink:href="#DejaVuSans-66"/>
      <use x="1994.207031" xlink:href="#DejaVuSans-20"/>
      <use x="2025.994141" xlink:href="#DejaVuSans-76"/>
      <use x="2085.173828" xlink:href="#DejaVuSans-6f"/>
      <use x="2146.308594" xlink:href="#DejaVuSans-78"/>
      <use x="2205.441406" xlink:href="#DejaVuSans-65"/>
      <use x="2266.964844" xlink:href="#DejaVuSans-6c"/>
      <use x="2294.748047" xlink:href="#DejaVuSans-73"/>
      <use x="2346.847656" xlink:href="#DejaVuSans-29"/>
     </g>
    </g>
    <g id="line2d_29">
     <path d="M 190.8 567.025725 
L 230.8 567.025725 
" style="fill:none;stroke:#000000;stroke-linecap:square;stroke-width:1.5;"/>
    </g>
    <g id="line2d_30"/>
    <g id="text_15">
     <!-- GNL score = 0.06 (better than 29.7% of voxels) -->
     <defs>
      <path d="M 10.984375 1.515625 
L 10.984375 10.5 
Q 14.703125 8.734375 18.5 7.8125 
Q 22.3125 6.890625 25.984375 6.890625 
Q 35.75 6.890625 40.890625 13.453125 
Q 46.046875 20.015625 46.78125 33.40625 
Q 43.953125 29.203125 39.59375 26.953125 
Q 35.25 24.703125 29.984375 24.703125 
Q 19.046875 24.703125 12.671875 31.3125 
Q 6.296875 37.9375 6.296875 49.421875 
Q 6.296875 60.640625 12.9375 67.421875 
Q 19.578125 74.21875 30.609375 74.21875 
Q 43.265625 74.21875 49.921875 64.515625 
Q 56.59375 54.828125 56.59375 36.375 
Q 56.59375 19.140625 48.40625 8.859375 
Q 40.234375 -1.421875 26.421875 -1.421875 
Q 22.703125 -1.421875 18.890625 -0.6875 
Q 15.09375 0.046875 10.984375 1.515625 
z
M 30.609375 32.421875 
Q 37.25 32.421875 41.125 36.953125 
Q 45.015625 41.5 45.015625 49.421875 
Q 45.015625 57.28125 41.125 61.84375 
Q 37.25 66.40625 30.609375 66.40625 
Q 23.96875 66.40625 20.09375 61.84375 
Q 16.21875 57.28125 16.21875 49.421875 
Q 16.21875 41.5 20.09375 36.953125 
Q 23.96875 32.421875 30.609375 32.421875 
z
" id="DejaVuSans-39"/>
     </defs>
     <g transform="translate(246.8 574.025725)scale(0.2 -0.2)">
      <use xlink:href="#DejaVuSans-47"/>
      <use x="77.490234" xlink:href="#DejaVuSans-4e"/>
      <use x="152.294922" xlink:href="#DejaVuSans-4c"/>
      <use x="208.007812" xlink:href="#DejaVuSans-20"/>
      <use x="239.794922" xlink:href="#DejaVuSans-73"/>
      <use x="291.894531" xlink:href="#DejaVuSans-63"/>
      <use x="346.875" xlink:href="#DejaVuSans-6f"/>
      <use x="408.056641" xlink:href="#DejaVuSans-72"/>
      <use x="449.138672" xlink:href="#DejaVuSans-65"/>
      <use x="510.662109" xlink:href="#DejaVuSans-20"/>
      <use x="542.449219" xlink:href="#DejaVuSans-3d"/>
      <use x="626.238281" xlink:href="#DejaVuSans-20"/>
      <use x="658.025391" xlink:href="#DejaVuSans-30"/>
      <use x="721.648438" xlink:href="#DejaVuSans-2e"/>
      <use x="753.435547" xlink:href="#DejaVuSans-30"/>
      <use x="817.058594" xlink:href="#DejaVuSans-36"/>
      <use x="880.681641" xlink:href="#DejaVuSans-20"/>
      <use x="912.46875" xlink:href="#DejaVuSans-28"/>
      <use x="951.482422" xlink:href="#DejaVuSans-62"/>
      <use x="1014.958984" xlink:href="#DejaVuSans-65"/>
      <use x="1076.482422" xlink:href="#DejaVuSans-74"/>
      <use x="1115.691406" xlink:href="#DejaVuSans-74"/>
      <use x="1154.900391" xlink:href="#DejaVuSans-65"/>
      <use x="1216.423828" xlink:href="#DejaVuSans-72"/>
      <use x="1257.537109" xlink:href="#DejaVuSans-20"/>
      <use x="1289.324219" xlink:href="#DejaVuSans-74"/>
      <use x="1328.533203" xlink:href="#DejaVuSans-68"/>
      <use x="1391.912109" xlink:href="#DejaVuSans-61"/>
      <use x="1453.191406" xlink:href="#DejaVuSans-6e"/>
      <use x="1516.570312" xlink:href="#DejaVuSans-20"/>
      <use x="1548.357422" xlink:href="#DejaVuSans-32"/>
      <use x="1611.980469" xlink:href="#DejaVuSans-39"/>
      <use x="1675.603516" xlink:href="#DejaVuSans-2e"/>
      <use x="1707.390625" xlink:href="#DejaVuSans-37"/>
      <use x="1771.013672" xlink:href="#DejaVuSans-25"/>
      <use x="1866.033203" xlink:href="#DejaVuSans-20"/>
      <use x="1897.820312" xlink:href="#DejaVuSans-6f"/>
      <use x="1959.001953" xlink:href="#DejaVuSans-66"/>
      <use x="1994.207031" xlink:href="#DejaVuSans-20"/>
      <use x="2025.994141" xlink:href="#DejaVuSans-76"/>
      <use x="2085.173828" xlink:href="#DejaVuSans-6f"/>
      <use x="2146.308594" xlink:href="#DejaVuSans-78"/>
      <use x="2205.441406" xlink:href="#DejaVuSans-65"/>
      <use x="2266.964844" xlink:href="#DejaVuSans-6c"/>
      <use x="2294.748047" xlink:href="#DejaVuSans-73"/>
      <use x="2346.847656" xlink:href="#DejaVuSans-29"/>
     </g>
    </g>
    <g id="line2d_31">
     <path d="M 190.8 596.381975 
L 230.8 596.381975 
" style="fill:none;stroke:#ff33ff;stroke-linecap:square;stroke-width:1.5;"/>
    </g>
    <g id="line2d_32"/>
    <g id="text_16">
     <!-- GNL score = 0.13 (better than 3.8% of voxels) -->
     <g transform="translate(246.8 603.381975)scale(0.2 -0.2)">
      <use xlink:href="#DejaVuSans-47"/>
      <use x="77.490234" xlink:href="#DejaVuSans-4e"/>
      <use x="152.294922" xlink:href="#DejaVuSans-4c"/>
      <use x="208.007812" xlink:href="#DejaVuSans-20"/>
      <use x="239.794922" xlink:href="#DejaVuSans-73"/>
      <use x="291.894531" xlink:href="#DejaVuSans-63"/>
      <use x="346.875" xlink:href="#DejaVuSans-6f"/>
      <use x="408.056641" xlink:href="#DejaVuSans-72"/>
      <use x="449.138672" xlink:href="#DejaVuSans-65"/>
      <use x="510.662109" xlink:href="#DejaVuSans-20"/>
      <use x="542.449219" xlink:href="#DejaVuSans-3d"/>
      <use x="626.238281" xlink:href="#DejaVuSans-20"/>
      <use x="658.025391" xlink:href="#DejaVuSans-30"/>
      <use x="721.648438" xlink:href="#DejaVuSans-2e"/>
      <use x="753.435547" xlink:href="#DejaVuSans-31"/>
      <use x="817.058594" xlink:href="#DejaVuSans-33"/>
      <use x="880.681641" xlink:href="#DejaVuSans-20"/>
      <use x="912.46875" xlink:href="#DejaVuSans-28"/>
      <use x="951.482422" xlink:href="#DejaVuSans-62"/>
      <use x="1014.958984" xlink:href="#DejaVuSans-65"/>
      <use x="1076.482422" xlink:href="#DejaVuSans-74"/>
      <use x="1115.691406" xlink:href="#DejaVuSans-74"/>
      <use x="1154.900391" xlink:href="#DejaVuSans-65"/>
      <use x="1216.423828" xlink:href="#DejaVuSans-72"/>
      <use x="1257.537109" xlink:href="#DejaVuSans-20"/>
      <use x="1289.324219" xlink:href="#DejaVuSans-74"/>
      <use x="1328.533203" xlink:href="#DejaVuSans-68"/>
      <use x="1391.912109" xlink:href="#DejaVuSans-61"/>
      <use x="1453.191406" xlink:href="#DejaVuSans-6e"/>
      <use x="1516.570312" xlink:href="#DejaVuSans-20"/>
      <use x="1548.357422" xlink:href="#DejaVuSans-33"/>
      <use x="1611.980469" xlink:href="#DejaVuSans-2e"/>
      <use x="1643.767578" xlink:href="#DejaVuSans-38"/>
      <use x="1707.390625" xlink:href="#DejaVuSans-25"/>
      <use x="1802.410156" xlink:href="#DejaVuSans-20"/>
      <use x="1834.197266" xlink:href="#DejaVuSans-6f"/>
      <use x="1895.378906" xlink:href="#DejaVuSans-66"/>
      <use x="1930.583984" xlink:href="#DejaVuSans-20"/>
      <use x="1962.371094" xlink:href="#DejaVuSans-76"/>
      <use x="2021.550781" xlink:href="#DejaVuSans-6f"/>
      <use x="2082.685547" xlink:href="#DejaVuSans-78"/>
      <use x="2141.818359" xlink:href="#DejaVuSans-65"/>
      <use x="2203.341797" xlink:href="#DejaVuSans-6c"/>
      <use x="2231.125" xlink:href="#DejaVuSans-73"/>
      <use x="2283.224609" xlink:href="#DejaVuSans-29"/>
     </g>
    </g>
    <g id="line2d_33">
     <path d="M 190.8 625.738225 
L 230.8 625.738225 
" style="fill:none;stroke:#ff0000;stroke-linecap:square;stroke-width:1.5;"/>
    </g>
    <g id="line2d_34"/>
    <g id="text_17">
     <!-- Undistorted ground truth -->
     <defs>
      <path d="M 8.6875 72.90625 
L 18.609375 72.90625 
L 18.609375 28.609375 
Q 18.609375 16.890625 22.84375 11.734375 
Q 27.09375 6.59375 36.625 6.59375 
Q 46.09375 6.59375 50.34375 11.734375 
Q 54.59375 16.890625 54.59375 28.609375 
L 54.59375 72.90625 
L 64.5 72.90625 
L 64.5 27.390625 
Q 64.5 13.140625 57.4375 5.859375 
Q 50.390625 -1.421875 36.625 -1.421875 
Q 22.796875 -1.421875 15.734375 5.859375 
Q 8.6875 13.140625 8.6875 27.390625 
z
" id="DejaVuSans-55"/>
      <path d="M 45.40625 46.390625 
L 45.40625 75.984375 
L 54.390625 75.984375 
L 54.390625 0 
L 45.40625 0 
L 45.40625 8.203125 
Q 42.578125 3.328125 38.25 0.953125 
Q 33.9375 -1.421875 27.875 -1.421875 
Q 17.96875 -1.421875 11.734375 6.484375 
Q 5.515625 14.40625 5.515625 27.296875 
Q 5.515625 40.1875 11.734375 48.09375 
Q 17.96875 56 27.875 56 
Q 33.9375 56 38.25 53.625 
Q 42.578125 51.265625 45.40625 46.390625 
z
M 14.796875 27.296875 
Q 14.796875 17.390625 18.875 11.75 
Q 22.953125 6.109375 30.078125 6.109375 
Q 37.203125 6.109375 41.296875 11.75 
Q 45.40625 17.390625 45.40625 27.296875 
Q 45.40625 37.203125 41.296875 42.84375 
Q 37.203125 48.484375 30.078125 48.484375 
Q 22.953125 48.484375 18.875 42.84375 
Q 14.796875 37.203125 14.796875 27.296875 
z
" id="DejaVuSans-64"/>
     </defs>
     <g transform="translate(246.8 632.738225)scale(0.2 -0.2)">
      <use xlink:href="#DejaVuSans-55"/>
      <use x="73.193359" xlink:href="#DejaVuSans-6e"/>
      <use x="136.572266" xlink:href="#DejaVuSans-64"/>
      <use x="200.048828" xlink:href="#DejaVuSans-69"/>
      <use x="227.832031" xlink:href="#DejaVuSans-73"/>
      <use x="279.931641" xlink:href="#DejaVuSans-74"/>
      <use x="319.140625" xlink:href="#DejaVuSans-6f"/>
      <use x="380.322266" xlink:href="#DejaVuSans-72"/>
      <use x="421.435547" xlink:href="#DejaVuSans-74"/>
      <use x="460.644531" xlink:href="#DejaVuSans-65"/>
      <use x="522.167969" xlink:href="#DejaVuSans-64"/>
      <use x="585.644531" xlink:href="#DejaVuSans-20"/>
      <use x="617.431641" xlink:href="#DejaVuSans-67"/>
      <use x="680.908203" xlink:href="#DejaVuSans-72"/>
      <use x="721.990234" xlink:href="#DejaVuSans-6f"/>
      <use x="783.171875" xlink:href="#DejaVuSans-75"/>
      <use x="846.550781" xlink:href="#DejaVuSans-6e"/>
      <use x="909.929688" xlink:href="#DejaVuSans-64"/>
      <use x="973.40625" xlink:href="#DejaVuSans-20"/>
      <use x="1005.193359" xlink:href="#DejaVuSans-74"/>
      <use x="1044.402344" xlink:href="#DejaVuSans-72"/>
      <use x="1085.515625" xlink:href="#DejaVuSans-75"/>
      <use x="1148.894531" xlink:href="#DejaVuSans-74"/>
      <use x="1188.103516" xlink:href="#DejaVuSans-68"/>
     </g>
    </g>
   </g>
  </g>
 </g>
 <defs>
  <clipPath id="p35e7822c27">
   <rect height="566.5968" width="1071.36" x="172.8" y="88.3008"/>
  </clipPath>
 </defs>
</svg>
